<svg width="26" height="35" viewBox="0 0 26 35" fill="none" xmlns="http://www.w3.org/2000/svg">
<path d="M22.0348 20.7857C22.2185 20.5873 22.4399 20.4281 22.686 20.3178C22.932 20.2074 23.1977 20.1481 23.467 20.1433C23.7363 20.1385 24.0039 20.1884 24.2536 20.2899C24.5034 20.3915 24.7303 20.5427 24.9208 20.7344C25.1113 20.9262 25.2614 21.1546 25.3623 21.406C25.4632 21.6575 25.5127 21.9268 25.508 22.1979C25.5032 22.4691 25.4443 22.7365 25.3347 22.9842C25.225 23.2319 25.0669 23.4548 24.8699 23.6397L14.1716 34.4094C13.7955 34.7876 13.2856 35 12.7541 35C12.2225 35 11.7127 34.7876 11.3365 34.4094L0.638261 23.6397C0.441181 23.4548 0.283109 23.2319 0.173474 22.9842C0.0638378 22.7364 0.00488808 22.4691 0.000135967 22.1979C-0.00461614 21.9268 0.0449262 21.6575 0.145814 21.406C0.246701 21.1546 0.396865 20.9262 0.587344 20.7344C0.777824 20.5427 1.00472 20.3915 1.25449 20.2899C1.50427 20.1884 1.7718 20.1385 2.04113 20.1433C2.31047 20.1481 2.57609 20.2074 2.82215 20.3178C3.06821 20.4281 3.28966 20.5873 3.47331 20.7857L10.7481 28.1091L10.7481 2.01933C10.7481 1.48377 10.9595 0.970145 11.3357 0.591446C11.7118 0.212748 12.2221 -1.16152e-06 12.7541 -1.11501e-06C13.2861 -1.0685e-06 13.7963 0.212748 14.1725 0.591446C14.5487 0.970145 14.76 1.48377 14.76 2.01933L14.76 28.1091L22.0348 20.7857Z" fill="#BFBFBF"/>
</svg>
