<svg width="14" height="12" viewBox="0 0 14 12" fill="none" xmlns="http://www.w3.org/2000/svg">
<path d="M8.31427 2.26294C8.23491 2.18899 8.17126 2.09982 8.12711 2.00073C8.08296 1.90165 8.05922 1.79469 8.05731 1.68624C8.0554 1.57779 8.07535 1.47006 8.11597 1.36948C8.1566 1.2689 8.21706 1.17754 8.29377 1.10084C8.37047 1.02414 8.46183 0.963669 8.56241 0.923045C8.66298 0.88242 8.77071 0.86247 8.87917 0.864383C8.98762 0.866297 9.09458 0.890035 9.19366 0.934183C9.29274 0.97833 9.38192 1.04198 9.45586 1.12134L13.7638 5.42925C13.915 5.5807 14 5.786 14 6.00005C14 6.2141 13.915 6.4194 13.7638 6.57085L9.45586 10.8788C9.38192 10.9581 9.29274 11.0218 9.19366 11.0659C9.09458 11.1101 8.98762 11.1338 8.87917 11.1357C8.77071 11.1376 8.66298 11.1177 8.56241 11.0771C8.46183 11.0364 8.37047 10.976 8.29376 10.8993C8.21706 10.8226 8.1566 10.7312 8.11597 10.6306C8.07535 10.53 8.0554 10.4223 8.05731 10.3139C8.05922 10.2054 8.08296 10.0984 8.12711 9.99937C8.17126 9.90028 8.23491 9.81111 8.31427 9.73716L11.2436 6.80778L0.807733 6.80778C0.593509 6.80778 0.388058 6.72268 0.236579 6.5712C0.0850999 6.41972 -2.33857e-07 6.21427 -2.24493e-07 6.00005C-2.15129e-07 5.78583 0.0851 5.58038 0.236579 5.4289C0.388058 5.27742 0.593509 5.19232 0.807733 5.19232L11.2436 5.19232L8.31427 2.26294Z" fill="white"/>
</svg>
