<svg width="26" height="35" viewBox="0 0 26 35" fill="none" xmlns="http://www.w3.org/2000/svg">
<path d="M22.5265 20.7857C22.7102 20.5873 22.9316 20.4281 23.1777 20.3178C23.4237 20.2074 23.6894 20.1481 23.9587 20.1433C24.228 20.1385 24.4956 20.1884 24.7453 20.2899C24.9951 20.3915 25.222 20.5427 25.4125 20.7344C25.603 20.9262 25.7531 21.1546 25.854 21.406C25.9549 21.6575 26.0044 21.9268 25.9997 22.1979C25.9949 22.4691 25.936 22.7365 25.8263 22.9842C25.7167 23.2319 25.5586 23.4548 25.3616 23.6397L14.6633 34.4094C14.2872 34.7876 13.7773 35 13.2458 35C12.7142 35 12.2044 34.7876 11.8282 34.4094L1.12996 23.6397C0.93288 23.4548 0.774809 23.2319 0.665173 22.9842C0.555537 22.7364 0.496587 22.4691 0.491835 22.1979C0.487083 21.9268 0.536625 21.6575 0.637513 21.406C0.7384 21.1546 0.888564 20.9262 1.07904 20.7344C1.26952 20.5427 1.49642 20.3915 1.74619 20.2899C1.99597 20.1884 2.2635 20.1385 2.53283 20.1433C2.80217 20.1481 3.06779 20.2074 3.31385 20.3178C3.55991 20.4281 3.78136 20.5873 3.96501 20.7857L11.2398 28.1091L11.2398 2.01933C11.2398 1.48377 11.4512 0.970145 11.8274 0.591446C12.2035 0.212748 12.7138 -1.16152e-06 13.2458 -1.11501e-06C13.7778 -1.0685e-06 14.288 0.212748 14.6642 0.591446C15.0404 0.970145 15.2517 1.48377 15.2517 2.01933L15.2517 28.1091L22.5265 20.7857Z" fill="white"/>
</svg>
