<?xml version="1.0" encoding="utf-8"?>
<!-- Generator: Adobe Illustrator 27.8.1, SVG Export Plug-In . SVG Version: 6.00 Build 0)  -->
<svg version="1.1" id="Layer_1" xmlns="http://www.w3.org/2000/svg" xmlns:xlink="http://www.w3.org/1999/xlink" x="0px" y="0px"
	 viewBox="0 0 350 200" style="enable-background:new 0 0 350 200;" xml:space="preserve">
<style type="text/css">
	.st0{fill:#0FB9A3;}
	.st1{fill:#AB1F23;}
	.st2{fill:#8A191A;}
	.st3{fill:#39256D;}
	.st4{fill:#781315;}
	.st5{fill:#301010;}
	.st6{fill:#7E1516;}
	.st7{fill:#9D1D20;}
	.st8{fill:#821618;}
	.st9{fill:#291753;}
	.st10{fill:#2D1B58;}
	.st11{fill:#761314;}
	.st12{fill:#510F11;}
	.st13{fill:#570F0F;}
	.st14{fill:#306686;}
</style>
<path class="st0" d="M71.67,61.59c4.1,0.17,8.16,0.57,12.09,1.87c3.3,1.09,6.25,2.76,8.47,5.51c1.66,2.06,2.53,4.41,2.56,7.07
	c0.02,2.08-0.15,4.13-0.65,6.14c-0.88,3.52-3.07,5.98-6.19,7.7c-1.8,0.99-3.7,1.74-5.62,2.44c-0.2,0.07-0.45,0.07-0.6,0.32
	c2.21,0.51,4.37,1.1,6.43,2c3.54,1.54,6.38,3.83,7.91,7.48c1.04,2.49,1.36,5.11,1.43,7.79c0.17,6.78-2.98,11.54-8.8,14.72
	c-3.12,1.7-6.51,2.62-10,3.19c-2.12,0.35-4.26,0.58-6.41,0.64c-0.41,0.12-0.84-0.05-1.24,0.1c-10.82,0-21.63,0-32.45,0
	c-0.32-0.13-0.65-0.03-0.98-0.06c-0.2,0-0.4,0-0.6,0c-4.89,0.04-9.64-0.67-14.17-2.59c-3.5-1.48-6.52-3.59-8.66-6.79
	c-1.32-1.98-2.09-4.14-2.09-6.55c0-0.12,0.03-0.25-0.06-0.35c0-0.08,0-0.16,0-0.25c0.1-0.33,0.1-0.66,0-0.98c0-0.57,0-1.15,0-1.72
	c0.13-0.28,0.03-0.57,0.06-0.85c-0.01-2.39,0.27-4.72,1.33-6.92c1.35-2.8,3.44-4.84,6.16-6.3c2.09-1.12,4.3-1.91,6.6-2.47
	c0.2-0.05,0.4-0.1,0.68-0.19c-0.54-0.26-1.04-0.41-1.52-0.59c-1.79-0.68-3.5-1.5-5.1-2.55c-3.11-2.02-4.83-4.92-5.42-8.54
	c-0.24-1.48-0.39-2.96-0.39-4.46c0.01-3.1,1.02-5.8,3.08-8.13c1.96-2.22,4.41-3.7,7.14-4.74c2.44-0.93,4.97-1.54,7.57-1.77
	c1.71-0.16,3.43-0.19,5.15-0.22c0.32-0.03,0.65,0.07,0.97-0.06c0.08,0,0.16,0,0.25,0c0.49,0.1,0.98,0.1,1.48,0
	c9.34,0,18.68,0,28.03,0c0.61,0.13,1.22,0.03,1.84,0.06c0.33,0,0.65,0,0.98,0C71.17,61.57,71.42,61.51,71.67,61.59z"/>
<path class="st1" d="M69.95,61.6c-0.62-0.02-1.25,0.12-1.86-0.11c0.61,0,1.23,0,1.84,0C70.03,61.52,70.04,61.55,69.95,61.6z"/>
<path class="st2" d="M40.07,61.49c-0.49,0.16-0.98,0.23-1.48,0C39.09,61.49,39.58,61.49,40.07,61.49z"/>
<path class="st3" d="M326.72,99.34c0,0.45,0,0.9,0,1.35c-0.08,0.04-0.15,0.04-0.22-0.02c-0.28-0.44-0.28-0.88,0-1.32
	C326.57,99.3,326.65,99.3,326.72,99.34z"/>
<path class="st4" d="M71.05,128.58c0.4-0.16,0.82-0.13,1.24-0.1c0,0.03-0.01,0.07-0.01,0.1C71.87,128.58,71.46,128.58,71.05,128.58z
	"/>
<path class="st5" d="M37.36,61.59c0-0.03,0-0.07,0-0.1c0.33,0,0.66,0,0.98,0C38.04,61.71,37.69,61.59,37.36,61.59z"/>
<path class="st6" d="M69.95,61.6c-0.01-0.04-0.01-0.07-0.01-0.11c0.33,0,0.66,0,0.98,0c0.03,0.01,0.06,0.03,0.09,0.04
	c-0.03,0.02-0.05,0.04-0.08,0.06C70.61,61.6,70.28,61.6,69.95,61.6z"/>
<path class="st7" d="M12.04,111.01c0.15,0.33,0.21,0.66,0,0.98C12.04,111.67,12.04,111.34,12.04,111.01z"/>
<path class="st8" d="M37.6,128.48c0.34-0.02,0.68-0.05,0.99,0.1c-0.33,0-0.66,0-0.98,0c-0.03-0.01-0.06-0.03-0.1-0.04
	C37.54,128.52,37.57,128.5,37.6,128.48z"/>
<path class="st9" d="M326.72,99.34c-0.03,0-0.07,0-0.1-0.01c-0.37-0.28-0.37-0.57-0.01-0.86c0.04,0.01,0.07,0.01,0.11,0.01
	C326.72,98.76,326.72,99.05,326.72,99.34z"/>
<path class="st10" d="M326.62,100.7c0.03-0.01,0.07-0.01,0.1-0.01c0,0.29,0,0.57,0,0.86c-0.03,0-0.07,0.01-0.1,0.01
	C326.25,101.27,326.25,100.99,326.62,100.7z"/>
<path class="st11" d="M12.04,108.43c0.03,0,0.07-0.01,0.1-0.01c0.03,0.3,0.06,0.6-0.1,0.88C12.04,109,12.04,108.72,12.04,108.43z"/>
<path class="st12" d="M70.94,61.59c0-0.03-0.01-0.07-0.01-0.1c0.25,0,0.49,0,0.74,0c0,0.03,0.01,0.07,0.01,0.1
	C71.43,61.59,71.18,61.59,70.94,61.59z"/>
<path class="st13" d="M37.6,128.48c0,0.03,0.01,0.07,0.01,0.1c-0.2,0-0.41,0-0.61,0c0-0.04,0-0.07-0.01-0.1
	C37.19,128.48,37.4,128.48,37.6,128.48z"/>
<path class="st0" d="M259.79,112.44c0.99-3.16,5.13-4.33,7.38-2.07c1.23,1.23,1.14,3.25-0.22,4.34c-0.99,0.8-2.13,1.09-3.39,0.84
	c-0.14-0.03-0.33-0.2-0.44,0c-0.11,0.19,0.12,0.28,0.22,0.38c1.31,1.31,3.92,1.8,5.61,1.04c1.42-0.64,1.93-1.92,2.21-3.33
	c0.19-0.94,0.26-1.9,0.26-2.87c-0.01-8.38,0-16.75,0-25.13c0-1.62-0.56-2.24-2.19-2.43c-1.15-0.14-1.2-0.21-1.07-1.39
	c0.03-0.26,0.12-0.37,0.37-0.36c0.14,0.01,0.29,0,0.43,0c8.01,0,16.02,0,24.03,0.01c0.26,0,0.69-0.17,0.77,0.14
	c0.11,0.44,0.04,0.93,0,1.4c-0.01,0.15-0.25,0.09-0.38,0.13c-1.59,0.38-2.04,0.91-2.04,2.56c-0.01,9.22-0.01,18.43,0,27.65
	c0,1.61,0.45,2.13,2.05,2.44c0.29,0.06,0.41,0.16,0.42,0.47c0.06,1.25,0.07,1.25-1.18,1.25c-3.56,0-7.13-0.01-10.69,0.01
	c-0.58,0-0.77-0.17-0.69-0.72c0.02-0.16,0.02-0.33,0-0.49c-0.04-0.33,0.1-0.47,0.42-0.53c1.7-0.33,2.15-0.86,2.15-2.56
	c0-9.15,0.01-18.31,0-27.46c0-2.18-1.95-3.36-3.92-2.39c-0.55,0.27-0.79,0.76-0.86,1.33c-0.05,0.49-0.08,0.98-0.08,1.47
	c-0.02,8.13,0.01,16.26-0.05,24.39c-0.03,4.59-2.08,7.16-6.56,8.31c-3.28,0.84-6.52,0.81-9.56-0.97c-0.26-0.15-0.55-0.14-0.84-0.14
	c-3.65,0-7.29,0-10.94,0c-0.35,0-0.76,0.07-0.65-0.49c0.09-0.43-0.37-1.1,0.6-1.15c1.52-0.07,2.03-0.75,1.78-2.26
	c-0.33-1.96-1.04-3.82-1.51-5.74c-0.07-0.27-0.23-0.33-0.49-0.33c-2.7,0.01-5.41,0.01-8.11,0c-0.23,0-0.4,0.03-0.46,0.29
	c-0.39,1.69-1.07,3.3-1.26,5.04c-0.21,1.87,0.61,2.84,2.52,3.01c0.67,0.06,0.64,0.06,0.63,1.18c-0.01,0.55-0.34,0.45-0.65,0.45
	c-2.6,0-5.2-0.02-7.8,0.02c-0.57,0.01-0.67-0.19-0.67-0.7c0-0.57,0.05-0.89,0.74-1.04c1.05-0.22,1.66-1.07,2.15-1.97
	c0.75-1.36,1.08-2.86,1.5-4.33c2.63-9.26,5.25-18.52,7.86-27.78c0.12-0.42,0.3-0.55,0.72-0.53c0.92,0.03,1.84,0.03,2.76,0
	c0.44-0.01,0.63,0.12,0.75,0.57c2.1,7.69,4.23,15.37,6.35,23.06C258.44,107.54,259.11,109.99,259.79,112.44z"/>
<path class="st0" d="M223.99,93.01c3.4,0.54,6.55,1.3,9.39,2.97c2.75,1.61,4.81,3.82,5.28,7.07c0.78,5.29-1.27,10.08-6.94,12.5
	c-3.12,1.34-6.42,1.77-9.76,1.82c-5.47,0.07-10.94,0.02-16.41,0.04c-0.4,0-0.55-0.1-0.52-0.51c0.03-0.49-0.12-1.03,0.05-1.46
	c0.19-0.5,0.85-0.3,1.29-0.45c1.22-0.42,1.77-1.08,1.85-2.37c0.02-0.37,0.04-0.74,0.04-1.1c0-11.63,0-23.26,0-34.89
	c0-0.33-0.01-0.66-0.03-0.98c-0.09-1.6-0.8-2.44-2.4-2.69c-0.63-0.1-0.84-0.3-0.81-0.95c0.06-1.28,0.02-1.29,1.28-1.29
	c5.1,0,10.2-0.04,15.3,0.02c3.12,0.03,6.19,0.48,9.1,1.71c1.71,0.72,3.28,1.68,4.49,3.12c2.81,3.34,2.79,8.5-0.01,11.88
	c-2,2.41-4.67,3.72-7.57,4.64c-1.03,0.33-2.08,0.59-3.15,0.77C224.36,92.86,224.26,92.92,223.99,93.01z"/>
<path class="st0" d="M134.22,93.15c3.11,0.52,6.09,1.28,8.77,2.92c2.67,1.63,4.62,3.85,5.09,7.01c0.86,5.88-1.46,10.92-7.71,13.21
	c-2.54,0.93-5.19,1.32-7.88,1.34c-5.26,0.05-10.53,0.01-15.79,0.03c-0.41,0-0.6-0.08-0.56-0.53c0.04-0.49-0.12-1.04,0.06-1.46
	c0.19-0.45,0.82-0.3,1.25-0.43c1.27-0.39,1.66-1.35,1.76-2.53c0.02-0.26,0.01-0.53,0.01-0.8c0-11.81,0-23.63,0-35.44
	c0-0.25,0.01-0.49-0.01-0.74c-0.11-1.76-0.77-2.5-2.55-2.82c-0.4-0.07-0.52-0.23-0.52-0.64c0.01-1.57-0.01-1.57,1.59-1.57
	c4.51,0,9.01-0.01,13.52,0c3.11,0.01,6.17,0.39,9.04,1.63c2.74,1.18,5.01,2.92,5.97,5.88c1.38,4.21,0.18,8.82-3.99,11.7
	c-2.27,1.58-4.82,2.45-7.5,3.02C134.61,92.98,134.43,93,134.22,93.15z"/>
<path class="st0" d="M196.65,105.18c0.04-0.22,0.06-0.3,0.06-0.37c-0.01-5.41,0.01-10.81-0.04-16.22c-0.02-2.16-0.76-3-2.89-3.33
	c-0.63-0.1-0.66-0.35-0.69-0.86c-0.03-0.63,0.14-0.82,0.79-0.81c2.91,0.04,5.82,0.03,8.73,0c0.5,0,0.66,0.15,0.6,0.62
	c-0.03,0.22-0.01,0.45-0.01,0.68c0,0.2-0.09,0.3-0.29,0.31c-0.06,0-0.12,0-0.18,0.01c-2.19,0.34-2.88,1.04-3.15,3.22
	c-0.05,0.42-0.06,0.86-0.06,1.29c0,9.34-0.01,18.68,0.01,28.01c0,0.55-0.12,0.76-0.7,0.72c-0.75-0.05-1.52-0.04-2.27,0
	c-0.48,0.02-0.76-0.13-1.02-0.56c-5.29-8.79-10.59-17.57-15.9-26.36c-0.18-0.3-0.36-0.59-0.55-0.9c-0.21,0.12-0.11,0.3-0.11,0.44
	c-0.01,7.13,0,14.25-0.01,21.38c0,0.5,0.06,0.98,0.17,1.46c0.3,1.4,1.19,2.14,2.98,2.36c0.97,0.12,0.43,0.79,0.53,1.21
	c0.12,0.52-0.32,0.4-0.6,0.4c-7.11,0-14.22,0-21.32,0.01c-0.37,0-0.73,0.03-0.64-0.51c0.07-0.44-0.27-1.11,0.63-1.06
	c0.1,0.01,0.21,0,0.31-0.02c1.49-0.18,2.02-0.9,1.66-2.35c-0.44-1.76-1.08-3.46-1.62-5.2c-0.07-0.24-0.19-0.32-0.43-0.32
	c-3.01,0.01-6.02,0-9.03,0c-0.17,0-0.33,0-0.39,0.21c-0.43,1.51-1.1,2.96-1.34,4.51c-0.33,2.04,0.49,2.97,2.56,3.16
	c0.27,0.02,0.68-0.1,0.77,0.2c0.11,0.37,0.06,0.81,0.03,1.21c-0.02,0.23-0.25,0.17-0.4,0.17c-3.03,0-6.06,0-9.09,0.01
	c-0.33,0-0.43-0.13-0.41-0.44c0.02-0.22,0.02-0.45,0-0.68c-0.02-0.27,0.06-0.42,0.35-0.46c1.37-0.17,2.22-1.03,2.89-2.15
	c0.75-1.26,1.11-2.67,1.55-4.05c2.83-8.73,5.67-17.45,8.49-26.19c0.14-0.43,0.33-0.61,0.81-0.59c1.04,0.04,2.09,0.04,3.13,0
	c0.44-0.02,0.59,0.15,0.72,0.54c2.17,6.91,4.35,13.81,6.53,20.71c0.89,2.82,1.79,5.63,2.69,8.45c0.22,0.68,0.51,1.34,0.94,1.91
	c0.58,0.76,1.26,1.39,2.32,1.17c1.2-0.25,2.04-0.92,2.27-2.19c0.09-0.48,0.15-0.97,0.15-1.46c-0.01-8.31,0-16.63,0-24.94
	c0-1.3-0.4-1.79-1.67-2.1c-0.5-0.12-1-0.24-1.51-0.23c-0.43,0.01-0.57-0.16-0.55-0.58c0.04-1.27-0.12-1.01,0.98-1.02
	c3.22-0.01,6.43,0.01,9.65-0.02c0.48,0,0.73,0.15,0.96,0.55c4.07,6.8,8.16,13.6,12.24,20.39
	C196.35,104.71,196.46,104.88,196.65,105.18z"/>
<path class="st0" d="M326.62,100.7c0,0.29,0,0.58,0,0.86c-0.38,6.03-2.8,10.99-7.71,14.61c-4.92,3.63-12.07,3.31-16.74-0.63
	c-4.85-4.1-6.96-9.38-6.93-15.64c0.02-4.48,1.15-8.61,3.92-12.2c2.34-3.03,5.22-5.3,9.11-5.98c4.35-0.76,8.27,0.15,11.69,3.04
	c3.84,3.25,5.95,7.4,6.53,12.36c0.05,0.45,0.08,0.89,0.13,1.34c0,0.29,0,0.57,0.01,0.86C326.62,99.78,326.62,100.24,326.62,100.7z"
	/>
<path class="st14" d="M46.21,108.31c0,4.01,0,8.03,0,12.04c0,0.82-0.07,1.64-0.25,2.44c-0.31,1.31-1.08,2.24-2.43,2.47
	c-3.69,0.64-7.19,0.2-10.22-2.21c-1.8-1.44-2.74-3.45-3.22-5.65c-1-4.65-0.86-9.27,0.57-13.81c1.37-4.32,4.51-6.73,8.8-7.79
	c2.01-0.5,4.07-0.7,6.14-0.76c0.5-0.01,0.61,0.16,0.61,0.63C46.2,99.87,46.21,104.09,46.21,108.31z"/>
<path class="st14" d="M63.39,108.62c0-4.28,0.01-8.56-0.01-12.84c0-0.58,0.13-0.78,0.74-0.75c2.65,0.11,5.26,0.4,7.77,1.31
	c3.31,1.21,5.69,3.41,6.83,6.75c1.75,5.17,1.97,10.44,0.33,15.68c-1.28,4.11-4.39,6.09-8.54,6.61c-1.24,0.15-2.49,0.23-3.73,0.03
	c-2.22-0.35-3.28-1.48-3.33-3.77c-0.07-2.66-0.04-5.32-0.05-7.99C63.38,111.98,63.39,110.3,63.39,108.62z"/>
<path class="st14" d="M46.21,79.58c0,3.95-0.01,7.9,0.01,11.85c0,0.54-0.13,0.69-0.68,0.69c-2.03,0-4.05-0.07-6.03-0.55
	c-4.06-0.97-6.6-3.47-7.51-7.53c-1.01-4.51-0.86-9.02,0.24-13.49c0.84-3.4,3.18-5.16,6.53-5.73c1.78-0.31,3.58-0.4,5.37-0.13
	c1.24,0.19,1.78,0.77,1.96,2c0.08,0.53,0.12,1.06,0.12,1.59C46.21,72.05,46.21,75.81,46.21,79.58z"/>
<path class="st14" d="M63.39,79.31c0-3.66,0-7.33,0-10.99c0-0.61,0.01-1.22,0.12-1.83c0.2-1.05,0.82-1.64,1.84-1.77
	c2.61-0.34,5.19-0.2,7.67,0.75c1.87,0.72,3.18,2.04,3.91,3.92c0.75,1.93,1.05,3.95,1.17,5.99c0.17,2.93,0.17,5.84-0.53,8.72
	c-1.05,4.34-3.84,6.79-8.16,7.63c-1.78,0.35-3.57,0.39-5.38,0.4c-0.51,0-0.66-0.14-0.66-0.65C63.4,87.41,63.39,83.36,63.39,79.31z"
	/>
<path class="st14" d="M246.84,91.82c0.35,1.29,0.71,2.58,1.06,3.88c0.85,3.15,1.68,6.3,2.54,9.45c0.12,0.43,0.12,0.6-0.42,0.6
	c-2.23-0.03-4.46-0.01-6.7-0.01c-0.29,0-0.51,0.03-0.39-0.42c1.27-4.49,2.52-8.99,3.78-13.48C246.77,91.83,246.8,91.83,246.84,91.82
	z"/>
<path class="st14" d="M217.82,103.37c0-2.93,0.01-5.85-0.01-8.78c0-0.42,0.09-0.56,0.54-0.55c1.56,0.04,3.09,0.26,4.56,0.82
	c2.11,0.81,3.58,2.29,4.29,4.42c1.24,3.7,1.37,7.47,0.34,11.22c-1.1,4-4.34,4.99-7.65,4.65c-1.11-0.11-1.74-0.81-1.93-1.91
	c-0.09-0.5-0.14-1.01-0.14-1.52C217.82,108.93,217.82,106.15,217.82,103.37z"/>
<path class="st14" d="M217.82,83.14c0-2.62,0-5.24,0-7.86c0-2,0.48-2.47,2.46-2.47c0.74,0,1.47,0.08,2.19,0.22
	c2.1,0.41,3.42,1.66,3.94,3.72c0.59,2.34,0.71,4.72,0.55,7.13c-0.07,1.12-0.23,2.23-0.54,3.32c-0.8,2.77-2.72,4.21-5.5,4.65
	c-0.85,0.14-1.71,0.11-2.57,0.15c-0.45,0.02-0.54-0.14-0.54-0.56C217.83,88.67,217.82,85.9,217.82,83.14z"/>
<path class="st14" d="M128.31,103.75c0-2.99,0.01-5.98-0.01-8.97c0-0.47,0.09-0.64,0.6-0.61c2.57,0.16,5,0.64,6.83,2.67
	c1.13,1.26,1.67,2.79,1.98,4.42c0.58,3.03,0.66,6.06-0.05,9.07c-0.62,2.66-2.1,4.54-4.95,5.04c-0.83,0.15-1.67,0.2-2.5,0.05
	c-1.17-0.2-1.85-1.1-1.87-2.58c-0.03-3.03-0.01-6.06-0.01-9.09C128.32,103.75,128.31,103.75,128.31,103.75z"/>
<path class="st14" d="M128.32,83.07c0-2.79-0.01-5.57,0.01-8.36c0.01-1.3,0.39-1.74,1.69-1.86c1.34-0.13,2.66,0.03,3.9,0.59
	c1.43,0.64,2.15,1.84,2.51,3.29c0.58,2.32,0.67,4.69,0.55,7.07c-0.07,1.35-0.25,2.68-0.68,3.97c-0.81,2.47-2.58,3.78-5.09,4.2
	c-0.75,0.13-1.51,0.1-2.26,0.15c-0.5,0.03-0.66-0.11-0.65-0.63c0.03-2.81,0.01-5.61,0.01-8.42
	C128.31,83.07,128.32,83.07,128.32,83.07z"/>
<path class="st14" d="M156.3,93.21c0.4,1.31,0.81,2.62,1.21,3.93c0.89,2.88,1.77,5.76,2.67,8.64c0.15,0.47,0.15,0.65-0.43,0.64
	c-2.43-0.02-4.87-0.01-7.3-0.01c-0.35,0-0.54-0.02-0.39-0.46c1.35-4.17,2.68-8.34,4.03-12.5C156.11,93.37,156.09,93.24,156.3,93.21z
	"/>
<path class="st14" d="M316.63,100.11c0.04,3.66,0.04,7.32-0.6,10.94c-0.27,1.54-0.66,3.03-1.66,4.29c-1.76,2.23-5.22,2.17-6.9-0.12
	c-1.01-1.38-1.39-2.99-1.63-4.63c-0.74-5-0.71-10.03-0.53-15.06c0.09-2.66,0.27-5.31,0.89-7.9c0.22-0.92,0.55-1.79,1.08-2.58
	c1.79-2.66,5.55-2.67,7.35-0.02c0.95,1.41,1.26,3.04,1.52,4.67c0.27,1.72,0.41,3.45,0.47,5.19
	C316.68,96.63,316.63,98.37,316.63,100.11z"/>
</svg>
