<?xml version="1.0" encoding="UTF-8"?>
<svg id="Layer_1" data-name="Layer 1" xmlns="http://www.w3.org/2000/svg" viewBox="0 0 152.71 152.49">
  <defs>
    <style>
      .cls-1 {
        fill: #316787;
      }

      .cls-1, .cls-2 {
        stroke-width: 0px;
      }

      .cls-2 {
        fill: #16b9a2;
      }
    </style>
  </defs>
  <path class="cls-2" d="m43.24,113.59c10.89-9.02,21.84-17.98,33.43-26.11,19-13.34,39.65-23.58,60.96-32.6,1.95-.83,2.16,0,2.6,1.45,10.43,34.19-9.86,72.31-44.32,82.62-22.92,6.86-43.96,2.73-62.9-12.04-2.15-1.68-1.98-2.67,0-4.1.99-.71,1.82-1.64,2.73-2.46,1.34-.31,2.08.73,2.92,1.39,8.79,6.93,18.67,11.26,29.78,12.81,5.44.76,10.87.81,16.3.05,2.08-.29,4.16-.66,6.84-.77-9.5.78-17.92-1.42-26.15-4.49-7.04-2.63-13.4-6.5-19.09-11.4-1.34-1.15-3.26-2.05-3.09-4.35h0Z"/>
  <path class="cls-2" d="m17.22,86.87c-1.83,1.47-3.65,2.94-5.52,4.44-6.85-20.82-1.32-54.2,27.19-73.35C66.04-.26,101.57,4.38,122.88,25.62c-4.47,1.65-8.86,3.25-13.23,4.89-27.33,10.27-51.82,25.52-75.07,42.95-3.16,2.37-6.36,4.69-9.55,7.03-2.21-2.44-2.1-5.64-2.32-8.53-.79-10.31-.33-20.55,3.25-30.42.34-.94.87-1.81,1.09-2.65-3.24,5.28-6.17,10.85-7.94,16.96-2.61,9.02-3.11,18.17-1.69,27.44.19,1.23.33,2.43-.2,3.6v-.02Z"/>
  <path class="cls-2" d="m137.92,38.67c3.43-1.16.6-3.48,1.38-5.12.8.03.93.89,1.28,1.45,29.68,46.57,2.12,108-52.46,116.47-25.12,3.9-46.92-3.54-65.37-20.97-1.16-1.1-1.54-1.77-.11-3.09,3.9-3.6,3.83-3.68,7.79-.31,39.49,33.67,100.1,14.97,113.72-35.11,3.61-13.26,3.16-26.49-.93-39.58-.46-1.48-.68-2.43.7-3.65,1.6-1.42,1.44-3.86-.3-4.58-2.81-1.16-3.4-4-5.69-5.51h0Z"/>
  <path class="cls-2" d="m12.53,118C-7.98,85.22-3.02,45.83,25.25,19.63,38.36,7.48,54.13.95,72.04.1c25.3-1.19,46.2,8.02,62.8,27.09.61.7,1.15,1.46,1.79,2.27-2.9,1.06-4.89,1.2-7.3-1.54C113.96,10.46,94.46,2.43,71.22,3.67,39.25,5.38,11.09,31.51,6.74,63.19c-1.49,10.85-.77,21.44,2.51,31.85.58,1.83.54,3.05-1.16,4.03-1.46.83-1.39,1.91-.75,3.34,2.22,4.89,4.25,9.86,5.87,14.99.11.57-.13.77-.68.61h0Z"/>
  <path class="cls-2" d="m24.93,103.2c6.49-.38,8.94,3.07,6.85,9.34-1.44,4.33-4.7,7.23-7.99,10.05-1.6,1.38-3.11,4.13-4.93,3.63-1.46-.39-1.27-3.63-1.87-5.58-1.79-5.85-3.79-11.64-6.29-17.22-.87-1.95-.51-3.08,1.12-4.25,2.53-1.8,4.92-3.81,7.46-5.61,1.79-1.27,3.84-2.52,5.95-.84,2.14,1.7,2.39,4.17,1.74,6.71-.35,1.36-1.09,2.56-2.04,3.76h0Z"/>
  <path class="cls-1" d="m43.82,112.45c.47,1.55,1.83,2.33,2.94,3.28,13.27,11.27,28.65,16.7,46.18,16.93-.77.22-1.54.48-2.33.66-.92.21-1.84.4-2.77.54-18.75,2.88-35.5-1.57-50.19-13.64-.43-.36-.89-.68-1.34-1.02,2.13-2.66,4.86-4.67,7.51-6.75Z"/>
  <path class="cls-1" d="m17.22,86.87c-1.96-10.34-1.97-20.61,1.01-30.78,2.16-7.38,5.5-14.15,10.49-20.13-5.97,14.48-7.36,29.29-3.69,44.51-2.2,2.63-5.01,4.5-7.81,6.39h0Z"/>
  <path class="cls-2" d="m88.3,70.1c-1.35,3.44-2.58,6.7-6.21,6.39-3.42-.29-4.18-3.64-5.03-6.47-.93-3.12-.73-6.16.66-9.09,1.02-2.15,2.6-3.88,5.08-4,1.99-.09,1.88-.9,1.38-2.28-.35-.97-.44-2.05-.89-2.97-1.33-2.77-.14-4.35,2.51-5.53,1.23,5.25,2.41,10.44,3.67,15.62.53,2.19,1.21,4.35,1.86,6.51.31,1.03,1.15,1.99-.24,2.97-1.32.93-2.19.56-2.79-1.15Z"/>
  <path class="cls-2" d="m46.66,98.42c1.29,1.75,1.02,3.13-.14,4.55-2.36,2.88-4.82,6.19-8.94,5.25-4.18-.95-4.88-5.13-5.56-8.71-.99-5.22,1.99-11.02,6.37-13.04,3.51-1.62,8.38,1.81,8.03,5.67-.07.84-.8,1.23-1.38,1.69-2.15,1.67-4.33,3.32-6.47,5.01-.89.71-2.3,1.21-1.18,2.85,1.01,1.48,2.2,2.36,4.02,1.6,2.24-.95,3.6-2.93,5.24-4.86h.01Z"/>
  <path class="cls-2" d="m50.2,80.51c1.1-2.04,2.18-4.13,4-5.69,2.22-1.91,4.33-1.6,5.34,1.12,1.53,4.14,2.95,8.34,4.05,12.61.59,2.29-2.02,2.43-3.41,3.83-.88-3.49-1.59-6.68-2.53-9.81-.48-1.6-.67-3.87-3.21-3.49-1.99.3-3.68,3.71-3.07,5.84.91,3.16,1.9,6.3,2.85,9.45.52,1.71-1.22,4.35-2.93,4.53-.9.09-.79-.57-.9-1.07-1.12-5.25-2.27-10.48-4.4-15.44-.65-1.52.8-1.85,1.51-2.63,1.43-1.57,1.65.89,2.71.76h0Z"/>
  <path class="cls-2" d="m75.85,76.64c1.06,1.59,1,2.88-.11,4.05-.97,1.02-1.93,2.08-3.06,2.89-3.35,2.39-6.22,1.66-8.15-1.94-2.79-5.19-2.14-11.69,1.61-15.16,1.61-1.48,3.41-2.77,5.81-1.82,2.64,1.05,3.08,3.61,3.83,5.9.32.96-.67,1.23-1.25,1.63-1.86,1.28-3.74,2.52-5.63,3.75-1.06.69-2.2,1.28-1.21,2.83.94,1.48,2.04,2.48,3.95,1.58,1.71-.8,2.88-2.27,4.22-3.7h-.01Z"/>
  <path class="cls-2" d="m103.46,60.27c1.3,3.59-1.38,4.73-3.34,6.06-2,1.37-4.13,1.24-5.86-.67-2.81-3.11-3.5-10.32-1.26-13.89,1.36-2.18,3.21-3.81,6-3.47,2.63.32,3.16,2.63,3.99,4.62.68,1.64.14,2.63-1.44,3.35-1.36.62-2.62,1.48-3.94,2.2-1.23.67-2.74,1.13-1.61,3.07,1.06,1.82,2.54,2.18,4.28,1.2,1.04-.59,1.92-1.47,3.18-2.46h0Z"/>
  <path class="cls-2" d="m106.35,39.39c.96,1.3.48,2.94,1.02,4.35.36-.05.63-.09.9-.12.73-.09,1.43-1.45,2.12-.36s.28,2.24-1,2.77c-1.33.56-1.49,1.53-1.23,2.76.38,1.84.72,3.69,1.07,5.53.43,2.2,1.35,3.44,3.74,1.66,1.21,2.89-.53,3.96-2.53,4.65-2.18.75-3.13-.74-3.59-2.53-.54-2.09-.83-4.25-1.39-6.33-.34-1.25.64-3.59-2.42-2.99-.73.15-.63-1.37.02-2,1.37-1.31,1.71-2.83,1.33-4.62-.33-1.57.99-2.05,1.95-2.79v.02Z"/>
  <path class="cls-2" d="m114.7,35.98c1.28,1.34-.99,5.82,3.65,3.5.25,1.43.65,2.78-1.22,3.28-.17.05-.42.15-.47.29-1.18,3.03.47,5.83.84,8.72.19,1.49,1.32,1.68,2.8,1.11,1.2-.46,1.04.82.9,1.44-.38,1.7-1.73,2.39-3.3,2.63-1.6.25-2.54-.68-2.86-2.11-.62-2.75-1.12-5.53-1.63-8.3-.17-.92.04-1.82-1.57-1.54-1.45.26-1.18-1.1-.62-1.63,1.47-1.4,1.73-3.04,1.56-4.9-.13-1.39.81-1.98,1.91-2.49h.01Z"/>
  <path class="cls-2" d="m135.28,45.09c-.21-1.6-1.46-2.06-2.67-2.62-1.98-.92-3.11-2.42-2.85-4.69.27-2.37,1.56-3.99,3.82-4.76.96-.33,2.07-.75,2.53.75.43,1.42-.56,1.44-1.52,1.68-1.02.25-1.95.78-2.01,2.05-.07,1.46,1.09,1.87,2.1,2.32,2.31,1.03,3.62,2.64,3.33,5.28-.27,2.42-1.7,3.97-3.88,4.74-1.05.37-2.38.91-2.9-.98-.53-1.94.98-1.35,1.8-1.55,1.23-.3,1.97-1.02,2.26-2.21h-.01Z"/>
  <path class="cls-2" d="m125.63,52.31c.38,1.67-1.18,1.66-2.05,2.02-1.17.48-1.01-.74-1.09-1.39-.48-4.3-.95-8.61-2.14-12.79-.55-1.94,1.03-2.12,1.97-2.43,1.7-.55,1.07,1.05,1.2,1.79.74,4.26,1.42,8.54,2.11,12.8Z"/>
  <path class="cls-2" d="m127.57,35.19c-.51.91,1.25,3.09-1.04,3.13-1.56.03-.89-2.07-1.14-3.2-.26-1.16-.19-2.41-.26-3.61-.04-.73.12-1.27,1.01-1.32.88-.05,1.12.47,1.18,1.19.08,1.21.16,2.41.26,3.81h-.01Z"/>
  <path class="cls-2" d="m122.84,32.73c-.29,1.16-.48,2.59-2.05,2.56-1.32-.02-1.51-1.36-1.58-2.34-.09-1.3.42-2.57,1.96-2.56,1.29.02,1.42,1.29,1.67,2.33h0Z"/>
  <path class="cls-2" d="m143.32,45.48c1.44,1.17.53,2.08-.38,2.9-.93.84-1.89.63-2.74-.2-.92-.89-1.27-1.92-.31-2.95.86-.93,1.86-1.63,2.95-.23-.16.16-.49.3-.31.56.26.38.55.19.78-.09h.01Z"/>
  <path class="cls-1" d="m143.32,45.48c-.11.58.34,1.31-.97,1.97.82-1-2.16-1.72.49-2.45.16.16.32.32.48.48Z"/>
  <path class="cls-1" d="m120.2,101.19c-1.15,0-1.64.72-1.93,1.7-.34,1.16-1.27,1.51-2.18,1.03-1.07-.56-.02-1.31.23-1.88,1.03-2.31,2.25-4.53,3.21-6.87.48-1.18,1.16-1.49,2.33-1.48,1.51,0,1.22,1.11,1.37,1.96.37,2.03.75,4.05,1.07,6.09.12.78,1.11,1.86-.46,2.23-1.07.25-1.87-.21-1.91-1.43-.04-1.19-.86-1.29-1.73-1.35Z"/>
  <path class="cls-1" d="m90.98,93.73c2.19-.06,3.92.36,4.12,2.69.18,2.17-.95,3.76-3.1,4.01-1.53.17-2.2.59-2.2,2.13,0,.96-.47,1.61-1.58,1.48-1.4-.16-.92-1.21-.82-1.95.25-1.96.85-3.9.84-5.85,0-2.29,1.05-2.76,2.74-2.5h0Z"/>
  <path class="cls-1" d="m113.47,95.37c-1.36.08-2,.15-2.65.14-.48,0-1.19.55-1.37-.34-.16-.76.33-1.21,1.06-1.37.18-.04.38-.05.56-.03,1.64.19,3.88-.83,4.79.51,1.19,1.77-1.35,2.72-2.12,4.1-.76,1.35-1.81,2.53-2.77,3.83,1.25.64,2.14.04,3.05.06.48.01.95-.01,1.01.64.05.55-.23.99-.74,1.01-1.87.07-3.79.27-5.61-.01-1.36-.21-.59-1.35-.14-1.97,1.46-2.04,3.02-4.01,4.94-6.55v-.02Z"/>
  <path class="cls-1" d="m105.14,95.77c-.42-.19-.5-.22-.58-.27-1-.54-2.99,1.09-3.02-.52-.04-2.06,2.18-1.09,3.41-1.16,1.02-.06,2.54-.71,3.04.6.48,1.25-.78,2.15-1.54,3.1-1.21,1.51-2.33,3.09-3.7,4.93.81.05,1.15.08,1.49.09.94.04,2.48-.98,2.68.24.27,1.67-1.55,1.15-2.52,1.2-1.46.08-3.54.75-4.22-.52-.82-1.53,1.17-2.7,2.05-3.95.89-1.27,1.91-2.45,2.92-3.73h-.01Z"/>
  <path class="cls-1" d="m99.22,95.97c-.23,1.85-.52,4.09-.76,6.33-.11,1.07-.43,1.8-1.71,1.7-1.72-.13-.94-1.32-.85-2.09.25-2.24.67-4.46.9-6.71.11-1.04.43-1.57,1.54-1.45,1.25.14,1.25.9.87,2.2v.02Z"/>
  <path class="cls-1" d="m27.86,111.57c-.2,3.02-2.64,4.93-4.83,6.95-.84.77-1.1-.26-1.3-.78-.64-1.66-1.14-3.38-1.82-5.03-.52-1.26-.63-2.28.68-3.13,1.62-1.05,3.01-2.9,5.22-2.09,1.56.57,2,2.13,2.04,4.08h0Z"/>
  <path class="cls-1" d="m18.36,107.44c-1.18-1.85-1.59-3.9-2.21-5.84-.64-2.03,1.47-2.34,2.48-3.25.91-.81,2.19-1.45,3.33-.49,1.25,1.04,1.62,2.58,1.1,4.12-.81,2.4-2.47,4.14-4.71,5.47h0Z"/>
  <path class="cls-1" d="m86.83,67c-.06.75-.02,1.52-.21,2.23-.36,1.31-1.08,2.5-2.49,2.8-1.58.34-2.39-.89-3.01-2.05-1.48-2.8-1.89-5.69-.17-8.55.78-1.3,2.04-1.99,3.57-1.78,1.51.2,1.27,1.66,1.58,2.65.48,1.52.78,3.09.73,4.72v-.02Z"/>
  <path class="cls-1" d="m36.01,97.76c-.74-3.06-.66-5.48,1.63-7.3,1.33-1.06,2.62-1.25,3.85.34,1.2,1.55.59,2.45-.79,3.39-1.52,1.03-2.93,2.23-4.68,3.58h0Z"/>
  <path class="cls-1" d="m66.21,72.47c-.04-2.17.73-3.66,2.55-4.52,1.46-.69,2.26.18,2.97,1.28.7,1.09.51,1.88-.63,2.54-.89.51-1.69,1.18-2.57,1.7-.61.36-1.15,1.26-1.92.84-.75-.41-.16-1.38-.4-1.85h0Z"/>
  <path class="cls-1" d="m94.89,57.22c-.47-1.76-.43-3.41.66-4.85.63-.83,1.54-1.48,2.7-1.12,1.14.35,1.44,1.41,1.78,2.39.49,1.43-.88,1.49-1.57,1.87-1.13.62-2.14,1.53-3.57,1.71Z"/>
  <path class="cls-2" d="m121.02,96.82c.3,1.01,1.13,2.06-.01,2.98-.21.17-.94.1-1.02-.05-.58-1.21.51-1.95,1.03-2.92h0Z"/>
  <path class="cls-2" d="m91.39,98.85c-.95-.05-1.26-.49-1.02-1.12.3-.79-.24-2.11,1.11-2.25.82-.08,1.4.58,1.4,1.43,0,1.08-.77,1.61-1.49,1.94Z"/>
</svg>