<svg width="44" height="44" viewBox="0 0 44 44" fill="none" xmlns="http://www.w3.org/2000/svg">
<circle cx="22" cy="22" r="22" fill="#B1D8D6"/>
<path d="M22.7727 24.2812C21.7879 24.2812 20.9508 23.9349 20.2614 23.2422C19.572 22.5495 19.2273 21.7083 19.2273 20.7188C19.2273 19.7292 19.572 18.888 20.2614 18.1953C20.9508 17.5026 21.7879 17.1562 22.7727 17.1562C23.7576 17.1562 24.5947 17.5026 25.2841 18.1953C25.9735 18.888 26.3182 19.7292 26.3182 20.7188C26.3182 21.7083 25.9735 22.5495 25.2841 23.2422C24.5947 23.9349 23.7576 24.2812 22.7727 24.2812ZM13.3182 28.4375C12.8307 28.4375 12.4134 28.2631 12.0662 27.9143C11.719 27.5654 11.5455 27.1461 11.5455 26.6562V14.7812C11.5455 14.2914 11.719 13.8721 12.0662 13.5232C12.4134 13.1744 12.8307 13 13.3182 13H32.2273C32.7148 13 33.1321 13.1744 33.4793 13.5232C33.8264 13.8721 34 14.2914 34 14.7812V26.6562C34 27.1461 33.8264 27.5654 33.4793 27.9143C33.1321 28.2631 32.7148 28.4375 32.2273 28.4375H13.3182ZM16.2727 26.6562H29.2727C29.2727 25.825 29.5583 25.1224 30.1295 24.5484C30.7008 23.9745 31.4 23.6875 32.2273 23.6875V17.75C31.4 17.75 30.7008 17.463 30.1295 16.8891C29.5583 16.3151 29.2727 15.6125 29.2727 14.7812H16.2727C16.2727 15.6125 15.9871 16.3151 15.4159 16.8891C14.8447 17.463 14.1455 17.75 13.3182 17.75V23.6875C14.1455 23.6875 14.8447 23.9745 15.4159 24.5484C15.9871 25.1224 16.2727 25.825 16.2727 26.6562ZM30.4545 32H9.77273C9.28523 32 8.8679 31.8256 8.52074 31.4768C8.17358 31.1279 8 30.7086 8 30.2188V16.5625H9.77273V30.2188H30.4545V32Z" fill="#04BA58"/>
</svg>
