<svg width="45" height="44" viewBox="0 0 45 44" fill="none" xmlns="http://www.w3.org/2000/svg">
<circle cx="22.6667" cy="22" r="22" fill="#B1D8D6"/>
<mask id="path-2-inside-1_1526_18126" fill="white">
<path d="M21.9417 29.175H23.3167V27.875C24.3334 27.7583 25.1251 27.4458 25.6917 26.9375C26.2584 26.4292 26.5417 25.75 26.5417 24.9C26.5417 24.05 26.3001 23.3583 25.8167 22.825C25.3334 22.2917 24.5167 21.7833 23.3667 21.3C22.4001 20.9 21.7001 20.5417 21.2667 20.225C20.8334 19.9083 20.6167 19.4833 20.6167 18.95C20.6167 18.4333 20.8042 18.025 21.1792 17.725C21.5542 17.425 22.0667 17.275 22.7167 17.275C23.2167 17.275 23.6501 17.3917 24.0167 17.625C24.3834 17.8583 24.6917 18.2083 24.9417 18.675L26.1417 18.1C25.8584 17.5167 25.4834 17.0583 25.0167 16.725C24.5501 16.3917 24.0001 16.1917 23.3667 16.125V14.85H21.9917V16.125C21.1417 16.2417 20.4709 16.5542 19.9792 17.0625C19.4876 17.5708 19.2417 18.2 19.2417 18.95C19.2417 19.7667 19.4917 20.4167 19.9917 20.9C20.4917 21.3833 21.2417 21.8333 22.2417 22.25C23.3584 22.7167 24.1251 23.1375 24.5417 23.5125C24.9584 23.8875 25.1667 24.35 25.1667 24.9C25.1667 25.4333 24.9459 25.8625 24.5042 26.1875C24.0626 26.5125 23.5084 26.675 22.8417 26.675C22.1917 26.675 21.6126 26.4917 21.1042 26.125C20.5959 25.7583 20.2417 25.2583 20.0417 24.625L18.7667 25.05C19.1167 25.8167 19.5459 26.4208 20.0542 26.8625C20.5626 27.3042 21.1917 27.625 21.9417 27.825V29.175ZM22.6667 32C21.3001 32 20.0084 31.7375 18.7917 31.2125C17.5751 30.6875 16.5126 29.9708 15.6042 29.0625C14.6959 28.1542 13.9792 27.0917 13.4542 25.875C12.9292 24.6583 12.6667 23.3667 12.6667 22C12.6667 20.6167 12.9292 19.3167 13.4542 18.1C13.9792 16.8833 14.6959 15.825 15.6042 14.925C16.5126 14.025 17.5751 13.3125 18.7917 12.7875C20.0084 12.2625 21.3001 12 22.6667 12C24.0501 12 25.3501 12.2625 26.5667 12.7875C27.7834 13.3125 28.8417 14.025 29.7417 14.925C30.6417 15.825 31.3542 16.8833 31.8792 18.1C32.4042 19.3167 32.6667 20.6167 32.6667 22C32.6667 23.3667 32.4042 24.6583 31.8792 25.875C31.3542 27.0917 30.6417 28.1542 29.7417 29.0625C28.8417 29.9708 27.7834 30.6875 26.5667 31.2125C25.3501 31.7375 24.0501 32 22.6667 32ZM22.6667 30.5C25.0334 30.5 27.0417 29.6708 28.6917 28.0125C30.3417 26.3542 31.1667 24.35 31.1667 22C31.1667 19.6333 30.3417 17.625 28.6917 15.975C27.0417 14.325 25.0334 13.5 22.6667 13.5C20.3167 13.5 18.3126 14.325 16.6542 15.975C14.9959 17.625 14.1667 19.6333 14.1667 22C14.1667 24.35 14.9959 26.3542 16.6542 28.0125C18.3126 29.6708 20.3167 30.5 22.6667 30.5Z"/>
</mask>
<path d="M21.9417 29.175H23.3167V27.875C24.3334 27.7583 25.1251 27.4458 25.6917 26.9375C26.2584 26.4292 26.5417 25.75 26.5417 24.9C26.5417 24.05 26.3001 23.3583 25.8167 22.825C25.3334 22.2917 24.5167 21.7833 23.3667 21.3C22.4001 20.9 21.7001 20.5417 21.2667 20.225C20.8334 19.9083 20.6167 19.4833 20.6167 18.95C20.6167 18.4333 20.8042 18.025 21.1792 17.725C21.5542 17.425 22.0667 17.275 22.7167 17.275C23.2167 17.275 23.6501 17.3917 24.0167 17.625C24.3834 17.8583 24.6917 18.2083 24.9417 18.675L26.1417 18.1C25.8584 17.5167 25.4834 17.0583 25.0167 16.725C24.5501 16.3917 24.0001 16.1917 23.3667 16.125V14.85H21.9917V16.125C21.1417 16.2417 20.4709 16.5542 19.9792 17.0625C19.4876 17.5708 19.2417 18.2 19.2417 18.95C19.2417 19.7667 19.4917 20.4167 19.9917 20.9C20.4917 21.3833 21.2417 21.8333 22.2417 22.25C23.3584 22.7167 24.1251 23.1375 24.5417 23.5125C24.9584 23.8875 25.1667 24.35 25.1667 24.9C25.1667 25.4333 24.9459 25.8625 24.5042 26.1875C24.0626 26.5125 23.5084 26.675 22.8417 26.675C22.1917 26.675 21.6126 26.4917 21.1042 26.125C20.5959 25.7583 20.2417 25.2583 20.0417 24.625L18.7667 25.05C19.1167 25.8167 19.5459 26.4208 20.0542 26.8625C20.5626 27.3042 21.1917 27.625 21.9417 27.825V29.175ZM22.6667 32C21.3001 32 20.0084 31.7375 18.7917 31.2125C17.5751 30.6875 16.5126 29.9708 15.6042 29.0625C14.6959 28.1542 13.9792 27.0917 13.4542 25.875C12.9292 24.6583 12.6667 23.3667 12.6667 22C12.6667 20.6167 12.9292 19.3167 13.4542 18.1C13.9792 16.8833 14.6959 15.825 15.6042 14.925C16.5126 14.025 17.5751 13.3125 18.7917 12.7875C20.0084 12.2625 21.3001 12 22.6667 12C24.0501 12 25.3501 12.2625 26.5667 12.7875C27.7834 13.3125 28.8417 14.025 29.7417 14.925C30.6417 15.825 31.3542 16.8833 31.8792 18.1C32.4042 19.3167 32.6667 20.6167 32.6667 22C32.6667 23.3667 32.4042 24.6583 31.8792 25.875C31.3542 27.0917 30.6417 28.1542 29.7417 29.0625C28.8417 29.9708 27.7834 30.6875 26.5667 31.2125C25.3501 31.7375 24.0501 32 22.6667 32ZM22.6667 30.5C25.0334 30.5 27.0417 29.6708 28.6917 28.0125C30.3417 26.3542 31.1667 24.35 31.1667 22C31.1667 19.6333 30.3417 17.625 28.6917 15.975C27.0417 14.325 25.0334 13.5 22.6667 13.5C20.3167 13.5 18.3126 14.325 16.6542 15.975C14.9959 17.625 14.1667 19.6333 14.1667 22C14.1667 24.35 14.9959 26.3542 16.6542 28.0125C18.3126 29.6708 20.3167 30.5 22.6667 30.5Z" fill="#04BA58"/>
<path d="M21.9417 29.175H17.9417V33.175H21.9417V29.175ZM23.3167 29.175V33.175H27.3167V29.175H23.3167ZM23.3167 27.875L22.8607 23.9011L19.3167 24.3078V27.875H23.3167ZM23.3667 21.3L24.9166 17.6125L24.9064 17.6082L24.8962 17.6039L23.3667 21.3ZM24.9417 18.675L21.4158 20.5639L23.2216 23.9347L26.6702 22.2823L24.9417 18.675ZM26.1417 18.1L27.8702 21.7073L31.4967 19.9696L29.7398 16.3524L26.1417 18.1ZM23.3667 16.125H19.3667V19.726L22.948 20.103L23.3667 16.125ZM23.3667 14.85H27.3667V10.85H23.3667V14.85ZM21.9917 14.85V10.85H17.9917V14.85H21.9917ZM21.9917 16.125L22.5357 20.0878L25.9917 19.6135V16.125H21.9917ZM22.2417 22.25L23.7841 18.5593L23.7802 18.5577L22.2417 22.25ZM20.0417 24.625L23.8561 23.4205L22.6323 19.5451L18.7768 20.8303L20.0417 24.625ZM18.7667 25.05L17.5018 21.2553L13.2797 22.6626L15.128 26.7112L18.7667 25.05ZM21.9417 27.825H25.9417V24.7519L22.9724 23.9601L21.9417 27.825ZM21.9417 33.175H23.3167V25.175H21.9417V33.175ZM27.3167 29.175V27.875H19.3167V29.175H27.3167ZM23.7728 31.8489C25.3342 31.6697 26.9984 31.1389 28.3628 29.915L23.0207 23.96C23.0731 23.913 23.1204 23.88 23.1558 23.8586C23.1906 23.8375 23.2092 23.8306 23.2043 23.8325C23.1913 23.8377 23.0895 23.8748 22.8607 23.9011L23.7728 31.8489ZM28.3628 29.915C29.8791 28.5548 30.5417 26.7387 30.5417 24.9H22.5417C22.5417 24.8775 22.5466 24.7249 22.6376 24.5068C22.733 24.2781 22.8769 24.089 23.0207 23.96L28.3628 29.915ZM30.5417 24.9C30.5417 23.2475 30.0485 21.5379 28.7807 20.1389L22.8528 25.5111C22.7285 25.3739 22.6368 25.2133 22.5844 25.0631C22.5354 24.923 22.5417 24.8537 22.5417 24.9H30.5417ZM28.7807 20.1389C27.7161 18.9642 26.2662 18.1797 24.9166 17.6125L21.8169 24.9875C22.2505 25.1698 22.5433 25.3247 22.728 25.4396C22.92 25.5592 22.9278 25.5938 22.8528 25.5111L28.7807 20.1389ZM24.8962 17.6039C24.4821 17.4326 24.1682 17.2878 23.9394 17.1707C23.6992 17.0477 23.6149 16.9868 23.6268 16.9954L18.9067 23.4546C19.7377 24.0619 20.7985 24.5662 21.8373 24.9961L24.8962 17.6039ZM23.6268 16.9954C23.8526 17.1604 24.1324 17.4392 24.3429 17.852C24.5538 18.2657 24.6167 18.6606 24.6167 18.95H16.6167C16.6167 20.7694 17.4504 22.3904 18.9067 23.4546L23.6268 16.9954ZM24.6167 18.95C24.6167 19.1818 24.5727 19.533 24.3925 19.9254C24.2083 20.3266 23.9432 20.6364 23.678 20.8485L18.6805 14.6015C17.2769 15.7243 16.6167 17.324 16.6167 18.95H24.6167ZM23.678 20.8485C23.129 21.2877 22.6553 21.275 22.7167 21.275V13.275C21.4782 13.275 19.9795 13.5623 18.6805 14.6015L23.678 20.8485ZM22.7167 21.275C22.5731 21.275 22.2365 21.2334 21.8692 20.9996L26.1643 14.2504C25.0637 13.55 23.8604 13.275 22.7167 13.275V21.275ZM21.8692 20.9996C21.5427 20.7918 21.4198 20.5713 21.4158 20.5639L28.4677 16.7861C27.9637 15.8453 27.2242 14.9249 26.1643 14.2504L21.8692 20.9996ZM26.6702 22.2823L27.8702 21.7073L24.4133 14.4927L23.2133 15.0677L26.6702 22.2823ZM29.7398 16.3524C29.2033 15.2479 28.4197 14.2401 27.3417 13.4701L22.6918 19.9799C22.6281 19.9344 22.5812 19.8872 22.5522 19.8517C22.5245 19.8179 22.5255 19.8101 22.5437 19.8476L29.7398 16.3524ZM27.3417 13.4701C26.2525 12.692 25.0284 12.2778 23.7855 12.147L22.948 20.103C22.9691 20.1052 22.9438 20.1047 22.8873 20.0842C22.8286 20.0628 22.7595 20.0283 22.6918 19.9799L27.3417 13.4701ZM27.3667 16.125V14.85H19.3667V16.125H27.3667ZM23.3667 10.85H21.9917V18.85H23.3667V10.85ZM17.9917 14.85V16.125H25.9917V14.85H17.9917ZM21.4478 12.1622C19.9053 12.3739 18.3428 13.0009 17.1041 14.2816L22.8544 19.8434C22.7443 19.9573 22.6276 20.032 22.5402 20.0728C22.4605 20.1099 22.4454 20.1002 22.5357 20.0878L21.4478 12.1622ZM17.1041 14.2816C15.8441 15.5843 15.2417 17.2316 15.2417 18.95H23.2417C23.2417 19.0182 23.2291 19.1735 23.1518 19.3714C23.0728 19.5736 22.9595 19.7348 22.8544 19.8434L17.1041 14.2816ZM15.2417 18.95C15.2417 20.6462 15.7961 22.4076 17.2117 23.776L22.7718 18.024C22.9413 18.1879 23.0788 18.3962 23.1626 18.6141C23.2415 18.819 23.2417 18.9506 23.2417 18.95H15.2417ZM17.2117 23.776C18.2141 24.745 19.4709 25.4288 20.7033 25.9423L23.7802 18.5577C23.4191 18.4072 23.1619 18.2748 22.9872 18.17C22.8096 18.0635 22.7554 18.0082 22.7718 18.024L17.2117 23.776ZM20.6994 25.9407C21.1726 26.1385 21.5071 26.3 21.7295 26.4221C21.9751 26.5569 21.9767 26.5854 21.8659 26.4857L27.2176 20.5393C26.2616 19.679 24.9484 19.0459 23.7841 18.5593L20.6994 25.9407ZM21.8659 26.4857C21.7053 26.3412 21.5101 26.1091 21.3634 25.7835C21.2159 25.4559 21.1667 25.1431 21.1667 24.9H29.1667C29.1667 23.1914 28.4587 21.6563 27.2176 20.5393L21.8659 26.4857ZM21.1667 24.9C21.1667 24.598 21.2339 24.2007 21.4444 23.7917C21.6529 23.3865 21.925 23.1192 22.1335 22.9657L26.875 29.4093C28.307 28.3555 29.1667 26.7469 29.1667 24.9H21.1667ZM22.1335 22.9657C22.3083 22.8372 22.4851 22.7578 22.6318 22.7147C22.7716 22.6738 22.8516 22.675 22.8417 22.675V30.675C24.1734 30.675 25.6088 30.3409 26.875 29.4093L22.1335 22.9657ZM22.8417 22.675C22.8976 22.675 22.9997 22.6837 23.127 22.724C23.2557 22.7647 23.3646 22.8234 23.4443 22.8809L18.7642 29.3691C19.9803 30.2463 21.385 30.675 22.8417 30.675V22.675ZM23.4443 22.8809C23.539 22.9492 23.6381 23.0452 23.7215 23.1629C23.8034 23.2786 23.8416 23.3748 23.8561 23.4205L16.2274 25.8295C16.6701 27.2315 17.5147 28.4678 18.7642 29.3691L23.4443 22.8809ZM18.7768 20.8303L17.5018 21.2553L20.0317 28.8447L21.3067 28.4197L18.7768 20.8303ZM15.128 26.7112C15.6575 27.871 16.3966 28.9835 17.4308 29.882L22.6777 23.843C22.6952 23.8582 22.576 23.7623 22.4055 23.3888L15.128 26.7112ZM17.4308 29.882C18.4642 30.7799 19.6626 31.357 20.9111 31.6899L22.9724 23.9601C22.8429 23.9255 22.765 23.8916 22.7245 23.8709C22.6857 23.8512 22.6746 23.8402 22.6777 23.843L17.4308 29.882ZM17.9417 27.825V29.175H25.9417V27.825H17.9417ZM22.6667 28C21.8276 28 21.0769 27.8421 20.3765 27.5398L17.207 34.8852C18.9399 35.6329 20.7725 36 22.6667 36V28ZM20.3765 27.5398C19.6091 27.2087 18.9722 26.7736 18.4327 26.2341L12.7758 31.8909C14.0529 33.1681 15.5411 34.1663 17.207 34.8852L20.3765 27.5398ZM18.4327 26.2341C17.8931 25.6945 17.4581 25.0576 17.1269 24.2902L9.78158 27.4598C10.5004 29.1257 11.4987 30.6138 12.7758 31.8909L18.4327 26.2341ZM17.1269 24.2902C16.8247 23.5898 16.6667 22.8391 16.6667 22H8.66675C8.66675 23.8942 9.03381 25.7268 9.78158 27.4598L17.1269 24.2902ZM16.6667 22C16.6667 21.1373 16.8273 20.379 17.1269 19.6848L9.78158 16.5152C9.03116 18.2543 8.66675 20.0961 8.66675 22H16.6667ZM17.1269 19.6848C17.4567 18.9206 17.888 18.2932 18.4196 17.7664L12.7889 12.0836C11.5038 13.3568 10.5018 14.8461 9.78158 16.5152L17.1269 19.6848ZM18.4196 17.7664C18.9604 17.2306 19.6014 16.7946 20.3765 16.4602L17.207 9.11483C15.5487 9.83037 14.0648 10.8194 12.7889 12.0836L18.4196 17.7664ZM20.3765 16.4602C21.0769 16.1579 21.8276 16 22.6667 16V8C20.7725 8 18.9399 8.36706 17.207 9.11483L20.3765 16.4602ZM22.6667 16C23.5295 16 24.2877 16.1606 24.982 16.4602L28.1515 9.11483C26.4125 8.36441 24.5707 8 22.6667 8V16ZM24.982 16.4602C25.7539 16.7932 26.3854 17.2255 26.9133 17.7534L32.5702 12.0966C31.2981 10.8245 29.813 9.83176 28.1515 9.11483L24.982 16.4602ZM26.9133 17.7534C27.4412 18.2813 27.8735 18.9129 28.2066 19.6848L35.5519 16.5152C34.835 14.8538 33.8423 13.3687 32.5702 12.0966L26.9133 17.7534ZM28.2066 19.6848C28.5062 20.379 28.6667 21.1373 28.6667 22H36.6667C36.6667 20.0961 36.3023 18.2543 35.5519 16.5152L28.2066 19.6848ZM28.6667 22C28.6667 22.8391 28.5088 23.5898 28.2066 24.2902L35.5519 27.4598C36.2997 25.7268 36.6667 23.8942 36.6667 22H28.6667ZM28.2066 24.2902C27.8721 25.0653 27.4361 25.7064 26.9003 26.2471L32.5832 31.8779C33.8474 30.6019 34.8364 29.118 35.5519 27.4598L28.2066 24.2902ZM26.9003 26.2471C26.3736 26.7787 25.7461 27.2101 24.982 27.5398L28.1515 34.8852C29.8207 34.1649 31.3099 33.1629 32.5832 31.8779L26.9003 26.2471ZM24.982 27.5398C24.2877 27.8394 23.5295 28 22.6667 28V36C24.5707 36 26.4125 35.6356 28.1515 34.8852L24.982 27.5398ZM22.6667 34.5C26.0838 34.5 29.1168 33.2565 31.5273 30.8338L25.8562 25.1912C24.9667 26.0852 23.983 26.5 22.6667 26.5V34.5ZM31.5273 30.8338C33.9269 28.4221 35.1667 25.402 35.1667 22H27.1667C27.1667 23.298 26.7566 24.2863 25.8562 25.1912L31.5273 30.8338ZM35.1667 22C35.1667 18.5894 33.9322 15.5586 31.5202 13.1466L25.8633 18.8034C26.7513 19.6914 27.1667 20.6772 27.1667 22H35.1667ZM31.5202 13.1466C29.1081 10.7345 26.0773 9.5 22.6667 9.5V17.5C23.9895 17.5 24.9754 17.9155 25.8633 18.8034L31.5202 13.1466ZM22.6667 9.5C19.2648 9.5 16.2447 10.7399 13.833 13.1395L19.4755 18.8105C20.3805 17.9101 21.3687 17.5 22.6667 17.5V9.5ZM13.833 13.1395C11.4103 15.55 10.1667 18.583 10.1667 22H18.1667C18.1667 20.6837 18.5816 19.7 19.4755 18.8105L13.833 13.1395ZM10.1667 22C10.1667 25.4084 11.4156 28.4307 13.8258 30.8409L19.4827 25.1841C18.5762 24.2776 18.1667 23.2916 18.1667 22H10.1667ZM13.8258 30.8409C16.236 33.2511 19.2583 34.5 22.6667 34.5V26.5C21.3752 26.5 20.3891 26.0905 19.4827 25.1841L13.8258 30.8409Z" fill="#04BA58" mask="url(#path-2-inside-1_1526_18126)"/>
</svg>
