<svg width="45" height="44" viewBox="0 0 45 44" fill="none" xmlns="http://www.w3.org/2000/svg">
<circle cx="22.5" cy="22" r="22" fill="#FFDFF6"/>
<path opacity="0.4" d="M29.8777 15.7697H31.351C31.1452 15.4772 30.9285 15.2064 30.701 14.9355L29.8777 15.7697Z" fill="#D64BC2"/>
<path opacity="0.4" d="M29.5634 13.7867C29.2926 13.5592 29.0217 13.3426 28.7292 13.1367V14.6101L29.5634 13.7867Z" fill="#D64BC2"/>
<path opacity="0.4" d="M27.9167 17.3952C27.8084 17.3952 27.7109 17.3735 27.6026 17.3302C27.4076 17.2435 27.2451 17.0918 27.1584 16.886C27.1151 16.7885 27.0934 16.6802 27.0934 16.5718V12.2385C27.0934 12.2277 27.1042 12.2168 27.1042 12.1952C25.7067 11.5452 24.1467 11.166 22.5001 11.166C16.5201 11.166 11.6667 16.0193 11.6667 21.9993C11.6667 27.9793 16.5201 32.8327 22.5001 32.8327C28.4801 32.8327 33.3334 27.9793 33.3334 21.9993C33.3334 20.3527 32.9543 18.7927 32.2934 17.3843C32.2826 17.3843 32.2717 17.3952 32.2501 17.3952H27.9167Z" fill="#D64BC2"/>
<path d="M30.7116 14.9372L33.9074 11.7414C34.2216 11.4272 34.2216 10.9072 33.9074 10.593C33.5932 10.2789 33.0732 10.2789 32.7591 10.593L29.5632 13.7889C29.9749 14.1464 30.3541 14.5364 30.7116 14.9372Z" fill="#D64BC2"/>
<path d="M28.7291 12.25C28.7291 11.8058 28.3608 11.4375 27.9166 11.4375C27.4833 11.4375 27.1367 11.7842 27.115 12.2067C27.6783 12.4775 28.22 12.7808 28.7291 13.1383V12.25Z" fill="#D64BC2"/>
<path d="M33.0625 16.584C33.0625 16.1398 32.6941 15.7715 32.25 15.7715H31.3508C31.7083 16.2807 32.0225 16.8223 32.2825 17.3856C32.7158 17.364 33.0625 17.0173 33.0625 16.584Z" fill="#D64BC2"/>
<path d="M24.3959 21.805L23.3126 21.4258V19.0208H23.3992C23.9517 19.0208 24.3959 19.5083 24.3959 20.1042C24.3959 20.5483 24.7642 20.9167 25.2084 20.9167C25.6526 20.9167 26.0209 20.5483 26.0209 20.1042C26.0209 18.6092 24.8509 17.3958 23.3992 17.3958H23.3126V17.125C23.3126 16.6808 22.9442 16.3125 22.5001 16.3125C22.0559 16.3125 21.6876 16.6808 21.6876 17.125V17.3958H21.3626C20.0518 17.3958 18.9792 18.5008 18.9792 19.8658C18.9792 21.4475 19.9001 21.9567 20.6042 22.2058L21.6876 22.585V24.99H21.6009C21.0484 24.99 20.6042 24.5025 20.6042 23.9067C20.6042 23.4625 20.2359 23.0942 19.7917 23.0942C19.3476 23.0942 18.9792 23.4625 18.9792 23.9067C18.9792 25.4017 20.1493 26.615 21.6009 26.615H21.6876V26.8858C21.6876 27.33 22.0559 27.6983 22.5001 27.6983C22.9442 27.6983 23.3126 27.33 23.3126 26.8858V26.615H23.6376C24.9484 26.615 26.0209 25.51 26.0209 24.145C26.0209 22.5525 25.1001 22.0433 24.3959 21.805ZM21.1351 20.6567C20.7667 20.5267 20.6042 20.4508 20.6042 19.855C20.6042 19.3892 20.9509 19.01 21.3626 19.01H21.6876V20.8408L21.1351 20.6567ZM23.6376 24.9792H23.3126V23.1483L23.8651 23.3433C24.2334 23.4733 24.3959 23.5492 24.3959 24.145C24.3959 24.6 24.0492 24.9792 23.6376 24.9792Z" fill="#D64BC2"/>
</svg>
