<svg width="44" height="44" viewBox="0 0 44 44" fill="none" xmlns="http://www.w3.org/2000/svg">
<circle cx="22" cy="22" r="22" fill="#6CBDEF"/>
<path opacity="0.4" d="M29.3777 15.7697H30.851C30.6452 15.4772 30.4285 15.2064 30.201 14.9355L29.3777 15.7697Z" fill="#0474BA"/>
<path opacity="0.4" d="M29.0634 13.7867C28.7926 13.5592 28.5217 13.3426 28.2292 13.1367V14.6101L29.0634 13.7867Z" fill="#0474BA"/>
<path opacity="0.4" d="M27.4167 17.3952C27.3084 17.3952 27.2109 17.3735 27.1026 17.3302C26.9076 17.2435 26.7451 17.0918 26.6584 16.886C26.6151 16.7885 26.5934 16.6802 26.5934 16.5718V12.2385C26.5934 12.2277 26.6042 12.2168 26.6042 12.1952C25.2067 11.5452 23.6467 11.166 22.0001 11.166C16.0201 11.166 11.1667 16.0193 11.1667 21.9993C11.1667 27.9793 16.0201 32.8327 22.0001 32.8327C27.9801 32.8327 32.8334 27.9793 32.8334 21.9993C32.8334 20.3527 32.4543 18.7927 31.7934 17.3843C31.7826 17.3843 31.7717 17.3952 31.7501 17.3952H27.4167Z" fill="#0474BA"/>
<path d="M30.2116 14.9372L33.4074 11.7414C33.7216 11.4272 33.7216 10.9072 33.4074 10.593C33.0932 10.2789 32.5732 10.2789 32.2591 10.593L29.0632 13.7889C29.4749 14.1464 29.8541 14.5364 30.2116 14.9372Z" fill="#0474BA"/>
<path d="M28.2291 12.25C28.2291 11.8058 27.8608 11.4375 27.4166 11.4375C26.9833 11.4375 26.6367 11.7842 26.615 12.2067C27.1783 12.4775 27.72 12.7808 28.2291 13.1383V12.25Z" fill="#0474BA"/>
<path d="M32.5625 16.584C32.5625 16.1398 32.1941 15.7715 31.75 15.7715H30.8508C31.2083 16.2807 31.5225 16.8223 31.7825 17.3856C32.2158 17.364 32.5625 17.0173 32.5625 16.584Z" fill="#0474BA"/>
<path d="M23.8959 21.805L22.8126 21.4258V19.0208H22.8992C23.4517 19.0208 23.8959 19.5083 23.8959 20.1042C23.8959 20.5483 24.2642 20.9167 24.7084 20.9167C25.1526 20.9167 25.5209 20.5483 25.5209 20.1042C25.5209 18.6092 24.3509 17.3958 22.8992 17.3958H22.8126V17.125C22.8126 16.6808 22.4442 16.3125 22.0001 16.3125C21.5559 16.3125 21.1876 16.6808 21.1876 17.125V17.3958H20.8626C19.5518 17.3958 18.4792 18.5008 18.4792 19.8658C18.4792 21.4475 19.4001 21.9567 20.1042 22.2058L21.1876 22.585V24.99H21.1009C20.5484 24.99 20.1042 24.5025 20.1042 23.9067C20.1042 23.4625 19.7359 23.0942 19.2917 23.0942C18.8476 23.0942 18.4792 23.4625 18.4792 23.9067C18.4792 25.4017 19.6493 26.615 21.1009 26.615H21.1876V26.8858C21.1876 27.33 21.5559 27.6983 22.0001 27.6983C22.4442 27.6983 22.8126 27.33 22.8126 26.8858V26.615H23.1376C24.4484 26.615 25.5209 25.51 25.5209 24.145C25.5209 22.5525 24.6001 22.0433 23.8959 21.805ZM20.6351 20.6567C20.2667 20.5267 20.1042 20.4508 20.1042 19.855C20.1042 19.3892 20.4509 19.01 20.8626 19.01H21.1876V20.8408L20.6351 20.6567ZM23.1376 24.9792H22.8126V23.1483L23.3651 23.3433C23.7334 23.4733 23.8959 23.5492 23.8959 24.145C23.8959 24.6 23.5492 24.9792 23.1376 24.9792Z" fill="#0474BA"/>
</svg>
