<?xml version="1.0" encoding="UTF-8"?>
<svg id="Layer_1" data-name="Layer 1" xmlns="http://www.w3.org/2000/svg" viewBox="0 0 171.18 145.01">
  <defs>
    <style>
      .cls-1 {
        fill: #0fb9a3;
      }

      .cls-1, .cls-2, .cls-3, .cls-4, .cls-5, .cls-6, .cls-7, .cls-8, .cls-9, .cls-10, .cls-11, .cls-12, .cls-13, .cls-14, .cls-15, .cls-16, .cls-17, .cls-18, .cls-19 {
        stroke-width: 0px;
      }

      .cls-2 {
        fill: #271e05;
      }

      .cls-3 {
        fill: #020202;
      }

      .cls-4 {
        fill: #151002;
      }

      .cls-5 {
        fill: #306686;
      }

      .cls-6 {
        fill: #100c01;
      }

      .cls-7 {
        fill: #010101;
      }

      .cls-8 {
        fill: #201b12;
      }

      .cls-9 {
        fill: #0f0b01;
      }

      .cls-10 {
        fill: #161717;
      }

      .cls-11 {
        fill: #1e1a11;
      }

      .cls-12 {
        fill: #0d0901;
      }

      .cls-13 {
        fill: #232424;
      }

      .cls-14 {
        fill: #100f0e;
      }

      .cls-15 {
        fill: #100f0f;
      }

      .cls-16 {
        fill: #060501;
      }

      .cls-17 {
        fill: #262119;
      }

      .cls-18 {
        fill: #342f24;
      }

      .cls-19 {
        fill: #0a0701;
      }
    </style>
  </defs>
  <path class="cls-3" d="m128.73,78.57c-.68.64-1.36,1.27-2.55,2.39h12.01c1.75,2.77,1.65,5.8,1.27,8.87-1.64,14.89-7.27,27.72-18.25,38.3-13.53,13.03-29.73,17.58-47.95,16.79-.69-.03-1.4-.22-2.05-.1-3.54.63-6.01-1.81-8.85-3.12-.93-.43-.23-1.58-.03-2.39,1.7-7.03,3.41-14.06,5.12-21.09,1.49-1.09,3.04-.26,4.52-.05,9.21,1.32,17.89-.06,26.04-4.68,2.04-1.15,3.33-3.38,5.79-3.86.53.05.88.33,1.03.84.06,1.75-1.21,2.63-2.4,3.47-6.61,4.64-13.95,7.14-22.02,7.41-2.75.09-5.5.04-8.25.01-1.73-.01-2.71.71-3.17,2.41-1.2,4.47-1.93,9.04-3.27,13.47-.48,1.6.18,2.37,1.82,2.59,14.34,1.87,28.08-.48,40.21-8.18,16.53-10.49,26.07-25.8,27.63-45.67.13-1.63-.31-2.45-2-2.44-2.65.02-5.32-.19-7.95.08-2.95.3-5.09,1.89-6.24,4.71-.55,1.34-.69,2.9-1.96,3.89-.47.22-.84.09-1.15-.3-.09-.16-.19-.34-.2-.52-.11-1.97-1.13-2.69-3.05-2.17-2.01.18-4.04.46-5.79-.96-.71-.58-1.38-.5-2.07.08-.65.55-1.27,1.19-2.23,1.18-.47-.11-.74-.4-.82-.87.57-1.8,2.3-2.6,3.42-3.94.61-.73,1.46-.61,2.04.12,2.43,3,5.29,2.01,8,.74,3.38-1.58,6.45-3.73,9.35-6.1.98-.8,1.89-1.75,3.29-1.79.47.1.83.3.71.88h0Z"/>
  <path class="cls-1" d="m88.65,11.6c.88-.31,1.53-1.28,2.78-.85-2.62,5.98-.56,10.99,3.37,15.88,2.73-4.46,5.14-8.98,10.72-11.1-1.95,6.64-3.62,12.93-.89,19.52,1.72-1.26,2.5-2.81,3.14-4.87,2.54,5.09,4.11,10.13,4.66,15.57,1.59-.04,1.37-1.81,2.4-2.35.99,1.03.79,2.53,1.44,3.68-2.25,1.95-4.4,4.12-7.77,3.8-.49-.62-.55-1.35-.53-2.11-.16-1.63,1.8-3.3-.09-4.91-.56-.2-.08-1.92-1.48-.91-3.09,2.24-3.12,2.21-4.86-1.3-.13-.26-.25-.53-.35-.81-.42-1.18.23-2.67-1.08-3.59-1.12-2.13-1.36-4.49-1.86-6.79-.12-.1-.23-.03-.32.22-1.63,4.59-2.16,4.7-5.54,1.01-2.7-2.94-4.29-6.5-5.54-10.24-.86.32-.93,1.1-1.31,1.65-.58.85-.81,2.38-2.04,2.21-1.37-.19-1.34-1.74-1.62-2.86-.41-1.69-.92-3.34-1.77-5.25-1.68,6.12-4.57,11.33-7.91,16.31-.73,1.08-1.25,2.91-3.27,1.81,1.61-5.27,1.36-11.03,4.22-15.97,2.89-5.49,3.87-11.49,4.65-17.53.54-.5,1.07-.29,1.6.02,2.63,3.08,4.36,6.66,5.41,10.54.43,1.59.93,1.05,1.63.3.64-.54,1.21-1.24,2.2-1.07h.01Z"/>
  <path class="cls-1" d="m103.9,109.89c-5.45,5.31-12.13,8.08-19.52,9.19-5.68.86-11.34.34-16.93-.88-1.72-.69-3.46-1.31-5.14-2.07-7.23-3.29-12.56-8.74-17.04-15.14.5-1.75,1.6-1.51,2.55-.57,1.62,1.61,3.67,2.42,5.63,3.43,6.41,5.92,13.48,10.51,22.51,11.06,8.25.5,15.71-1.64,22.31-6.7,5.62-4.31,10.47-9.21,12.65-16.22.37-1.2.77-2.46,1.87-3.28,1.26-.43,2.69-1.79,3.74-1.05,1.29.91-.48,2.44-.28,3.76.11,2.2-.74,4.13-1.72,6.02-.73,1.43-1.62,2.78-2.28,4.25-.11.24-.25.47-.4.68-1.14,1.24-2.25,2.51-3.36,3.77-1.13,1.73-2.61,3.03-4.58,3.73v.02Z"/>
  <path class="cls-15" d="m108.34,43.87c1.24-.18,1.87.11,1.32,1.53-.41,1.07-.7,2.19-1.04,3.29-.16.76-.83,1.56.13,2.26,2.51-1.29,5.02-2.58,7.53-3.87,3.06-1.26,6.11-2.51,9.6-3.94-2.46,8.24-4.82,16.12-7.17,24,5.65-3.64,11.88-5.9,17.32-9.61,2.79-1.9,6.11-3.06,9.25-4.4,6.56-2.78,13.19-5.39,19.72-8.23,1.86-.81,2.38-.15,2.6,1.48.05.39.06.79.14,1.17.42,2.2,1.84,4.59,1.01,6.55-.79,1.89-3.68,1.83-5.51,2.91-9.55,5.64-19.63,10.35-28.65,16.89-2.03,1.47-3.42,3.73-5.85,4.68-.21-.19-.42-.39-.63-.58.59-2.55,2.79-3.7,4.62-5.03,5.5-3.98,11.18-7.75,17.26-10.75,5.12-2.52,9.77-5.87,15.04-8.1,1.86-.79,2.12-3.02.98-5.65-.9-2.07-2.26-.98-3.44-.53-6.87,2.67-13.85,5.19-20.34,8.65-6.75,3.6-13.59,7.08-20.09,11.15-1.35.85-2.88,2.51-4.47,1.36-1.62-1.17-.49-3.09-.05-4.66,1.62-5.76,3.4-11.47,5.09-17.52-3.28.43-5.69,2.18-8.31,3.35-2.16.97-4.13,2.28-6.23,3.36-.77.4-1.68.85-2.46.08-.65-.63-.41-1.46-.18-2.23.06-.19.14-.37.19-.56.35-1.31,1.69-2.82.85-3.85-1.01-1.24-2.72.06-4.13.19-.39.04-.76.18-1.15.26-3.35.69-4.06-.05-3.13-3.24.06-.19.14-.37.18-.56.23-1.22,1.57-2.71.66-3.55-1.16-1.07-2.73.19-4.07.69-.37.14-.71.42-1.09.43-4.41.13-6.01,3.07-6.77,6.81-.61,3-2.56,4.5-5.42,5.09-1.25.26-2.47.65-3.72.93-2.14.48-3.94,1.26-4.23,3.8-.05.4-.39.66-.84.65-1.44-1.37-.99-2.99-.63-4.61.67-1.28,1.95-1.54,3.17-1.85,1.7-.43,3.36-1.05,5.08-1.4,2.25-.46,3.63-1.68,4.22-3.92.42-1.6,1.05-3.15,1.72-4.67.49-1.12,1.19-2.12,2.31-2.55,3.82-1.46,7.7-2.69,11.87-2.43.78.12,1.99-.22,1.24,1.38-.27.58-.17,1.34-.24,2.01.22,1.37-.52,2.61-.54,3.94,2.59,1.09,4.79-1.44,7.29-.63v.03Z"/>
  <path class="cls-1" d="m45.5,112.92c-.56-.45-1.12-.91-1.68-1.36-1.31,1.81-4.35,1.42-5.05,4.13-.73,2.85-1.85,5.6-2.53,8.46-.31,1.3-.95,1.86-2.08,2.08-6.34,1.24-12.25,3.9-18.5,5.45-1.45.36-2.13.3-2.06-1.5.29-7.02-1.29-5.48,5.45-7.36,4.91-1.36,9.81-2.77,14.78-3.88,1.71-.38,2.21-1.33,2.6-2.7.8-2.83,1.67-5.64,2.42-8.49.27-1.03.77-1.68,1.72-2.21,3.84-2.16,3.82-2.19,7.79,3.24-.63,1.61-1.89,2.78-2.87,4.14h.01Z"/>
  <path class="cls-1" d="m132.24,78.53c9.11-8.03,19.23-13.18,29.41-18.24,2.61-1.3,5.16-2.73,7.74-4.09,1.14-.6,1.89-.49,1.78,1.05-.02.29,0,.59,0,.88-.14,6.16,1.08,4.76-4.85,7.43-6,2.7-11.97,5.47-17.56,8.96-2.11,1.32-3.77,3.29-6.65,1.8-.85-.44-2.07.1-2.73.78-1.93,1.99-4.26,1.45-7.14,1.41v.02Z"/>
  <path class="cls-14" d="m52.88,104.18c-2.17-.46-4.02-1.51-5.38-3.25-.87-1.11-1.51-.93-2.23.07-2.08,1.07-4.12,2.21-6.25,3.17-1.06.47-1.38,1.3-1.65,2.23-.85,2.91-1.7,5.81-2.44,8.75-.26,1.03-.55,1.81-1.7,2.11-5.46,1.39-10.9,2.83-16.66,4.33.8-4.15,2.91-7.56,3.48-11.47-2.23-.52-4.49.04-6.71-.51-1.68-.41-1.78-1.03-1.29-2.4,1.42-3.92,2.78-7.86,3.69-12.11-1.4,1.01-2.83,1.98-4.2,3.04-.99.77-1.62.88-2.19-.47-2.59-6.12-5.14-12.25-5.77-18.97-.35-.57-.27-1.17-.15-1.77.23-.23.5-.3.81-.2.99.95,1.08,2.26,1.33,3.5.94,4.52,2.27,8.92,4.02,13.18,1.11,2.68,1.7,2.84,3.88.86,2.52-2.3,4.96-4.7,8.31-5.8.44.14.73.42.9.85.5.29-1.19,1.38.46,1.25,2.03-.16,3.41-.93,4.05-3.12,1.82-6.31,3.59-12.64,5.1-19.04.4-1.71.06-2.69-1.56-3.55-2.75-1.46-5.53-3-6.65-6.26.12-.62.34-1.17,1-1.4,2.71,2.53,5.46,4.98,8.98,6.41,1.4.57,1.59,1.91,1.29,3.26-1.79,8.05-3.88,16.02-6.55,23.84-.51,1.49-1.54,2.31-3.08,2.24-5.24-.24-8.48,1.89-9.2,7.36-.16,1.23-.9,2.38-1.31,3.59-1.3,3.83-1.18,3.99,2.76,4.07,1.34.03,2.77-.27,3.94.75.63,1.46-.61,2.81-.26,4.26-.03.29-.11.57-.24.83-.66,1.48-2.38,3.12-1.37,4.48.8,1.07,2.68-.39,4.09-.7,1.92-.42,3.8-1.03,5.73-1.39,2.07-.39,3.61-1.42,3.76-3.54.52-7.32,5.31-11.05,11.25-13.98,1.44-.71,2.53-.9,3.63.42,3.26,3.93,7.37,4.03,11.79,2.54,1.12-.37,2.32-.67,3.26-1.34,2.81-2.01,5.59-2.74,9.03-1.38,2.31.92,4.41-.48,5.96-2.31,1.03-1.22,2.15-1.96,3.81-1.68,2.4.4,4.25-1.3,6.42-1.79.72.26.87.82.79,1.5-1.36,2.34-3.75,2.71-6.07,2.98-1.74.21-3.22.71-4.45,1.99-2.22,2.32-4.98,2.7-7.88,1.8-1.95-.6-3.61-.4-5.32.66-2.45,1.52-5.2,2.26-7.98,2.95-1.83.45-3.46.28-4.97-.84h-.01Z"/>
  <path class="cls-1" d="m56.26,115.77c2.11.97,4.15,2.22,6.36,2.85,2.17.62,2.08,1.75,1.64,3.44-1.15,4.45-1.14,4.51-5.16,2.37-2.57-1.37-5.18-2.7-7.16-4.94.63-2.73,1.78-3.72,4.32-3.72Z"/>
  <path class="cls-11" d="m19.51,21.8c5.66-6.69,12.75-11.4,20.48-15.39,6.58-3.39,13.36-5.59,20.76-5.85,2.03-.29,4.06-.6,6.06.15-.43,1.59-1.8,1.14-2.85,1.26-3.7.43-7.41.68-11.05,1.59-6.16,1.53-11.66,4.57-17.26,7.39-1.48,1.41-3.19,2.49-5.02,3.38-3.4,2.25-6.58,4.76-9.12,7.99-.43.54-.83,1.1-1.65.95-.63-.36-.74-.86-.35-1.47Z"/>
  <path class="cls-8" d="m19.51,21.8c.03.5.12.97.6,1.25.36,1.71-1.3,2.25-1.97,3.36-.6,1.01-1.53,1.81-1.87,2.99-.32.84-.89,1.51-1.47,2.17-5.55,7.9-8.22,16.88-9.76,26.25-.88,5.35-.64,10.77-.63,16.17,0,1.02-.06,2.03-.81,2.84,0,.62-.02,1.23-.04,1.85-.9-1.49-.5-3.14-.59-4.73-.62-1.36.09-2.85-.44-4.21,0-.2,0-.41,0-.61.34-1.37.3-2.73.02-4.1.07-7.62,1.75-14.89,4.31-22.05,2.47-6.92,6.16-13.05,10.79-18.68.66-.8,1.25-1.66,1.88-2.5h0Z"/>
  <path class="cls-1" d="m56.26,115.77c-2.1.47-3.13,2.18-4.32,3.72-2.82-1.53-4.67-4-6.44-6.57-.13-2.13,1.53-3.03,2.87-4.14,2.42,2.57,5.13,4.81,7.89,7h0Z"/>
  <path class="cls-1" d="m17.57,112.27c-.43,1.47-.73,2.59-1.1,3.7-1.24,3.7-2.71,4.27-6.27,2.55-.93-.45-1.33-1.11-1.23-2.09.14-1.36.42-2.71.43-4.07.02-2.11,1.17-2.07,2.45-1.28,1.64,1.01,3.37,1.37,5.71,1.2h.01Z"/>
  <path class="cls-1" d="m5.35,94.56c.67,2.49,2.3,4.5,3.46,6.73,1.13,2.16,2.1-1.07,3.52-.24-.94,2.63-1.47,5.48-3.27,8.32-2.38-4.32-4.37-8.49-5.46-13.04-.46-1.62.1-2.24,1.75-1.78h0Z"/>
  <path class="cls-1" d="m122.35,63.4c1.39-7.33,3.43-14.42,6.2-21.3.04,7.74-1.99,14.86-6.2,21.3Z"/>
  <path class="cls-17" d="m66.76,1.08c-1.93-.99-4.02-.19-6.01-.52,8.64-1.4,17.06,0,25.41,2.06,6.17,1.53,6.14,1.64,3.14,7.39-.26.51-.44,1.06-.65,1.59-.66.6-1.31,1.19-1.97,1.79-.86-1.86.52-3.19,1.19-4.63,1.41-3.07,1.39-3.2-1.91-4.19-2.25-.67-4.65-.88-6.71-2.16-.3-.34-.65-.46-1.08-.28-3.91.83-7.71.46-11.41-1.05h0Z"/>
  <path class="cls-1" d="m107.71,24.31c-3-5.05.92-8.2,2.32-12.62,1.09,4.9.21,8.69-2.32,12.62Z"/>
  <path class="cls-1" d="m5.35,94.56c-1.13.05-1.69.67-1.75,1.78-1.55-4.61-2.73-9.3-2.96-14.19-.19-1.05-.93-2.21.59-2.92.34,4.4,1.94,8.46,3.4,12.56.32.91.89,1.74.73,2.77h0Z"/>
  <path class="cls-1" d="m95.71,9.08c-.15,3.79.94,7.46-2.73,10.21-.65-3.83-.45-7.13,2.73-10.21Z"/>
  <path class="cls-1" d="m1.22,79.23c-.97.82-.39,1.95-.59,2.92-1.25-3.3-.24-6.68-.24-10.03.27,2.37.55,4.74.82,7.11h0Z"/>
  <path class="cls-1" d="m94.78,4.71c.18,1.16.79,2.37-.22,3.34-.31.3-.89.13-1.01-.22-.46-1.31.7-2.08,1.23-3.12Z"/>
  <path class="cls-7" d="m2.54,65.03c.7,1.37.73,2.74-.02,4.1,0-1.37,0-2.73.02-4.1Z"/>
  <path class="cls-18" d="m2.53,69.74c.89,1.33.41,2.8.44,4.21-.55-1.36-.63-2.77-.44-4.21Z"/>
  <path class="cls-1" d="m21.84,109.26c-1.79-1.12-3.75-.34-5.61-.45-3.38-.2-3.47-.21-2.39-3.27,1.33-3.78,2.72-7.55,3.91-11.38.34-1.09.79-1.39,1.8-1.44,1.37-.06,2.77-.52,4.09-.33,3.35.49,4.5-1.22,5.29-4.15,1.88-6.99,3.86-13.95,5.58-20.98.55-2.23-.12-2.82-1.92-3.59-3.16-1.35-6.04-3.2-7.7-6.42-3-3.17-2.63-8.71.76-11.3.34,0,.58.17.71.47.26.68.1,1.34-.06,2.02-1.78,7.66,3.49,12.68,11.13,10.71,3.51-.91,6.43-2.92,9.45-4.72,3.2-1.91,3.15-2,4.9,1.43,1.65,3.22,2.69,3.29,4.68.52.71-.99.43-1.37-.34-2.13-3.12-3.07-3.08-5.09-.04-8.26,4.63-4.83,7.86-10.53,10.23-16.75.75-1.98.92-3.78-.9-5.3.08-.51.33-.95.75-1.22,1.19-.79,2.31-2.28,3.86-1.57,1.52.7.9,2.37.89,3.7-.03,7-2.81,13.06-6.39,18.85-1.62,2.1-3.44,4.03-5.27,5.95-1.53,1.6-1.3,2.27.71,2.74,3.37.79,3.28.92,1.62,3.84-1.53,2.68-5.26,4.89-4.69,7.66.53,2.61,2.81,5.2,4.05,8.27,3.18-2.72,6.58-5,10.05-7.18,1.23-.78,1.12-2.22,1.43-3.42.27-1.02-.1-2.19.71-3.09-.3-2.9.79-4.55,3.9-4.83,6.11-.55,9.99-3.63,10.82-10,.19-1.44,1.02-2.16,2.55-2.34,3.34-.39,6.22-2.6,9.91-2.47-.12,2.83-1.56,5.35-2.18,8.3,3.35.07,6.41-1.5,10.12-1.65-.92,2.83-1.77,5.42-2.9,8.87,6.39-3.62,12.02-6.89,18.65-9.15-1.74,5.93-3.38,11.5-5.02,17.07-.5,1.69-1.1,3.36-1.49,5.07-.32,1.41.14,2.21,1.69,1.31,6.41-3.7,12.78-7.47,19.23-11.11,2.13-1.2,4.38-2.19,6.64-3.14,6.31-2.65,12.67-5.19,18.98-7.87,1.65-.7,2.25-.63,2.68,1.37,1.21,5.67,1.2,5.4-3.87,8.09-10.52,5.6-21.09,11.15-30.7,18.28-1.46,1.08-2.7,2.46-4.04,3.7-3.57,2.18-6.55,5.23-10.3,7.15-2.08,1.06-4.07,2.34-6.49,2.48-1.3.07-2.86.1-3.46-1.08-1.44-2.83-2.37-1.28-3.53.13-.61.74-1.4,1.34-2.12,2.01-1.24,2.12-3.49,2.83-5.5,2.62-3.1-.33-5.67.41-8.15,2.04-1.58,1.78-3.59,2.61-5.92,2.4-1.55-.14-2.6.03-3.69,1.46-2.22,2.9-4.97,3.53-8.36,2.04-1.76-.77-3.01-.59-4.54.46-2.44,1.66-5.16,2.72-8.09,3.32-4.03.83-7.44-.07-9.92-3.39-.96-1.28-1.58-1.32-2.7-.39-2.05,1.71-4.38,2.97-6.83,3.97-1.12.46-1.68,1.05-1.98,2.25-.7,2.85-1.62,5.64-2.39,8.47-.39,1.42-.99,2.26-2.64,2.62-4.29.93-8.5,2.18-13.43,3.49,1.26-2.45.78-5.11,3.25-6.55.62.67,1.27,1.25,2.3.84.27-.11.56-.22.84-.26,5.01-.73,7.81-3.56,8.42-8.62.35-2.86,1.99-4.75,4.62-6.01,5.13-2.46,9.22-6.24,12.93-10.51,4.11-4.73,5.61-10.31,5.5-16.37-.09-5.01-2.01-6.82-6.99-7.27-.59-.05-1.18-.03-1.76.03-8.22.87-8.45,1.02-10.87,8.9-1.61,5.26-3.17,10.54-4.88,15.78-.39,1.21-.68,2.48-1.56,3.47-.81.62-1.85.8-2.65,1.44-5.18-.41-7.07,2.83-8.22,7.17-.69,2.62-.74,2.74,1.88,2.39,1.3-.17,2.94-1.11,3.84.21.93,1.38-.5,2.71-1.05,4.02-.23.54-.58,1.02-1.1,1.34-.53,0-.88-.14-.68-.77h-.04Z"/>
  <path class="cls-5" d="m111.5,102.23c.11-.16.19-.33.24-.51.96-1.43,1.9-2.86,2.67-4.41,1.16-1.55,1.05-3.7,2.43-5.14.51-1.27,1.06-2.53,1.51-3.82,1.26-3.62,4.01-5.6,7.89-5.61,2.75,0,5.51.08,8.26-.03,1.55-.06,2.02.37,1.87,1.98-.81,8.47-2.76,16.55-6.55,24.27-3.83,7.79-9.44,13.87-16.07,19.26-13.88,11.29-29.89,14.23-47.19,12.34-1.82-.2-2.46-.81-1.87-2.86,1.41-4.89,2.63-9.84,3.65-14.83.41-1.99,1.16-2.52,3.11-2.38,7.3.54,14.55.26,21.47-2.44,4.36-1.7,8.74-3.5,11.63-7.53.74-1.94,2.91-2.63,3.84-4.4,1.04-1.29,2.22-2.48,3.11-3.89h0Z"/>
  <path class="cls-13" d="m102.87,89.28c-1.95,2.06-4.51,3.03-7.12,2.47-3.09-.66-4.91.62-6.56,2.8-.01-.51-.15-.96-.65-1.21,1.96-2.39,4.15-3.57,7.49-2.65,2.15.59,4.23-.9,6.16-2.01.23.2.45.4.68.6Z"/>
  <path class="cls-3" d="m108.69,106.41c-1.18,1.58-2.53,2.98-4.14,4.11-.22-.21-.43-.42-.65-.63,1.4-1.37,2.8-2.74,4.2-4.11.52-.1.8.04.59.63Z"/>
  <path class="cls-3" d="m116.85,92.17c-.5,1.9-.84,3.87-2.36,5.31-.13.21-.28.22-.44.03.73-2.03,1.47-4.05,2.2-6.08.2.25.4.49.6.74Z"/>
  <path class="cls-3" d="m63.78,43.66c3.4-5.93,6.7-11.89,6.64-19.03v-3.28c-2.23.28-3.4,1.71-4.74,2.84-.46,1.58-1.92,1.91-3.15,2.52-1.67.75-2.63,2.29-3.94,3.46-.69.52-1.76,1.44-2.23.53-.72-1.42.38-2.69,1.36-3.95-4.62.09-9.12.77-13.39,2.79-2.62,1.24-3.99,3.36-4.71,6.03-.13.25-.29.47-.49.67-.68.46-1.5.5-2.24.8-.8.31-1.58.66-2.27,1.19-.77.56-1.35,1.42-2.38,1.59-1.08-.17-.81.93-1.25,1.35-.72,1.26-2.03,1.99-2.83,3.18-.68.58-1.31,1.23-2.21,1.49-2.79,3.58-2.94,7.4-1.06,11.41-.04.49-.11.96-.58,1.24l-.27-.07c-.68.21-.17.7-.23,1.06.2,5.09-.27,10.2,1.13,15.2.4,1.41.51,2.96,1.29,4.19,1.75,2.76.84,5.49.04,8.15-.48,1.59-1.87,2.45-3.68,2.25-.23-.17-.46-.35-.69-.52-.09-1.34,1.97-1.85,1.36-3.36-.96-2.36-1.64-4.83-2.66-7.15-.32-.71-1.13-.68-1.83-.59-1.17.15-2.31.43-3.48.58-2.15.28-4.47.31-3.44,3.69.29.94-.35,1.94-1.43,2.3-1.22.41-2.29-.14-2.73-1.16-1.8-4.25-3.23-8.63-3.72-13.24-.12-1.16.7-2.04,1.92-2.25,1.14-.2,1.8.47,2.33,1.4.73,1.29.34,3.41,2.34,3.73,1.43.23,2.91-.26,4.35-.52,1.35-.24,2.7-.5,4.07-.52,2.12-.35.27-1.64.56-2.43-.24-1.19-.17-2.4-.22-3.61-.02-.63-.01-1.26,0-1.89.59-4.09.64-8.28,2.46-12.11.32-.67.51-1.38.55-2.13.1-1.39.71-2.62,1.47-4.06-3.82.28-6.89-.93-8.6-4.27-1.72-3.36-2.91-6.89-.37-10.48.39-.55.78-1.11,1.17-1.66.33-.87,1.02-1.47,1.68-2.02,1.41-1.16,3.15-1.73,4.45-.15,1.33,1.6.13,2.86-1.24,3.9-2.45,1.88-3.03,4.29-1.61,6.65.66,1.09,1.43,2.36,2.89,2.19,1.63-.18,2.04-1.67,2.36-3.03.2-.87.12-1.77.18-2.65.12-1.58.51-3.05,2.44-3.09s2.39,1.37,2.55,2.98c.06.63-.16,1.28.13,1.98,1.45-1.82,3.23-3.23,4.96-5.37-3.92-.72-6.29-2.98-6.94-6.69-.65-3.73-.1-7.25,2.62-10.16,1.63-.76,3.21-1.61,4.47-2.94,5.31-1.35,10.13,3.03,9.76,8.9-.09,1.42-.26,2.86-.9,4.45,3.05-1.37,5.32-3.65,8.51-3.85.74.09,1.45-.33,1.71-.28-.29.08-1.04.32-1.82.25-.83.03-1.56-.21-2.15-.8-1-1-1.36-2.21-.75-3.49.69-1.46,1.97-1.48,3.27-.93,3.07,1.3,5.47.17,8.14-2.28-2.08-.16-3.38.75-4.74,1.23-3.82,1.32-6.48.94-7.69-1.2-1.23-2.17-.24-4.81,2.58-7.44,2.67-2.49,5.86-2.96,9.28-2.73,1.14.08,2.59.67,2.57,1.61-.06,2.61,1.93,3.73,3.1,5.52,1.83,2.8-.47,6.87-4.67,8.85,3.54-.47,7-.33,10.45-.14.9.05,1.72.4,2.25,1.21-2.92,5-2.18,11.05-4.61,16.19-.23,3.72-1.78,6.72-4.82,8.92-.48-.12-.85-.32-.63-.92v-.03Z"/>
  <path class="cls-5" d="m73.84,19.48c-4.55-1.11-9.17-.55-14.4-.62,2.65-1.6,4.95-2.95,5.99-5.43,1.17-2.8.04-4.55-3.49-5.74,1.5-2.82.71-4.36-2.3-4.73-4.64-.58-7.8,1.81-10.46,5.15-1.04,1.31-1.28,2.95-.37,4.42.96,1.56,2.59,1.75,4.19,1.27,2.34-.69,4.63-1.57,6.95-2.35.65-.22,1.45-.48,1.89.2.46.71-.2,1.28-.64,1.79-2.22,2.53-5.95,3.36-8.87,1.89-.94-.47-1.79-.54-2.36.25-.68.93-.69,2.04.19,2.96.63.66,1.43,1.02,2.36,1.07.45.32.44.66.03,1.01-3.82.62-6.47,3.74-10.49,4.91,1.41-2.41,2.17-4.75,1.97-7.22-.38-4.62-3.18-6.93-9.06-7.69,1.44-1.32,3.28-1.95,4.96-2.86,8.38-4.51,17.37-6.61,26.85-6.69,3.82.15,7.64.33,11.41,1.05.12,6.18-1.47,11.92-4.33,17.36h-.02Z"/>
  <path class="cls-5" d="m79.25,2.41c2.84.11,5.54.95,8.21,1.79,1.88.59,3.21,1.6,1.61,3.97-1.05,1.56-2.26,3.17-2.38,5.21-.64.54-1,1.42-2.05,1.66-.49-4.79-3.01-8.68-5.38-12.64h-.01Z"/>
  <path class="cls-1" d="m108.75,50.96c-.25.37-.87.52-.94.26-.27-.95.08-1.82.81-2.52.04.75.09,1.5.13,2.26Z"/>
  <path class="cls-3" d="m108.69,106.41c-.2-.21-.39-.42-.59-.63,1.07-1.24,1.67-2.93,3.39-3.55-.25,1.86-1.67,2.92-2.8,4.18Z"/>
  <path class="cls-3" d="m114.04,97.51c.15-.02.3-.03.44-.03-.44,1.72-1.11,3.3-2.75,4.24.23-1.7,1.16-3.01,2.31-4.21Z"/>
  <path class="cls-10" d="m64.35,44.31c-1.21,2.03-2.88,3.66-4.5,5.34-.51.53-1.56.96-1.25,1.8.4,1.07,1.54.45,2.34.52,1.16.1,2.34.02,4.1.02-2.55,3.46-4.36,7.03-7.11,9.96-1.04,1.11-1.24,1.92-.11,3.11,1.64,1.73,2.3,4.04,3.18,6.35,3.12-2.3,6.04-4.74,9.44-6.43,1.45-.72,1.37-1.99,1.52-3.2.33-2.59-.28-5.27.71-7.8.23,1.49-.5,3.09.48,4.5,0,.88-.04,1.77-.02,2.65.07,2.67-.93,4.48-3.51,5.7-2.92,1.38-5.42,3.53-7.88,5.65-1.17,1.01-1.79.97-2.04-.71-.32-2.07-1.01-4.16-2.5-5.55-2.32-2.17-1.6-3.58.26-5.57,1.96-2.1,3.41-4.68,5.1-7.08-.38-.21-.53-.34-.69-.36-1.56-.26-3.69.69-4.48-1.25-.82-2,1.47-2.72,2.45-3.93,1.22-1.52,2.61-2.91,3.93-4.35.19.21.38.43.57.64h0Z"/>
  <path class="cls-7" d="m22.38,109.86c.77-1.68,1.53-3.36,2.41-5.29-2.69.43-5.15.82-8,1.27,1.32-3.51,2.51-6.59,3.65-9.7.53-1.44,1.77-1.35,2.91-1.45,1.27-.11,2.54-.14,3.81-.21.61-.69,1.81-.24,2.29-1.17,2.56-8.11,5.18-16.2,7.62-24.35.55-1.84,1.47-2.85,3.27-3.21,3.55-.7,7.08-1.63,10.75-.87,3.64.75,5.01,2.02,5.36,5.59.84,8.41-1.73,15.53-7.72,21.63-3.56,3.63-7.62,6.33-12.08,8.57-1.31.66-2.26,1.48-2.47,3.02-.08.57-.46,1.11-.49,1.68-.47,7.09-5.59,8.96-11.32,10.18-2.79.6-.88-1.29-1.09-2.05.02-.15.03-.3.02-.45-.01-1.19.04-2.35,1.06-3.2h.02Z"/>
  <path class="cls-5" d="m14.83,30.69c-.64,2.79-1.02,5.52.13,8.33,1.97,4.84,5.14,6.49,10.43,4.94-.76,2.01-2.4,3.5-2.32,5.62-5.62-1.25-9.92,2.72-14.95,3.81-1.54.33-1.89,1.45-.88,2.65,2.92,3.46,6.44,6.34,9.6,9.56,1.14,1.16,2.2-.43,3.29,0,.02,1.36.04,2.71.06,4.07.14.95.93,2.09-.73,2.52-2.5.41-5.1.51-7.47,1.31-2.74.92-3.47-.39-3.9-2.56-.06-.29-.19-.56-.21-.85-.08-1.25-.63-2.23-1.97-1.92-1.27.29-1.83,1.16-1.35,2.69,1.2,3.8,2.2,7.67,3.33,11.49.31,1.03,1.02,1.72,2.21,1.39,1.18-.32,1.42-1.24,1.18-2.31-.13-.57-.37-1.11-.57-1.66-.41-1.11-.34-1.69,1.14-1.85,3.07-.33,6.89-2.28,8.95-1.07,2.09,1.23,1.97,5.6,3.35,8.42,1.08,2.2-1.57,2.25-2.24,3.47-3.5,1.92-6.41,4.62-9.37,7.24-1.75,1.55-2.47,1.01-3.21-.96-2.22-5.94-4.24-11.92-5.23-18.2-.44-1,.07-2.13-.41-3.13-.76-11.72.87-23.06,5.62-33.85,1.44-3.27,2.7-6.7,5.53-9.15h-.01Z"/>
  <path class="cls-1" d="m22.38,109.86c-.47,1.03-.25,2.28-1.06,3.2-1.16-1.45-.13-2.6.52-3.8.18.2.36.4.54.6Z"/>
  <path class="cls-18" d="m3.69,73.7c.63.98.52,2.06.41,3.13h-.5c.03-1.05.06-2.09.08-3.14h0Z"/>
  <path class="cls-5" d="m30.48,13.56c-.72,2.61-2.21,4.95-2.09,7.87.21,5.39,2.49,7.93,8.52,8.85-1.38,1.13-2.85,2.17-4.13,3.41-1.31,1.28-2.43,2.76-3.81,4.35,0-1.77.01-3.24,0-4.7-.02-1.22-.45-2.24-1.84-2.15-1.46.1-2.05,1.14-1.74,2.5.54,2.39.06,4.35-1.6,6.25-.95,1.08-2.09,1.22-2.76.64-1.74-1.52-3.52-3.19-3.41-5.85.09-2.22.76-3.98,3.23-4.67,1.18-.33,1.62-1.37,1.06-2.61-.55-1.22-1.68-1.12-2.52-.73-1.21.58-2.26,1.51-3.37,2.29.5-2.59,2.92-3.87,4.11-5.98,2.77-3.92,6.39-6.89,10.37-9.48h-.02Z"/>
  <path class="cls-7" d="m76.27,73.37c1.23,1.2.34,2.49.14,3.73-.27,1.62-.63,3.22-.59,4.94,3.44-6.58,5.26-13.74,7.67-20.95-2.11-.17-3.68.9-5.37,1.38-1.27.36-1.5.13-1.61-1.35-.28-3.66,1.14-5.65,4.72-6.19,4.11-.62,6.13-3.13,6.88-7.13.23-1.25.11-3.18,2-3.56,1.61-.32,3.58-1.17,4.8-.08.92.82-.23,2.6-.65,3.84-.75,2.22-.15,2.66,1.94,2.05,2.12-.62,4.27-1.13,6.52-1.72-.79,6.02-.94,6.52-6.76,7.54-3.57.62-5.21,2.2-6.06,5.66-1.57,6.36-3.63,12.6-5.41,18.92-.22.78-.94,1.9-.04,2.46,1.02.63,1.69-.57,2.37-1.16,1.5-1.29,2.83-2.73,3.31-4.74.8-3.33,2.58-6.16,4.76-8.69,6.69-7.77,14.45-14.26,23.78-19.29-.39,3.47.13,7.03-4.09,8.26-.59.17-.59.71-.67,1.19.05.23-.59.3-.18.54.18.1.55-.11.84-.07,2.38-.09,1.16,1.77,1.03,2.44-.64,3.27-1.57,6.47-2.4,9.7-.15.57-.37,1.13-.43,1.71-.06.61-.8,1.36.1,1.83.61.32,1.05-.34,1.54-.61,7.46-4.12,14.9-8.29,22.38-12.39,7.51-4.12,14.97-8.37,22.96-11.53,1.05-.42,1.95-1.33,2.71.56.67,1.66.02,2.11-1.26,2.86-11.55,6.78-23.09,13.57-34.53,20.54-2.97,1.81-5.53,4.29-8.3,6.42-1.01.78-2.05,1.54-3.15,2.17-4.01,2.29-6.21,1.86-9.12-1.67-1.56,1.32-3.07,2.72-4.7,3.95-2.95,2.22-6.16,3.52-9.85,1.93-.96-.41-1.4,0-1.96.6-1.27,1.37-2.6,2.68-4.26,3.6-1.12.62-2.43,1.48-3.59.97-2.52-1.1-3.8.33-5.13,1.97-.24.3-.53.56-.82.81-3.48,2.93-5.99,2.4-8.74-1.92-1.81,3.09-4.48,5.16-7.53,6.75-2.13,1.11-4.51,1.98-6.6.2-2.18-1.86-2.27-4.51-1.42-7.06,1.68-4.99,4.52-9.31,7.81-13.41,4.94-6.16,11.18-10.62,18.03-14.33.5-.27.97-.73,1.72-.49.45,4.07-1.23,6.83-5.09,8.28-.41.54-1.06.8-1.49,1.32-4.37,5.07-9.4,9.62-12.95,16.11,5.83-4.92,9.24-11.02,13.38-16.54,1.09-.46,2.29.23,3.37-.32v-.03Z"/>
  <path class="cls-3" d="m61.94,26.07c1.5-.11,2.52-1.19,3.73-1.88,2.33-.2,2.69,1.01,2.08,2.92-2.3,7.17-5.72,13.7-10.94,19.18-3.66,3.84-2.98,6.81,2.5,8.55-1.15.98-2.28,1.66-3.05,2.64-2.36,2.98-2.76,2.99-4.66-.35-.39-.68-.79-1.36-1.12-2.07-.2-.44-.29-.93-.47-1.54-2.48,1.34-5.14,2.38-7.32,4.04-2.48,1.89-5.23,2.31-8.11,2.73-6.03.88-12.08-6.43-8.85-12.4.18-.33.23-.74.34-1.11.17-1.19,1.01-1.95,1.74-2.78.17-1.65,2.18-1.8,2.62-3.22,1.01.23.81-1.35,1.78-1.19.61-.59,1.23-1.18,1.84-1.77.97.08,1.63-.7,2.5-.9.68-.7,1.74-.35,2.48-.89l-.05.04c1.94-5.2,6.17-7.33,11.21-8.27,1.28-.24,3.09-1.15,3.48,1.26.34,2.1-1.34,4.98-2.99,5.05-1.36.06-2.74-.23-4,.4.4.15.7-.17,1.05-.13,1.4,0,1.91.8,1.87,2.08-.04,1.52-1.13,1.99-2.35,2.16-4.97.71-8.99,3.24-12.52,6.63-1.95,1.87-3.79,3.95-2.58,6.94.87,2.15,3.56,2.74,7.34,1.96,3.47-.72,6.27-2.72,9.13-4.62,1.18-.78,1.33-2.08,1.59-3.35,1.23-5.97,3.47-11.45,7.83-15.88,1.29-1.41,2.87-2.56,3.87-4.24h.03Z"/>
  <path class="cls-1" d="m29.46,93.3c-.14,1.62-1.26,1.3-2.29,1.17.24-1.42,1.43-.98,2.29-1.17Z"/>
  <path class="cls-1" d="m72.66,73.92c.21-.63.68-.96,1.3-1.11.61.84,1.59.18,2.31.57-1.13.76-2.41.47-3.65.5l.04.04Z"/>
  <path class="cls-1" d="m114.56,58.95c-.81.45-1.6,1.03-2.94.49.9-.38,1.59-.67,2.28-.97l.66.48Z"/>
  <path class="cls-1" d="m27.83,44c-.36,1.07-.95,1.99-1.74,2.78-.05-.32-.09-.63-.14-.95.2-1.05.84-1.65,1.88-1.83Z"/>
  <path class="cls-19" d="m87.74,133.24c1.07-2.8,2.2-5.08,2.32-7.65.04-.83.34-1.36,1.11-1.44.94-.1,1.38.51,1.54,1.39.56,2.98,1.11,5.96,1.71,8.93.19.95-.16,1.67-1,1.81-1,.17-1.18-.67-1.3-1.52-.18-1.25-.49-2.47-.8-3.92-.99,1.46-1.36,2.95-1.6,4.49-.12.79-.28,1.61-1.22,1.81-1.02.22-1.28-.59-1.65-1.3-.57-1.11-1.17-2.22-2.8-3.19.37,1.53.64,2.65.9,3.76.17.71.21,1.46-.62,1.73-.97.31-1.45-.33-1.61-1.19-.6-3.08-1.18-6.16-1.75-9.24-.14-.77.19-1.4.88-1.67.66-.25,1.09.31,1.43.78,1.4,1.98,2.77,3.98,4.47,6.42h0Z"/>
  <path class="cls-6" d="m128.75,104.14c0,2.92-1.5,4.66-4.08,4.7-3.5.06-7.39-3.77-7.52-7.39-.09-2.46,1.75-4.36,4.21-4.33,3.84.04,7.38,3.41,7.4,7.02h0Z"/>
  <path class="cls-12" d="m96.79,121.74c1.44-.05,2.62-2.09,4.26-.55l-.06-.06c-.25,1.99-2.21,1.99-3.38,2.9-.66.51-1.75.64-1.03,1.92.78,1.39,1.43.2,2.11-.06.36-.14.68-.39.97-.65.65-.59,1.27-.53,1.76.12.53.71.21,1.27-.49,1.68-.76.44-1.54.86-2.26,1.37-1.15.81-.42,1.7-.07,2.6.53,1.34,1.28.42,1.87.15.88-.41,1.8-.85,2.47-1.52.61-.6.98-1.38,1.69-.27.41.64.86,1.45-.13,2.03-1.85,1.09-3.7,2.18-5.6,3.19-.89.47-1.5-.12-1.85-.91-1.3-2.92-2.17-6.02-3.72-8.84-.48-.88-.11-1.79,1.06-1.92.99-.11,1.93-.22,2.44-1.22l-.05.04h0Z"/>
  <path class="cls-6" d="m123.39,112.77c-.03,3.1-1.43,5.15-3.63,5.42-2.74.34-6.29-2.52-6.91-5.75-.47-2.47-.64-5,2.01-6.52.82-.47,1.96-.97,2.57.23.57,1.1-.34,1.36-1.25,1.77-2.49,1.13-1.43,3.21-.75,4.77.79,1.79,2.12,3.54,4.48,3.03,1.41-.31,1.34-1.75,1.25-2.95-.08-1.08-.88-2.7.97-2.7,1.62,0,1.12,1.73,1.25,2.7h0Z"/>
  <path class="cls-9" d="m101.05,121.2c.36-4.49,3.09-.34,4.41-1.35.81-.74.15-1.76.33-2.69.14-.73.45-1.32,1.29-1.33.98,0,1.14.74.99,1.42-.7,3.38.75,5.3,3.97,6.14.92.24,1.76.81,1.22,1.89-.6,1.21-1.48.39-2.24.04-.79-.36-1.57-.75-2.52-1.21-.71,1.46.53,2.8,0,4.03-.28.64-.1,1.76-1.13,1.81-1.17.05-.88-1.05-1.06-1.74-.05-.18,0-.39-.02-.59-.2-3.33-1.97-5.49-5.32-6.48-5.02-1.49.06.06.06.06h.02Z"/>
  <path class="cls-4" d="m115.92,122.85c-.41-.34-.73-.56-.99-.83-1.98-2.04-3.92-4.11-5.93-6.12-.75-.75-1.03-1.51-.2-2.25.72-.65,1.37-.26,2,.41,1.92,2.08,3.9,4.12,5.89,6.14.52.53.98,1.03.35,1.73-.31.34-.71.59-1.11.91h-.01Z"/>
  <path class="cls-2" d="m96.85,121.7c-.83.09-1.81,0-1.57-1.04.25-1.04.14-2.52,1.38-2.98.87-.31,1.46.29,1.08,1.34-.32.9-.63,1.81-.95,2.71l.05-.04h0Z"/>
  <path class="cls-1" d="m58.55,30.24c-4.11,5.36-7.19,11.15-7.79,18.03-.04.5-.51,1.09-.94,1.39-3.78,2.64-7.65,5.17-12.38,5.68-2.33.25-4.53-.22-5.95-2.35-1.38-2.06-.58-4.11.64-5.76,3.66-4.93,8.43-8.25,14.62-9.24,1.01-.16,2.22,0,2.26-1.65.04-1.28-.59-1.51-1.63-1.38-.69.02-1.64.79-1.81-.64,1.58-.72,3.06-1.56,4.99-.88,2.22.78,1.6-1.52,1.92-2.35,1.19-3.16.91-3.47-2.28-2.53-3.94,1.17-8.48,1.65-9.7,6.81-.15.63-.87.71-1.49.71.15-3.51,2.03-5.79,5.1-7.25,4.42-2.09,9.12-2.75,14.11-2.96-.13,1.77-1.19,3.08-1.72,4.6,1.06.19,1.23-.94,1.96-1.11.31.26.34.55.1.87h0Z"/>
  <path class="cls-16" d="m20.13,65.61c-1.57,1.74-3.03,1.64-4.65-.04-3.04-3.15-6.22-6.18-9.29-9.31-1.22-1.25-.76-3.23.93-3.41,3.13-.34,5.65-2.14,8.49-3.11,2.47-.85,4.92-2.4,7.44-.14,0,.66.14,1.35-.5,1.83-.75.75-1.45,1.53-2.62,1.62-2.38.19-3.23,1.67-3.58,3.89-.37,2.3-.04,4.09,2.12,5.25.72.38,1.23.96,1.65,1.63v1.8h0Z"/>
  <path class="cls-5" d="m40.29,19.7c-.26,2.38-.85,4.65-3.4,5.93-1.29.65-2.39.37-3.22-.52-1.73-1.88-1.96-4.15-1.34-6.58.58-2.28,1.72-4.33,4.26-3.95,2.46.37,3.65,2.42,3.7,5.13h0Z"/>
  <path class="cls-5" d="m20.13,63.82c-5.11-2.74-4.95-2.72-4.34-8.19.24-2.16,1.35-2.96,3.06-3.03,1.42-.06,2.48-.77,3.71-1.17-1.57,3.98-1.84,8.22-2.43,12.4h0Z"/>
  <path class="cls-5" d="m60.49,8.09c-2.92.19-5.26,1.99-8.11,2.49,1.22-3.47,5.6-4.81,8.11-2.49Z"/>
  <path class="cls-1" d="m58.55,30.24c-.03-.29-.06-.58-.1-.87.88-1.4,2.27-2.26,3.49-3.3-.2,2.15-2.16,2.86-3.39,4.17Z"/>
  <path class="cls-5" d="m52.53,20.62c0-.34-.02-.67-.03-1.01h2.74c-.92.66-1.76.98-2.71,1.01Z"/>
  <path class="cls-5" d="m19.46,72.21c1.01-.62.4-1.71.73-2.52.6.74.65,1.69.51,2.49-.22,1.32-.8.49-1.24.04h0Z"/>
  <path class="cls-1" d="m36.65,37.17c-.87.19-1.45,1.48-2.58.66.64-.86,1.56-1.16,2.58-1.22.18.13.23.25.17.37s-.12.18-.18.18h.01Z"/>
  <path class="cls-1" d="m32.23,39.6c-.46.59-.38,1.99-1.78,1.19.35-.76.3-2.11,1.78-1.19Z"/>
  <path class="cls-1" d="m36.65,37.17v-.56c.64-.87,1.55-.58,2.4-.57-.6.81-1.57.81-2.4,1.13Z"/>
  <path class="cls-1" d="m38.27,90.44c1.71-6.16,3.38-11.58,4.68-17.09.7-2.99,2.74-2.73,4.74-2.5,2.26.27,2.99,2,2.86,4.08-.14,2.08-.75,4-1.88,5.81-2.51,4.01-5.97,6.96-10.4,9.7Z"/>
  <path class="cls-1" d="m109.89,60.81c-.19,2.76-1.16,4.36-2.06,5.9-2.45,4.19-4.78,8.49-8.51,11.75-.56.49-1.3,1.15-2.08.56-.64-.48-.22-1.25-.08-1.92,1.51-7.32,6.76-11.6,12.74-16.3h0Z"/>
  <path class="cls-1" d="m72.62,73.88c-2.81,7.06-7.84,12.35-13.58,17.08,3-6.91,7.71-12.46,13.62-17.04l-.04-.04Z"/>
  <path class="cls-1" d="m57.87,38.35c.66-1.6,1.66-2.96,3.06-4.09-.32,1.84-1.35,3.31-2.49,4.72-.52.09-.86,0-.57-.63Z"/>
  <path class="cls-1" d="m57.87,38.35c.19.21.38.42.57.63-.43.56-.24,1.56-1.34,1.83-.55-1.11.18-1.77.77-2.46Z"/>
  <path class="cls-1" d="m45.56,34.32c.42.74,1.24.34,1.81.64-.61.16-1.22.35-1.85.46-.35.06-.81.03-.75-.5.04-.39.36-.62.79-.61h0Z"/>
  <path class="cls-5" d="m124.49,106.43c-2.46-.18-5.25-3.03-5.23-5.11.01-1.42.89-1.89,2.1-1.84,2.61.1,5.46,2.86,5.28,5.07-.12,1.45-.91,2.11-2.15,1.89h0Z"/>
  <path class="cls-5" d="m11.86,54.99c.89.12.69.66.66,1.08-.03.42-.25.76-.7.47-.33-.21-.99-.36-.68-.98.14-.28.53-.43.72-.57Z"/>
</svg>