<?xml version="1.0" encoding="UTF-8"?>
<svg id="Capa_1" data-name="Capa 1" xmlns="http://www.w3.org/2000/svg" viewBox="0 0 48 48">
  <defs>
    <style>
      .cls-1 {
        fill: #e8e8e8;
        stroke-width: 0px;
      }
    </style>
  </defs>
  <path class="cls-1" d="m45.34,0H2.66c-.7,0-1.38.29-1.88.78C.29,1.28,0,1.96,0,2.66v42.68c0,.7.29,1.38.78,1.88.5.5,1.17.78,1.88.78h22.98v-18.56h-6.24v-7.26h6.24v-5.34c0-6.2,3.78-9.58,9.34-9.58,1.86,0,3.72,0,5.58.28v6.46h-3.82c-3.02,0-3.6,1.44-3.6,3.54v4.62h7.2l-.94,7.26h-6.26v18.58h12.2c.7,0,1.38-.29,1.88-.78.5-.5.78-1.17.78-1.88V2.66c0-.7-.29-1.38-.78-1.88-.5-.5-1.17-.78-1.88-.78Z"/>
</svg>