<svg width="48" height="49" viewBox="0 0 48 49" fill="none" xmlns="http://www.w3.org/2000/svg">
<path d="M45.3401 0.5H2.66012C1.95626 0.505233 1.28272 0.787163 0.785002 1.28488C0.287285 1.7826 0.00535544 2.45614 0.00012207 3.16V45.84C0.00535544 46.5439 0.287285 47.2174 0.785002 47.7151C1.28272 48.2128 1.95626 48.4948 2.66012 48.5H25.6401V29.94H19.4001V22.68H25.6401V17.34C25.6401 11.14 29.4201 7.76 34.9801 7.76C36.8401 7.76 38.7001 7.76 40.5601 8.04V14.5H36.7401C33.7201 14.5 33.1401 15.94 33.1401 18.04V22.66H40.3401L39.4001 29.92H33.1401V48.5H45.3401C46.044 48.4948 46.7175 48.2128 47.2152 47.7151C47.713 47.2174 47.9949 46.5439 48.0001 45.84V3.16C47.9949 2.45614 47.713 1.7826 47.2152 1.28488C46.7175 0.787163 46.044 0.505233 45.3401 0.5Z" fill="white"/>
</svg>
