<svg width="18" height="18" viewBox="0 0 18 18" fill="none" xmlns="http://www.w3.org/2000/svg">
<path d="M0.966796 4.50869C1.01926 4.3383 1.07915 4.17115 1.14651 4.00717L4.06967 6.93033L4.6 7.46066L5.13033 6.93033L6.93033 5.13033L7.46066 4.6L6.93033 4.06967L4.00703 1.14637C4.17088 1.07911 4.338 1.01928 4.50844 0.966872C4.97506 0.823387 5.47112 0.75 6 0.75C7.47002 0.75 8.69525 1.25591 9.71967 2.28033C10.7441 3.30475 11.25 4.52998 11.25 6C11.25 6.3399 11.2204 6.65421 11.1639 6.9445C11.1065 7.23887 11.0201 7.53088 10.9038 7.82098L10.7189 8.28243L11.0719 8.63251L17.1697 14.6803C17.1699 14.6806 17.1702 14.6809 17.1705 14.6811C17.2289 14.7399 17.25 14.7906 17.25 14.875C17.25 14.9598 17.2287 15.0106 17.1697 15.0697L15.0697 17.1697C15.0106 17.2287 14.9598 17.25 14.875 17.25C14.7906 17.25 14.7399 17.2289 14.6811 17.1705C14.6809 17.1702 14.6806 17.1699 14.6803 17.1697L8.63251 11.0719L8.28269 10.7191L7.82146 10.9036C7.5303 11.0201 7.23804 11.1065 6.94423 11.1639C6.65487 11.2204 6.34067 11.25 6 11.25C4.52998 11.25 3.30475 10.7441 2.28033 9.71967C1.25591 8.69525 0.75 7.47002 0.75 6C0.75 5.47036 0.823412 4.9744 0.966796 4.50869Z" stroke="white" stroke-width="1.5"/>
</svg>
