<svg width="42" height="33" viewBox="0 0 42 33" fill="none" xmlns="http://www.w3.org/2000/svg">
<path d="M29.998 22.7515C29.9987 22.1578 29.9312 21.5704 29.7992 21H37.7495C37.7496 21 37.7498 21 37.75 21C38.2139 21.0003 38.6586 21.1847 38.9866 21.5127C39.3147 21.8409 39.499 22.286 39.499 22.75V22.9853C39.4989 22.9889 39.4987 22.9947 39.4983 23.0024C39.4971 23.0301 39.4942 23.0829 39.4872 23.1571C39.4732 23.3062 39.4435 23.5374 39.3811 23.8226C39.2552 24.3985 39.0046 25.1557 38.5144 25.9027C37.6123 27.2773 35.6528 29 30.999 29C30.1841 29 29.4547 28.9467 28.802 28.8532C29.1618 28.1013 29.4477 27.3135 29.6541 26.5008C29.7878 25.9759 29.885 25.4422 29.9448 24.9038L29.9455 24.8971C29.9718 24.6529 29.9887 24.4079 29.9961 24.1625L29.9965 24.1498L29.9967 24.1371L29.9977 24.0801L29.998 24.0625V24.045L29.998 22.7529L28 22.75H29.998V22.7515ZM24 23.9842C23.9999 23.9884 23.9996 23.9954 23.9991 24.0049C23.9976 24.0368 23.9939 24.097 23.9852 24.1815C23.9677 24.3511 23.9305 24.6138 23.8524 24.9381C23.6955 25.5901 23.3807 26.4607 22.7536 27.329C21.5724 28.9645 18.983 31 13 31C7.01695 31 4.42757 28.9645 3.24636 27.329C2.61926 26.4607 2.30451 25.5901 2.14757 24.9381C2.06949 24.6138 2.03233 24.3511 2.01483 24.1815C2.00612 24.097 2.0024 24.0368 2.00086 24.0049C2.0004 23.9954 2.00014 23.9885 2 23.9842V22.75C2 22.2859 2.18437 21.8407 2.51256 21.5126C2.84075 21.1844 3.28587 21 3.75 21H22.25C22.7141 21 23.1593 21.1844 23.4874 21.5126C23.8156 21.8407 24 22.2859 24 22.75V23.9842ZM17.2426 12.2426C16.1174 13.3679 14.5913 14 13 14C11.4087 14 9.88258 13.3679 8.75736 12.2426C7.63214 11.1174 7 9.5913 7 8C7 6.4087 7.63214 4.88258 8.75736 3.75736C9.88258 2.63214 11.4087 2 13 2C14.5913 2 16.1174 2.63214 17.2426 3.75736C18.3679 4.88258 19 6.4087 19 8C19 9.5913 18.3679 11.1174 17.2426 12.2426ZM33.8284 12.8284C33.0783 13.5786 32.0609 14 31 14C29.9391 14 28.9217 13.5786 28.1716 12.8284C27.4214 12.0783 27 11.0609 27 10C27 8.93913 27.4214 7.92172 28.1716 7.17157C28.9217 6.42143 29.9391 6 31 6C32.0609 6 33.0783 6.42143 33.8284 7.17157C34.5786 7.92172 35 8.93913 35 10C35 11.0609 34.5786 12.0783 33.8284 12.8284Z" fill="white" stroke="white" stroke-width="4"/>
</svg>
