<?xml version="1.0" encoding="UTF-8"?>
<svg id="Layer_1" data-name="Layer 1" xmlns="http://www.w3.org/2000/svg" viewBox="0 0 146.83 165.81">
  <defs>
    <style>
      .cls-1 {
        fill: #0fb9a3;
      }

      .cls-1, .cls-2 {
        stroke-width: 0px;
      }

      .cls-2 {
        fill: #306686;
      }
    </style>
  </defs>
  <path class="cls-1" d="m69.09,0c2.84,0,5.69,0,8.53,0,8.46.43,16.81,1.56,24.92,4.09,13.7,4.28,25.63,11.37,34.52,22.8,10.91,14.04,12.52,29.41,5.63,45.76-.6,1.42-1.34,2.12-2.95,1.92-1.2-.15-2.43-.02-3.65,0-1.61.02-1.61.03-.9-1.36,3.06-6.03,4.75-12.41,4.83-19.2.12-11.16-4.21-20.64-11.23-29-7.21-8.58-16.59-13.93-27.08-17.47-8.48-2.86-17.22-4.72-26.16-4.51-16.76.39-33,3.31-47.34,12.74C15.81,23.93,8.34,35.37,6.64,50.21c-1.08,9.39,1.36,18.05,6.55,25.91,5.66,8.56,13.56,14.55,22.48,19.33,5.17,2.77,10.57,4.98,16.19,6.66.53.16,1,.52,1.59.48.36,1.06-.05,2-.44,2.94-14.54-3.5-28.01-9.12-38.81-19.89C6.59,78.07,1.74,69.01.29,58.27c-.95-7,.53-13.65,3.2-20.08,3.69-8.88,9.74-15.87,17.19-21.86C32.28,7.01,45.76,2.65,60.24.77c2.93-.38,5.9-.51,8.85-.76Z"/>
  <path class="cls-1" d="m80.95,62.15c0,10.07-.03,20.14.03,30.21,0,1.28-.37,1.55-1.56,1.51-2.8-.09-5.6-.01-8.4-.03-1.96-.01-1.7.26-1.7-1.65,0-17.54,0-35.08,0-52.63q0-1.84-1.9-1.84c-2.84,0-5.68-.02-8.52.01-.79.01-1.06-.21-1.03-1.03.06-1.74.05-3.49,0-5.24-.02-.76.16-1.06.99-1.06,7.02.03,14.05.04,21.07,0,1.08,0,1.03.54,1.03,1.28-.01,10.15,0,20.3,0,30.45Z"/>
  <path class="cls-1" d="m18.91,125.11c1.45-1.75,3-3.01,4.91-3.81,1.39-.58,2.83-.79,4.29-.59,2.62.35,4.14,1.87,4.45,4.68.95-.97,1.69-1.94,2.69-2.64,1.87-1.32,3.85-2.2,6.21-2.09,3.06.14,4.96,1.94,5.19,5.02.2,2.72-.59,5.31-1.08,7.93-.57,3.07-1.27,6.12-1.83,9.19-.19,1.03-.66,1.46-1.68,1.5-2.65.09-2.73.02-2.22-2.54.85-4.3,1.69-8.59,2.51-12.89.11-.55.13-1.13.11-1.7-.09-2.46-1.59-3.49-3.95-2.71-1.94.64-3.3,2.02-4.47,3.61-1.26,1.73-2.04,3.68-2.46,5.78-.58,2.9-1.16,5.81-1.73,8.71-.31,1.55-.5,1.71-2.1,1.73-.37,0-.73,0-1.1,0-.89-.02-1.21-.4-1.02-1.33.91-4.41,1.75-8.83,2.65-13.24.2-.97.24-1.93.19-2.91-.11-1.86-1.1-2.7-2.96-2.55-1.49.12-2.67.92-3.73,1.89-2.19,2.02-3.49,4.55-4.1,7.45-.64,3.06-1.29,6.11-1.83,9.19-.2,1.11-.74,1.49-1.8,1.51-2.56.05-2.61.01-2.11-2.53,1.29-6.44,2.57-12.88,3.86-19.32.28-1.41,2.09-2.2,3.38-1.48.44.25.43.61.33,1.05-.21.95-.36,1.91-.59,3.1Z"/>
  <path class="cls-1" d="m53.75,141.91c-.6,3-1.18,5.8-1.72,8.62-.47,2.43-.62,2.54-3.09,2.45-1.06-.04-1.42-.42-1.19-1.53,1.65-8.07,3.25-16.14,4.87-24.21.36-1.79.74-3.58,1.08-5.37.11-.56.38-.94.93-.95.87-.02,1.79-.35,2.58.25.29.22.16.59.09.92-.19.91-.36,1.83-.51,2.63.43-.35.94-.74,1.42-1.17,1.93-1.73,4.1-2.88,6.78-2.87,3.31.02,5.69,1.78,6.21,5.02.92,5.73-.36,11.02-4.03,15.54-2.85,3.51-7.63,4.43-11.21,2.47-.78-.43-1.43-1.04-2.21-1.79Z"/>
  <path class="cls-1" d="m126.29,136.3c.14-4.74,1.4-9.07,4.9-12.46,3.08-2.98,6.83-3.78,10.93-2.86,2.69.6,4.45,2.49,4.67,4.69.27,2.66-.96,4.8-3.53,6.11-2.41,1.22-5.02,1.57-7.66,1.72-1.3.07-2.6.12-3.89.05-.86-.04-1.17.31-1.19,1.08-.01.93-.1,1.87-.02,2.8.19,2.12,1.42,3.38,3.55,3.7,2.59.39,5.08-.16,7.54-.95.44-.14.93-.54,1.36-.11.37.38.18.92.09,1.39-.2,1.02-.66,1.8-1.73,2.15-3.06,1.01-6.2,1.35-9.36.75-3.49-.66-5.42-2.96-5.65-6.5-.03-.53,0-1.05,0-1.58Z"/>
  <path class="cls-1" d="m89.02,140.08c-1.23,1.44-2.38,2.57-3.82,3.37-1.64.91-3.38,1.33-5.26,1.19-2.91-.22-4.68-1.96-4.97-4.87-.22-2.22.32-4.36.73-6.51.7-3.62,1.45-7.24,2.11-10.87.2-1.07.67-1.53,1.77-1.55,2.68-.04,2.7-.06,2.19,2.56-.77,3.94-1.55,7.88-2.34,11.82-.23,1.16-.34,2.33-.21,3.51.18,1.59,1.11,2.39,2.7,2.35,1.68-.05,3.02-.87,4.19-1.98,2.25-2.14,3.55-4.81,4.17-7.82.6-2.94,1.21-5.88,1.73-8.83.21-1.22.81-1.61,1.97-1.6,2.51,0,2.53-.02,2.04,2.38-1.33,6.56-2.65,13.12-3.98,19.68-.25,1.22-2.4,1.98-3.38,1.22-.34-.27-.31-.62-.23-1,.18-.91.36-1.83.59-3.03Z"/>
  <path class="cls-1" d="m81.08,15.9c-.02,4.39-3.13,7.46-7.57,7.46-4.3,0-7.35-3.21-7.32-7.7.03-4.17,3.24-7.26,7.54-7.25,4.36.01,7.36,3.07,7.35,7.49Z"/>
  <path class="cls-1" d="m113.43,144.65c-1.89,0-3.73-.26-5.43-1.13-1.37-.71-1.69-2.67-.66-3.82.54-.59.95-.15,1.36.15,1.87,1.36,3.96,1.82,6.23,1.5,1.56-.22,2.87-.89,3.53-2.44.65-1.54.29-2.76-1.08-3.72-1-.7-2.14-1.15-3.22-1.71-2.18-1.11-4.01-2.49-3.98-5.3.04-2.98,1.4-5.15,4.02-6.45,3.01-1.5,6.12-1.43,9.19-.13,1.42.6,1.73,2.39.69,3.52-.5.54-.95.21-1.41-.05-1.36-.79-2.8-1.3-4.4-1.17-1.44.11-2.7.59-3.48,1.9-.84,1.4-.58,2.77.71,3.75.42.32.88.59,1.35.82.72.37,1.48.68,2.2,1.04,4.88,2.41,5.26,8.39.73,11.48-1.73,1.18-3.8,1.76-6.35,1.77Z"/>
  <path class="cls-1" d="m99.97,144.29c-2.02,0-2.07-.04-1.67-2.07,1.99-10.1,3.99-20.19,5.99-30.28.29-1.45,2.73-2.35,3.94-1.45.5.37.29.88.2,1.34-1.54,7.75-3.08,15.5-4.62,23.25-.48,2.42-.95,4.85-1.43,7.28-.37,1.87-.47,1.94-2.41,1.94Z"/>
  <path class="cls-1" d="m8.97,112.54c1.93,0,2.03.13,1.66,2-1.85,9.3-3.71,18.61-5.56,27.91-.34,1.7-.47,1.81-2.24,1.83-.28,0-.57,0-.85,0-1.28-.06-1.46-.3-1.2-1.59,1.84-9.31,3.68-18.61,5.52-27.92.43-2.15.53-2.24,2.67-2.23Z"/>
  <path class="cls-1" d="m53.01,105.55c-.02-1.01.15-1.98.44-2.94,1.93-3.52,6.26-3.14,7.96-1.28,1.34,1.47,1.74,3.76.85,5.66-.85,1.81-2.69,2.81-4.91,2.66-1.95-.13-3.51-1.43-4.11-3.41-.07-.23-.15-.46-.23-.69Z"/>
  <path class="cls-1" d="m144,156.65c-.94,2.62-1.88,5.24-2.84,7.85-.15.42-.16.97-.86,1-.78.03-.8-.57-.96-1.04-.88-2.56-1.74-5.14-2.7-8-.18,2.83-.34,5.37-.49,7.91-.01.2-.03.41-.03.61,0,.51-.3.58-.72.58-.48,0-.65-.22-.62-.67.22-3.28.44-6.56.65-9.84.03-.5.33-.58.74-.57.6.01,1.16-.12,1.43.73.73,2.32,1.55,4.61,2.34,6.91.12.34.22.69.38,1.19.99-2.73,1.92-5.31,2.85-7.89.18-.49.29-.95,1.03-.97.85-.02,1.2.16,1.24,1.1.12,2.96.37,5.91.55,8.87.03.46.32,1.09-.6,1.14-.93.05-.79-.59-.82-1.13-.14-2.59-.28-5.18-.42-7.77-.05,0-.1-.01-.15-.02Z"/>
  <path class="cls-1" d="m129.77,159.94c0,4.48-3.81,7.14-7.5,5.24-2.36-1.22-3.37-4.69-2.22-7.61.99-2.52,3.51-3.78,6.12-3.07,2.27.62,3.6,2.64,3.6,5.44Z"/>
  <path class="cls-1" d="m73.79,160.08c0-1.58.02-3.17-.01-4.75-.01-.62.18-.87.83-.85,1.5.04,3,.02,4.5,0,.48,0,.76.1.74.67-.02.54-.33.56-.72.56-.97,0-1.95.03-2.92,0-.64-.02-.93.12-.95.86-.08,2.6-.12,2.6,2.49,2.6.41,0,.81.01,1.22,0,.39-.01.6.11.62.54.01.46-.15.66-.63.65-.93-.02-1.87.03-2.8-.01-.63-.03-.83.2-.88.82-.26,3.17-.27,3.17,2.91,3.17.45,0,.89,0,1.34,0,.4,0,.58.19.58.6,0,.39-.12.61-.55.62-1.74,0-3.49.03-5.23.03-.64,0-.52-.51-.52-.89-.01-1.54,0-3.08,0-4.63Z"/>
  <path class="cls-1" d="m96.34,160.05c0-1.58.02-3.17-.01-4.75-.01-.64.21-.85.84-.83,1.46.04,2.92,0,4.38.01.39,0,.82-.09.85.56.03.7-.4.67-.87.66-.53,0-1.06-.03-1.58,0-.67.04-1.66-.33-1.96.19-.47.81-.16,1.89-.14,2.86.01.48.44.38.74.39.93.01,1.87.02,2.8,0,.43,0,.71.09.71.59,0,.48-.24.62-.69.61-.73-.02-1.46-.02-2.19,0-1.63.04-1.4-.34-1.4,2.2,0,1.92-.27,1.76,1.46,1.78.85.01,1.7,0,2.56,0,.45,0,.8.05.81.63,0,.59-.32.63-.78.62-1.54-.03-3.08-.04-4.62-.01-.68.02-.93-.21-.91-.9.04-1.54.01-3.08.01-4.63Z"/>
  <path class="cls-1" d="m112.78,165.76c-3.63,0-5.82-2.32-5.66-5.91.16-3.55,2.86-5.86,6.46-5.52.44.04.88.14,1.32.23.41.09.64.3.5.78-.13.44-.32.58-.79.42-.78-.26-1.59-.32-2.4-.2-2.33.35-3.73,2.29-3.57,4.87.17,2.56,1.71,4.06,4.21,4.08.61,0,1.21-.04,1.8-.22.33-.1.62-.14.74.33.11.44.03.7-.43.82-.75.21-1.51.32-2.18.3Z"/>
  <path class="cls-1" d="m64.53,160.59c0-1.22-.05-2.44.02-3.65.05-.91-.17-1.38-1.18-1.23-.48.07-.97,0-1.46.01-.41,0-.71-.06-.71-.58,0-.47.17-.65.64-.65,2.31.01,4.63.01,6.94,0,.49,0,.63.22.62.67,0,.42-.2.58-.6.56-.08,0-.16,0-.24,0q-2.54.12-2.54,2.65c0,2.07-.01,4.14,0,6.21,0,.59-.02,1.01-.81,1.01-.82,0-.67-.52-.68-.99,0-1.34,0-2.68,0-4.02Z"/>
  <path class="cls-1" d="m86.71,159.37c0,1.38.02,2.76,0,4.13-.01.63.22.86.85.84,1.05-.04,2.11,0,3.16,0,.44,0,.79.01.79.62,0,.62-.39.6-.81.61-1.58,0-3.16,0-4.74.04-.62.02-.74-.29-.74-.82.01-3.16.01-6.32,0-9.48,0-.52.08-.82.71-.84.7-.02.79.32.78.89-.02,1.34,0,2.67,0,4.01Z"/>
  <path class="cls-2" d="m67.18,129.13c-.09,3.22-.82,6.28-2.57,9.01-2.45,3.83-6.83,3.95-9.58.32-.22-.29-.45-.58-.38-.99.64-3.48,1.2-6.97,3.52-9.85.96-1.18,2.03-2.22,3.42-2.86,3.12-1.44,5.35-.13,5.58,3.27.02.36,0,.73,0,1.09Z"/>
  <path class="cls-2" d="m131.56,130.56c.89-4.5,4.94-7.47,8.79-6.53,1.09.27,1.97.84,2.21,2,.25,1.22-.2,2.23-1.22,2.97-.53.39-1.12.65-1.74.84-2.63.79-5.33.72-8.05.72Z"/>
  <path class="cls-2" d="m121.15,160.15c-.03-1.05.14-1.96.59-2.8.63-1.15,1.57-1.83,2.93-1.84,1.37-.01,2.34.67,2.94,1.82.88,1.68.89,3.44.11,5.17-.57,1.28-1.54,2.05-3.02,2.06-1.49.01-2.42-.78-3.06-2.02-.39-.78-.55-1.61-.49-2.38Z"/>
</svg>