<svg width="33" height="33" viewBox="0 0 33 33" fill="none" xmlns="http://www.w3.org/2000/svg">
<path d="M7.76765 3.61873C7.7748 4.46987 7.41948 5.28945 6.77846 5.90036C6.13744 6.51128 5.26219 6.86448 4.34182 6.88366C3.42337 6.8525 2.55296 6.4963 1.91048 5.88866C1.268 5.28103 0.902546 4.46841 0.889648 3.61873C0.929574 2.7909 1.30846 2.00807 1.94951 1.42894C2.59055 0.849817 3.44578 0.517729 4.34182 0.5C5.23525 0.51806 6.08747 0.850972 6.72425 1.43067C7.36103 2.01037 7.73427 2.79306 7.76765 3.61873ZM1.25858 12.6825C1.25858 10.8064 2.54986 11.0988 4.34182 11.0988C6.13379 11.0988 7.39871 10.8064 7.39871 12.6825V30.9564C7.39871 32.8568 6.10744 32.467 4.34182 32.467C2.57621 32.467 1.25858 32.8568 1.25858 30.9564V12.6825Z" fill="white"/>
<path d="M12.7217 12.6824C12.7217 11.6347 13.1433 11.2449 13.8021 11.1231C14.4609 11.0012 16.7273 11.1231 17.5178 11.1231C18.3084 11.1231 18.6246 12.317 18.5983 13.2185C19.2745 12.3793 20.1724 11.7147 21.2059 11.2881C22.2394 10.8615 23.3741 10.6872 24.5012 10.782C25.6081 10.7194 26.7168 10.8728 27.7554 11.2323C28.7939 11.5918 29.7391 12.1492 30.5294 12.8685C31.3197 13.5877 31.9376 14.4526 32.3428 15.407C32.748 16.3614 32.9315 17.384 32.8813 18.4082V30.8832C32.8813 32.7836 31.6164 32.3938 29.8244 32.3938C28.0325 32.3938 26.7676 32.7836 26.7676 30.8832V21.1371C26.8139 20.6355 26.7429 20.1306 26.5595 19.6566C26.3761 19.1826 26.0845 18.7507 25.7045 18.3901C25.3245 18.0295 24.8651 17.7488 24.3573 17.5669C23.8496 17.3851 23.3055 17.3064 22.762 17.3362C22.221 17.3235 21.6832 17.4172 21.1843 17.6111C20.6854 17.8049 20.2367 18.0946 19.868 18.4609C19.4993 18.8271 19.2189 19.2616 19.0454 19.7356C18.872 20.2096 18.8094 20.7122 18.8618 21.2102V30.9563C18.8618 32.8567 17.5705 32.4669 15.7786 32.4669C13.9866 32.4669 12.7217 32.8567 12.7217 30.9563V12.6824Z" fill="white"/>
</svg>
