<svg width="61" height="24" viewBox="0 0 61 24" fill="none" xmlns="http://www.w3.org/2000/svg">
<path d="M14.8118 0C12.3749 0 10.0378 0.96804 8.31472 2.69117L2.69117 8.31472C0.96804 10.0378 0 12.3749 0 14.8118C0 19.8863 4.11371 24 9.18824 24C11.6251 24 13.9622 23.0319 15.6853 21.3088L19.5751 17.419C19.5752 17.419 19.5751 17.4189 19.5751 17.419L30.9088 6.08528C31.7318 5.26233 32.8479 4.8 34.0118 4.8C35.9602 4.8 37.6122 6.06993 38.1849 7.82726L41.7618 4.25037C40.13 1.69467 37.2688 0 34.0118 0C31.5749 0 29.2378 0.96804 27.5147 2.69117L12.2912 17.9147C11.4682 18.7377 10.3521 19.2 9.18824 19.2C6.76467 19.2 4.8 17.2354 4.8 14.8118C4.8 13.6479 5.26233 12.5318 6.08528 11.7088L11.7088 6.08528C12.5318 5.26233 13.6479 4.8 14.8118 4.8C16.7603 4.8 18.4122 6.06998 18.9849 7.82737L22.5618 4.25046C20.9301 1.69472 18.0689 0 14.8118 0Z" fill="white"/>
<path d="M29.8526 17.9147C29.0297 18.7377 27.9135 19.2 26.7497 19.2C24.8014 19.2 23.1497 17.9304 22.5768 16.1734L19 19.7502C20.6318 22.3055 23.4929 24 26.7497 24C29.1866 24 31.5236 23.0319 33.2467 21.3088L48.4702 6.08528C49.2932 5.26233 50.4094 4.8 51.5732 4.8C53.9968 4.8 55.9614 6.76467 55.9614 9.18824C55.9614 10.3521 55.4991 11.4682 54.6762 12.2912L49.0526 17.9147C48.2297 18.7377 47.1135 19.2 45.9497 19.2C44.0013 19.2 42.3494 17.9302 41.7766 16.173L38.1998 19.7498C39.8316 22.3054 42.6927 24 45.9497 24C48.3866 24 50.7236 23.0319 52.4467 21.3088L58.0702 15.6853C59.7934 13.9622 60.7614 11.6251 60.7614 9.18824C60.7614 4.11371 56.6478 0 51.5732 0C49.1363 0 46.7993 0.96804 45.0762 2.69117L29.8526 17.9147Z" fill="white"/>
</svg>
