<?xml version="1.0" encoding="UTF-8"?>
<svg id="Layer_1" data-name="Layer 1" xmlns="http://www.w3.org/2000/svg" viewBox="0 0 327.48 115.42">
  <defs>
    <style>
      .cls-1 {
        fill: #0fb9a3;
      }

      .cls-1, .cls-2 {
        stroke-width: 0px;
      }

      .cls-2 {
        fill: #306686;
      }
    </style>
  </defs>
  <path class="cls-1" d="m50.48,90.34c-12.14,0-24.29-.05-36.43.06-1.86.02-2.31-.7-2.76-2.27-.7-2.43-.3-4.32,1.29-6.35,5.14-6.57,7.03-14.45,8.56-22.43,1.39-7.26,1.7-14.75,4.2-21.77,2.9-8.13,8.04-14.14,16.87-16.2.86-.2,1.22-.78,1.69-1.35,3.89-4.75,9.54-4.72,13.34.06.46.58.86,1.1,1.71,1.29,8.16,1.87,13.17,7.32,16.25,14.73,2.58,6.21,3.07,12.92,4.1,19.48,1.03,6.52,2.44,12.94,5,19.07,1.27,3.04,3.07,5.74,5.03,8.37.99,1.32.86,5.62-.12,6.89-.53.69-1.26.39-1.89.39-12.28.02-24.56.02-36.84.02Z"/>
  <path class="cls-1" d="m150.47,65.97c-1,.3-1.26,1.07-1.68,1.64-4.9,6.71-9.79,13.43-14.66,20.16-1.8,2.49-3.58,2.52-5.37.09-5-6.81-10.01-13.61-15.02-20.41-.24-.32-.51-.62-1.06-1.31-.64,3.49-1.24,6.63-1.79,9.78-.71,4.09-1.24,8.2-1.41,12.36-.03.77,0,1.47-1.18,1.41-1.97-.09-3.94-.03-6.07-.03,1.9-7.38,3.6-14.64,5.12-21.95.85-4.06,1.75-8.1,2.52-12.17.21-1.13.57-1.53,1.72-1.22.58.16,1.27.25,1.83.08,2.68-.79,3.93.73,5.35,2.7,4.87,6.82,9.98,13.46,14.91,20.23.93,1.27,1.33.99,2.13-.05,5.55-7.25,11.29-14.35,16.4-21.92.61-.91,1.19-1.27,2.33-1.06,1.12.21,2.35.24,3.46.01,1.37-.27,1.81.19,2.01,1.45,1.84,11.13,3.68,22.26,6.34,33.23.04.18,0,.38,0,.73-3.9,0-7.78,0-11.66,0-1.38,0-1.01-1.13-1.07-1.78-.65-7.32-2.08-14.53-3.15-21.96Z"/>
  <path class="cls-1" d="m159.19,115.3c-52.23,0-104.46,0-156.69-.03-.77,0-1.86.6-2.32-.59-.54-1.37.1-2.05,1.89-2.05,25.06,0,50.11,0,75.17,0,79.67,0,159.35,0,239.02.04.77,0,2-.73,2.34.78.41,1.87-.73,1.88-2.11,1.88-23.21-.03-46.43-.02-69.64-.02-29.22,0-58.44,0-87.66,0Z"/>
  <path class="cls-1" d="m208.57,34.58c-35.77,0-71.55-.02-107.32.05-1.77,0-2.59-.52-3.32-2.12C88.82,12.5,67.73.27,45.78,2.54,26.01,4.59,11.82,14.82,3.06,32.6c-.36.73-.41,1.75-1.81,1.1-1.47-.68-.55-1.44-.23-2.09C9.72,13.75,23.89,3.15,43.63.49c23.42-3.15,45.89,9.11,56,30.24.71,1.49,1.6,1.66,2.99,1.66,57.01-.03,114.01-.02,171.02-.02,14.34,0,28.67-.01,43.01.03.68,0,1.92-.69,1.95.94.01.79-.1,1.33-1.08,1.25-.61-.05-1.23,0-1.84,0-35.71,0-71.41,0-107.12,0Z"/>
  <path class="cls-1" d="m292.71,68.45c4.62-3.47,9.44-4.62,14.75-4.2,6.36.51,9.47,3.46,9.68,9.79.16,4.76.02,9.53.07,14.3.01,1.07-.32,1.39-1.41,1.36-2.66-.09-5.32-.11-7.98,0-1.24.05-1.5-.37-1.48-1.49.06-3.47.02-6.95.02-10.42,0-.95,0-1.91-.04-2.86-.21-4.36-2.22-6.45-6.21-6.51-4.13-.05-6.7,2.19-6.9,6.42-.2,4.28-.16,8.58-.08,12.87.03,1.58-.33,2.1-2.02,1.98-2.51-.18-5.04-.07-7.57,0-.98.03-1.32-.26-1.31-1.25.03-7.49.03-14.98,0-22.47,0-.92.21-1.39,1.25-1.31,2.66.21,5.32.21,7.98,0,1.01-.08,1.35.31,1.26,1.27-.06.67-.01,1.36-.01,2.5Z"/>
  <path class="cls-1" d="m257.6,90.22c-4.69-.01-9.26-.62-13.34-3.14-7.07-4.37-7.47-13.86-.83-18.91,2.78-2.12,5.99-3.23,9.41-3.65,5.46-.68,10.9-.59,16.11,1.47,4.54,1.79,7.89,4.76,8.18,9.95.3,5.3-2.32,9.1-6.88,11.6-3.93,2.16-8.23,2.73-12.65,2.68Z"/>
  <path class="cls-1" d="m200.77,90.23c-3.3.05-6.51-.45-9.64-1.55-.94-.33-1.36-.74-.91-1.78.29-.67.36-1.44.52-2.17.13-.58.04-1.28.86-1.44.81-.16,1.35.15,1.92.8,2.93,3.34,7.96,4.57,11.92,2.94,1.18-.49,2.51-1.01,2.51-2.61,0-1.51-1.25-2.07-2.39-2.46-2.38-.81-4.82-1.43-7.23-2.15-1.76-.53-3.52-1.09-5.1-2.07-4.34-2.67-4.51-7.78-.35-10.76,2.04-1.47,4.38-2.25,6.82-2.55,4.52-.55,8.97-.2,13.29,1.39,1.29.47,1.87.99,1.03,2.3-.15.23-.24.49-.34.74-1.23,3.03-1.75,3.11-3.95.62-2.4-2.71-7.54-3.62-10.77-1.91-.89.47-1.6,1.1-1.62,2.17-.02,1.09.72,1.75,1.6,2.19,2.27,1.14,4.79,1.51,7.22,2.15,2.18.57,4.35,1.16,6.28,2.36,4.35,2.69,4.57,7.81.41,10.78-3.62,2.58-7.83,2.95-12.09,3.02Z"/>
  <path class="cls-1" d="m232.46,77.27c0,3.6-.04,7.2.02,10.8.02,1.15-.14,1.71-1.54,1.64-2.65-.14-5.31-.1-7.96,0-1.12.04-1.39-.35-1.39-1.38.03-7.41.03-14.81,0-22.22,0-.98.18-1.52,1.34-1.43,2.72.22,5.44.22,8.16,0,1.11-.09,1.39.34,1.37,1.38-.05,3.74-.02,7.47-.02,11.21Z"/>
  <path class="cls-1" d="m173.02,77.08c0-3.61.05-7.22-.03-10.83-.03-1.23.28-1.71,1.59-1.58,2.58.27,5.18.19,7.77,0,.98-.07,1.46.1,1.45,1.27-.05,7.49-.04,14.99-.01,22.48,0,.94-.22,1.31-1.26,1.28-2.73-.08-5.46-.1-8.18,0-1.15.04-1.37-.38-1.36-1.39.04-3.75.02-7.49.02-11.24Z"/>
  <path class="cls-1" d="m237.04,17.67c0,1.16,0,2.31,0,3.47.03,3.23-.61,3.73-3.83,3.15-.69-.12-.71-.45-.7-.97.03-1.16.11-2.32.04-3.47-.04-.65.53-1.67-.59-1.87-1.12-.19-2.33-.36-3.42.13-.48.21-.28.86-.28,1.31-.01.75-.09,1.52.05,2.24.41,2.12-.31,2.73-2.5,2.64-1.77-.07-2.07-.52-1.99-2.17.17-3.26.12-6.53,0-9.8-.05-1.31.2-1.9,1.61-1.66.53.09,1.1.07,1.63,0,1.12-.16,1.5.28,1.3,1.35-.07.4-.06.81-.08,1.22-.11,2.84.69,3.45,3.56,2.82.65-.14.74-.45.72-.97-.02-.61.06-1.24-.05-1.83-.39-2.08.31-2.74,2.51-2.66,1.76.07,2.19.51,2.02,2.16-.16,1.62-.04,3.26-.04,4.9h0Z"/>
  <path class="cls-1" d="m248.37,10.37c4.67.03,7.86,2.89,7.86,7.05,0,4.39-3.22,7.18-8.19,7.1-4.68-.07-7.78-2.93-7.74-7.15.04-4.29,3.2-7.04,8.06-7Z"/>
  <path class="cls-1" d="m50.61,93.23c2.52,0,5.05,0,7.57,0,2.07,0,2.32.35,1.28,2.18-1.91,3.37-5.07,4.88-8.77,5.18-3.47.28-7.87-2.48-9.22-5.43-.58-1.27-.65-2.02,1.15-1.96,2.66.1,5.32.02,7.98.02Z"/>
  <path class="cls-1" d="m271.52,17.39c0-1.83.06-3.67-.02-5.5-.04-.99.23-1.3,1.24-1.26,2.31.08,4.63.05,6.94.03.65,0,1.19-.07,1.2.88.01.92-.48.97-1.16.93-.68-.03-1.37.03-2.04-.05-1.29-.15-1.69.27-1.76,1.64-.09,1.87.47,2.62,2.35,2.26.53-.1,1.08-.12,1.62-.15.84-.06.75.55.8,1.09.06.62-.22.87-.82.84-.54-.03-1.1.03-1.63-.06-1.91-.34-2.35.47-2.33,2.3.01,1.73.35,2.56,2.23,2.21.59-.11,1.22-.02,1.83-.08.6-.05.89.15.89.77,0,.6-.04,1.06-.84,1.06-2.52-.02-5.04-.03-7.55,0-.95.01-.88-.55-.88-1.2.03-1.9,0-3.8,0-5.71-.03,0-.06,0-.09,0Z"/>
  <path class="cls-1" d="m309.78,20.37c1.16,1.42,2.13,2.59,3.82,2.43.75-.07,1.55-.14,1.77-1.07.22-.9-.3-1.42-1.02-1.78-.91-.46-1.86-.84-2.76-1.32-1.74-.92-2.64-2.37-2.4-4.34.24-1.95,1.39-3.17,3.31-3.7.81-.23,1.62-.25,2.43-.21,3.24.14,3.46.44,2.63,3.52-.79.15-.79-.61-1.09-.99-.74-.92-1.7-1.09-2.76-.89-.61.11-1.2.39-1.3,1.12-.1.69.25,1.19.86,1.47,1.05.49,2.1.96,3.16,1.43,1.9.85,2.5,2.41,2.33,4.33-.17,1.97-1.2,3.33-3.14,3.82-.98.25-2.03.34-3.03.29-3.34-.17-3.44-.34-2.83-4.11Z"/>
  <path class="cls-1" d="m296.76,17.46c0-1.9.05-3.81-.02-5.71-.04-.93.25-1.16,1.15-1.13,2.31.07,4.63.06,6.94.03.69,0,1.16,0,1.16.92,0,.97-.57.9-1.2.88-.41-.01-.82-.02-1.23-.02-2.49-.03-2.86.45-2.45,2.97.11.68.37.97,1.03.93.48-.02.97-.11,1.43-.02.8.17,2.29-1.08,2.26.85-.03,1.86-1.54.58-2.33.85-.73.25-1.95-.44-2.21.42-.34,1.12-.16,2.41-.05,3.62.05.63.74.46,1.18.46.88,0,1.77-.01,2.65-.05.57-.03.9.14.91.77,0,.61-.07,1.05-.85,1.04-2.45-.02-4.9-.04-7.35,0-.88.02-.99-.41-.98-1.13.03-1.9,0-3.81,0-5.71-.01,0-.03,0-.04,0Z"/>
  <path class="cls-1" d="m178.18,59.05c-1.55.09-3.1-.33-4.44-1.36-2.08-1.6-2.02-3.86.11-5.4,2.46-1.78,6.83-1.7,9.19.17,1.94,1.53,1.96,3.55.04,5.12-1.16.95-2.82,1.46-4.9,1.47Z"/>
  <path class="cls-1" d="m226.93,59.05c-1.61.11-3.17-.33-4.52-1.36-1.95-1.47-1.98-3.64-.13-5.18,2.5-2.08,7.29-2,9.69.17,1.64,1.48,1.65,3.29-.03,4.74-1.4,1.21-3.08,1.7-5.01,1.63Z"/>
  <path class="cls-1" d="m265.29,18.5c0,1.42-.09,2.86.03,4.27.11,1.32-.38,1.7-1.61,1.49-.53-.09-1.1-.09-1.63,0-1.17.2-1.34-.37-1.31-1.37.08-2.85-.02-5.7.11-8.55.07-1.51-.36-2.12-1.93-1.87-.67.11-1.71.65-1.68-.88.02-1.53,1.12-.86,1.75-.87,2.72-.06,5.44-.04,8.16-.02.66,0,1.57-.39,1.57.91,0,1.27-.79,1.02-1.52.89-1.6-.29-2.21.3-2.06,1.94.13,1.35.03,2.71.03,4.07.03,0,.06,0,.09,0Z"/>
  <path class="cls-1" d="m252,60.98c4.08-3.04,7.73-5.83,11.45-8.52,1.39-1,3.09-1.05,4.73-.74,1.02.19,2.02.67,2.21,1.85.2,1.22-.66,1.89-1.63,2.31-3.56,1.52-7.19,2.91-10.72,4.51-1.83.83-3.62.79-6.05.59Z"/>
  <path class="cls-1" d="m284.5,17.41c0-1.77.08-3.55-.03-5.31-.07-1.2.34-1.57,1.47-1.41.54.07,1.1.08,1.63,0,1.17-.17,1.52.27,1.48,1.44-.11,2.86,0,5.72-.15,8.58-.09,1.62.54,2.06,2,1.81.54-.09,1.09-.08,1.63-.15.65-.08,1.03.07,1.05.83.02.75-.15,1.11-1.01,1.1-2.32-.05-4.64-.05-6.96,0-.93.02-1.15-.31-1.12-1.18.06-1.9.02-3.81.02-5.72,0,0-.02,0-.03,0Z"/>
  <path class="cls-1" d="m323.27,81.94c2.29.05,4.19,1.93,4.21,4.16.01,2.31-1.97,4.27-4.34,4.27-2.37,0-4.28-1.93-4.26-4.29.02-2.36,1.96-4.18,4.39-4.14Z"/>
  <path class="cls-2" d="m50.44,83.76c-9.49,0-18.97,0-28.46,0-2.14,0-2.21-.06-1.08-1.9,5.02-8.21,6.98-17.31,8.06-26.7.58-5.06,1.24-10.1,2.76-15,2.45-7.94,8.05-11.81,16.07-12.61,2.93-.29,5.85-.08,8.74.53,7.5,1.6,11.41,6.64,13.31,13.65,1.56,5.73,2.04,11.64,2.84,17.5,1.09,8.04,3.28,15.69,7.55,22.64.97,1.58.72,1.95-1.13,1.94-9.55-.07-19.11-.03-28.66-.03Z"/>
  <path class="cls-2" d="m265.64,76.06c-.11,2.66-.38,5.29-1.55,7.74-1.42,2.96-3.86,4.41-7.06,4.19-2.87-.19-5.09-1.99-6.01-5.04-1.14-3.81-1.08-7.68.08-11.46,1.06-3.48,3.71-5.18,7.48-5.08,3.32.09,5.58,1.93,6.54,5.41.38,1.38.58,2.8.51,4.24Z"/>
  <path class="cls-2" d="m251.57,17.48c-.09,1.21-.07,2.43-.56,3.59-.53,1.25-1.34,1.96-2.77,1.95-1.43-.01-2.32-.75-2.76-1.99-.81-2.3-.84-4.66-.08-6.98.43-1.31,1.3-2.15,2.86-2.14,1.55.01,2.33.87,2.85,2.16.43,1.1.38,2.26.46,3.4Z"/>
  <path class="cls-1" d="m325.12,88.38c-1.36,1.33-2.92,1.37-4.19.1-1.32-1.32-1.31-3.47.01-4.75,1.31-1.26,3.36-1.18,4.55.18,1.25,1.42,1.08,3.25-.42,4.51-.66-.65-1.07-1.44-.91-2.36.14-.84.19-1.46-.9-1.56-1.22-.11-1.28.69-1.3,1.54,0,.27-.02.54.12.95,1.83-1.33,2.11.68,3.04,1.39Z"/>
  <path class="cls-1" d="m325.12,88.38c-.32-.08-.78-.06-.94-.27-.61-.77-1.06-2.82-1.82-.08-.03.11-.33.23-.49.22-.32-.03-.4-.32-.4-.6,0-.95-.08-1.9,0-2.84.13-1.29,1.2-.8,1.92-.83.8-.04,1.85.47,1.52,1.16-.59,1.24.22,2.2.17,3.28,0,0,.04-.04.04-.04Z"/>
  <path class="cls-1" d="m323.11,85.91c-.43-.02-.53-.3-.51-.68.02-.33.22-.47.52-.47.38,0,.7.18.69.57,0,.37-.29.59-.7.58Z"/>
</svg>