<?xml version="1.0" encoding="UTF-8"?>
<svg id="Capa_1" data-name="Capa 1" xmlns="http://www.w3.org/2000/svg" viewBox="0 0 170.08 170.07">
  <defs>
    <style>
      .cls-1 {
        fill: #205ca7;
      }

      .cls-1, .cls-2, .cls-3, .cls-4, .cls-5, .cls-6, .cls-7, .cls-8, .cls-9 {
        stroke-width: 0px;
      }

      .cls-2 {
        fill: #225ba5;
      }

      .cls-3 {
        fill: #1f5ca7;
      }

      .cls-4 {
        fill: #fefdfd;
      }

      .cls-5 {
        fill: #11a69b;
      }

      .cls-6 {
        fill: #fdfdfc;
      }

      .cls-7 {
        fill: #245ba5;
      }

      .cls-8 {
        fill: #fefdfc;
      }

      .cls-9 {
        fill: #f6f7f8;
      }
    </style>
  </defs>
  <path class="cls-5" d="m85.09,170.07C38.42,170.05,1.36,132.92.04,87.75-1.4,38.53,37.96.65,83.65,0c47.55-.67,85.92,37.32,86.42,84.02.51,47.61-37.76,85.99-84.98,86.04Z"/>
  <path class="cls-3" d="m85.05,5.18c44.46.11,80.35,36.38,79.78,80.95-.55,43.41-36.23,79.16-80.67,78.71-43.59-.45-79.43-36.07-78.94-80.73C5.71,40.4,41.19,5.28,85.05,5.18Z"/>
  <path class="cls-4" d="m144.8,85.63c.04,33.33-27.06,60.44-60.45,60.48-33.19.03-60.34-27.09-60.36-60.31-.02-33.49,26.98-60.49,60.48-60.48,33.25,0,60.28,27.03,60.32,60.32Z"/>
  <path class="cls-4" d="m110.92,20.22c-.85,1.9-1.61,3.52-2.3,5.16-.24.57-.49.65-1.06.43-2.37-.93-2.43-.93-1.49-3.15,1.15-2.72,2.4-5.38,3.59-8.08.23-.52.51-.69,1.01-.36.06.04.14.06.21.07,1.71.4,2.5,1.45,2.66,3.23.15,1.78.6,3.53.98,5.56.86-1.92,1.63-3.58,2.35-5.26.22-.52.38-.72,1.02-.43,2.49,1.15,2.5,1.11,1.38,3.58-1.16,2.55-2.33,5.09-3.46,7.66-.23.51-.4.58-.96.4-1.76-.55-2.86-1.43-2.94-3.5-.07-1.69-.59-3.36-.96-5.31Z"/>
  <path class="cls-8" d="m24.6,51.21c2-1.2,4.07-.58,6.23-.7-.63,1.2-1.18,2.22-1.7,3.27-.22.43-.58.38-.94.38-1.18,0-2.36.02-3.55.03-.37,0-.74.02-1.07.22-.78.49-.78.86.02,1.29.94.5,1.88,1.03,2.85,1.47.6.28.62.61.32,1.11-.36.6-.71,1.21-1,1.85-.25.54-.47.67-1.07.34-2.91-1.6-5.83-3.16-8.79-4.67-.77-.39-.92-.75-.49-1.5.95-1.67,1.78-3.4,2.75-5.05,1.23-2.09,2.42-2.71,3.96-2.22,1.82.58,2.54,1.78,2.48,4.18Z"/>
  <path class="cls-4" d="m92.01,17.44c.02-3.96,2.24-6.48,5.7-6.46,4.13.02,6.61,2.2,6.58,5.81-.03,3.96-2.27,6.59-5.64,6.54-4.13-.06-6.87-2.38-6.64-5.88Z"/>
  <path class="cls-4" d="m30.41,35.33c3.08.02,6.47,3.31,6.46,6.29-.01,3.14-3.25,6.53-6.22,6.52-3.22,0-6.52-3.23-6.49-6.33.03-3.19,3.23-6.5,6.25-6.48Z"/>
  <path class="cls-4" d="m49.72,32.12c-.29.03-.34-.19-.42-.33-1.77-3.15-3.52-6.31-5.29-9.46-.23-.4-.09-.57.27-.77,2.53-1.38,5.05-2.76,7.56-4.17.46-.26.57-.13.79.28.91,1.66.93,1.65-.72,2.58-.93.52-1.86,1.06-2.82,1.53-.67.33-.94.59-.49,1.39.47.83.9.61,1.48.28,1.08-.63,2.2-1.21,3.26-1.88.56-.35.9-.38,1.15.29.12.31.26.62.44.89.32.47.14.66-.31.9-1.24.65-2.43,1.41-3.68,2.03-.58.29-.69.55-.32,1.05.17.24.32.5.43.77.22.55.48.6,1,.29,1.39-.83,2.84-1.57,4.24-2.39.48-.28.69-.29.99.26.97,1.77.99,1.73-.82,2.7-2.08,1.12-4.13,2.28-6.2,3.43-.19.11-.38.23-.53.32Z"/>
  <path class="cls-6" d="m71.12,15.93c0-2.75,1.29-4.59,3.76-5.36,2.95-.92,5.3-.29,6.78,1.74.52.71.52,1.13-.44,1.32-.32.06-.62.23-.93.35-.67.27-1.23.46-1.78-.37-.49-.74-1.36-.81-2.21-.53-.9.3-1.38.98-1.52,1.88-.17,1.11.02,2.21.38,3.27.33.97,1.01,1.55,2.07,1.5,1.06-.05,1.91-.52,2.11-1.61.16-.91.56-1.06,1.33-.79.21.07.44.07.65.11,1.62.3,1.75.59,1.03,2.15-.35.75-.82,1.41-1.54,1.84-2.1,1.25-4.37,1.58-6.56.52-2.43-1.17-3.17-3.45-3.14-6.02Z"/>
  <path class="cls-4" d="m67.89,15.29c-.55.34-1.05.63-1.54.96-.68.46-1.21.76-2.07.05-1.19-.99-3.16.07-3.27,1.65-.1,1.45.4,2.78,1.21,3.94.53.76,1.35.96,2.27.65.97-.33,1.62-.95,1.59-2-.03-.79.23-1.07.99-.96.29.04.59,0,.88,0,1.59-.02,1.73.16,1.35,1.77-.55,2.33-2.46,3.78-5.51,4.18-2.16.28-4.16-.77-5.29-2.85-.32-.58-.58-1.2-.78-1.83-1.41-4.57,2.53-8.73,7.24-7.66,1.23.28,2.15,1.06,2.92,2.11Z"/>
  <path class="cls-6" d="m136.07,33.94c-.84-.4-1.63-.79-2.44-1.14-.46-.2-.41-.52-.34-.91.19-1.07-.32-1.77-1.2-2.27-.88-.5-1.72-.31-2.47.28-.88.7-1.56,1.56-2.06,2.57-.42.85-.35,1.67.33,2.34.67.65,1.54,1.14,2.39.58,1.22-.81,1.61-.02,2.14.81.99,1.54.98,1.62-.77,2.28-.77.29-1.58.44-2.39.2-2.36-.71-4.21-2.1-4.97-4.48-.72-2.24.16-4.23,1.72-5.88,3.17-3.36,7.67-2.73,9.94,1.37.75,1.35.61,2.76.13,4.24Z"/>
  <path class="cls-4" d="m15.44,59.89c2.88.01,4.52,2.19,3.8,4.99-.21.83-1.03,1.77-.54,2.43.41.55,1.52.58,2.33.84q1.58.52,1.09,2.12c-.6,1.96-.6,1.94-2.5,1.31-2.83-.94-5.67-1.86-8.51-2.76-.64-.2-.88-.4-.6-1.14.65-1.76,1.15-3.57,1.78-5.34.62-1.72,1.64-2.47,3.15-2.46Z"/>
  <path class="cls-8" d="m142.09,49.45c2.75-.85,5.21-1.58,7.65-2.37.63-.2.99-.16,1.33.46.44.8,1.01,1.52,1.61,2.4-2.87.69-5.62,1.35-8.36,2.01-1.04.25-2.1.44-3.11.77-.64.21-.91-.01-1.25-.49-1.84-2.62-1.83-2.6.05-5.18,1.69-2.32,3.35-4.67,4.99-7.03.37-.53.56-.59.98-.02,1.77,2.37,1.77,2.34-.04,4.55-1.25,1.53-2.44,3.1-3.85,4.9Z"/>
  <path class="cls-8" d="m42.44,37.66c-.43-.03-.55-.38-.73-.63-1.42-1.89-2.85-3.77-4.22-5.69-.45-.63-.82-.75-1.34-.13-.12.14-.28.24-.43.35-1.86,1.43-1.85,1.42-3.17-.49-.28-.41-.25-.59.13-.87,2.66-1.99,5.31-3.98,7.95-6.01.38-.29.49-.19.75.13,1.44,1.77,1.49,1.81-.4,3.22-.87.65-1.19,1.05-.33,2.05,1.44,1.67,2.64,3.55,4.03,5.28.5.62.34.89-.21,1.27-.7.48-1.36,1.01-2.02,1.52Z"/>
  <path class="cls-4" d="m148.9,72.43c-.33.05-.48-.08-.58-.38-.82-2.67-1.63-5.35-2.47-8.02-.13-.41.05-.52.38-.62,3.45-1.04,6.9-2.08,10.35-3.14.45-.14.56.03.65.44.23.96.95,2.07.66,2.81-.22.57-1.66.68-2.57.96-1.65.51-3.31,1.01-4.97,1.49-.56.16-.76.36-.53,1.01.45,1.24.75,2.54,1.18,3.79.24.69.2,1.08-.62,1.21-.5.08-.98.3-1.47.45Z"/>
  <path class="cls-4" d="m144.8,61.11c-.68-.82-.97-1.9-1.46-2.85-.31-.59.32-.62.64-.78.82-.41,1.65-.81,2.49-1.2,2.2-1.02,4.42-2,6.61-3.06.65-.32.9-.25,1.22.42,1.18,2.48,1.21,2.47-1.25,3.63-2.46,1.16-4.93,2.31-7.4,3.47-.23.11-.47.21-.83.37Z"/>
  <path class="cls-6" d="m143.25,36.78c.01.34-.22.44-.37.58-2.51,2.27-5.05,4.51-7.54,6.8-.62.57-1.01.56-1.46-.12-.47-.73-1.63-1.25-1.51-2,.1-.66,1.11-1.19,1.74-1.76,2.08-1.87,4.18-3.72,6.25-5.59.38-.35.64-.5,1.03,0,.48.61,1.04,1.14,1.56,1.71.12.13.23.28.31.37Z"/>
  <path class="cls-4" d="m88.99,15.98c0,1.7-.03,3.39.01,5.09.01.64-.21.79-.82.81-2.86.08-2.86.09-2.86-2.75,0-2.73.03-5.46-.02-8.19-.01-.74.23-.91.94-.92,2.74,0,2.74-.03,2.74,2.75,0,1.07,0,2.14,0,3.21Z"/>
  <path class="cls-9" d="m102.3,8.69c-1.59.71-2.5,2.32-4.34,1.65,1.05-2.21,1.3-2.31,4.34-1.65Z"/>
  <path class="cls-5" d="m84.09,141.7c-30.94-.26-55.81-25.35-55.69-56.27.12-30.9,25.49-56.06,56.67-55.72,30.34.34,55.53,25.23,55.32,56.51-.21,30.62-25.46,55.58-56.29,55.48Z"/>
  <path class="cls-2" d="m21.98,51.89c-.26.78-.43,1.72-1.27,2.24-.25.15-1.85-.98-1.84-1.19.04-.79,1.46-2.39,2.07-2.33.61.06,1.08.6,1.04,1.28Z"/>
  <path class="cls-1" d="m100.69,16.81c-.04.68-.19,1.54-.58,2.35-.52,1.09-1.43,1.54-2.62,1.3-1.04-.21-1.77-1.05-1.87-2.16-.07-.82.05-1.62.26-2.4.42-1.56,1.4-2.28,2.77-2.08,1.41.21,2.09,1.13,2.05,2.99Z"/>
  <path class="cls-1" d="m29.75,38.71c1.35.03,3.7,2.02,3.94,3.34.28,1.51-1.3,3.04-2.8,2.69-1.54-.36-2.62-1.37-3.34-2.69-.78-1.44.54-3.37,2.2-3.33Z"/>
  <path class="cls-7" d="m15.45,63.45c.72.06,1.26.49,1.18,1.33-.06.63.02,1.69-.77,1.65-.67-.04-1.86-.05-2.05-.99-.19-.94.78-1.97,1.64-1.98Z"/>
  <path class="cls-3" d="m84.83,37.24c1.5,2.73,2.95,5.33,4.38,7.94,3.57,6.51,7.13,13.03,10.7,19.55,3.82,6.97,7.63,13.94,11.45,20.9,4.32,7.87,8.64,15.73,12.96,23.59.14.26.27.52.4.79q.89,1.76-1.14,1.76c-26.12,0-52.24,0-78.36,0-1.25,0-1.27-.01-.66-1.13,3.25-5.94,6.52-11.86,9.77-17.8,3.44-6.28,6.87-12.58,10.32-18.86,5.08-9.26,10.17-18.51,15.25-27.77,1.45-2.64,2.89-5.3,4.34-7.94.17-.31.35-.62.59-1.04Z"/>
</svg>