<?xml version="1.0" encoding="UTF-8"?>
<svg id="Layer_1" data-name="Layer 1" xmlns="http://www.w3.org/2000/svg" viewBox="0 0 92.81 148.57">
  <defs>
    <style>
      .cls-1 {
        fill: #306685;
      }

      .cls-1, .cls-2, .cls-3 {
        stroke-width: 0px;
      }

      .cls-2 {
        fill: #16b9a2;
      }

      .cls-3 {
        fill: #fff;
      }
    </style>
  </defs>
  <path class="cls-2" d="m1.04,0h91.25c.45.72.25,1.53.25,2.3.01,29.44,0,58.88,0,88.32,0,.69.1,1.4-.17,2.07-1.2,1.44-2.88,1.02-4.38,1.03-14.58.05-29.17.02-43.75.03H6.22c-1.21,0-2.44.05-3.64-.14-1.27-.2-2.03-.9-2.04-2.27,0-.7-.02-1.39-.02-2.09,0-28.57,0-57.13,0-85.7C.53,2.36.23,1.09,1.04.01h0Z"/>
  <path class="cls-2" d="m1.04,148.57c-.53-2.59.44-3.24,3.08-3.23,28.19.11,56.38.11,84.58,0,2.64,0,3.62.63,3.07,3.23H1.04Z"/>
  <path class="cls-2" d="m92.81,109.34c-2.04,5.1-5.08,6.71-10.67,5.8-.94-.15-1.11-.55-1.11-1.35.02-3.99.01-7.98.02-11.96,0-.63.05-1.29.9-1.28,2.65.04,5.36-.4,7.84,1.03,1.8,1.03,2.18,2.97,3.01,4.62v3.14h.01Z"/>
  <path class="cls-2" d="m0,103.58c1.6-2.81,3.17-3.64,5.97-3.1,1.85.35,3.09,1.16,2.28,3.46-1.13-.11-2.08-1.04-3.32-.9-.71.08-1.5.02-1.73.81-.25.87.25,1.46,1.08,1.8.56.23,1.08.52,1.61.81,2.82,1.5,3.88,3.95,2.77,6.41-.9,2-3.7,2.96-6.34,2.11-.65-.21-1.23-.61-1.84-.92-.24-1.91,1.16-2.91,4.2-2.99-2.55-1.43-4.53-2.74-4.67-5.4v-2.09h0Z"/>
  <path class="cls-1" d="m0,105.68c.73,1.87,2.18,2.93,3.96,3.71,1.02.45,2.61.92,1.92,2.47-.62,1.39-2.09.79-3.21.5-.64-.16-1.2-.62-1.93-1.03-.51.93-.26,1.85-.25,2.73-.16,0-.32,0-.47-.01v-8.37h-.02Z"/>
  <path class="cls-3" d="m58.91,47.6c.52-.71,1.28-.38,1.92-.38,7.12-.03,14.24.05,21.36-.06,1.82-.03,2.39.46,2.26,2.31-1.1,15.88-12.74,32.09-30.26,35.25-13.44,2.42-24.92-1.57-34.44-11.33-.39-2-1.86-3.35-3.12-4.7-3.16-3.4-4.08-7.7-5.16-11.93-.62-2.41-.97-4.9-1.18-7.42-.16-1.85.49-2.02,1.96-2.01,8.68.04,17.36,0,26.04.03,1.81,0,3.62-.13,5.42-.19,4.02,2.73,7.11,6.37,9.35,10.63,2.28,4.34,1.42,9-1.79,12.29-3.57,3.65-8.37,4.64-12.88,2.58-2.14-.97-4.07-2.25-5.28-3.58,2.18,2.89,4.87,6,9.29,6.98,8.92,1.98,18.11-2.95,20.25-11.2,1.27-4.91.48-9.66-2.31-14-.65-1.01-1.53-1.93-1.42-3.28h-.01Z"/>
  <path class="cls-3" d="m43.66,48.15c-.6-.4-1.26-.55-1.98-.55H11.2c-.25,3.62.24,7.31,1.29,10.35,1.31,3.82,1.55,8.64,5.68,11.12,1.76,1.05,1.74,2.62,1.58,4.31-5.88-5.09-8.52-11.87-9.8-19.28-1.19-6.89-1.07-6.91,5.8-6.91h26.73c-4.38-4.04-8.18-7.86-11.65-12.07-8.66-10.52-3.18-24.02,9.59-27.02,8.46-1.99,16.66-.91,24.18,3.84,1.47.93,1.83,1.62.36,3.06-4.34,4.22-7,4.64-13,1.31-2.57-1.43-5.1-2-7.95-1.11-5.37,1.67-7.7,6.97-5.17,12.02,1.18,2.36,3.03,4.23,4.8,6.14,4.09,4.41,8.63,8.33,13.16,12.27.59.51,1.7.71,1.44,1.9-.66,1.17-1.81,1.16-2.93,1.17-3.9.05-7.81.25-11.67-.54h.02Z"/>
  <path class="cls-2" d="m43.66,48.15c.06-.96.8-.74,1.35-.74,4.41.02,8.83.07,13.24.11.22.02.44.05.66.07,5.31,5.13,6.98,13.65,3.94,20.13-3.2,6.84-10.81,10.66-19.34,9.72-5.79-.64-11.32-5.7-12.6-11.65,2.2,2.01,4.22,4.02,6.78,5.37,4.93,2.61,9.84,1.84,13.42-2.17,2.83-3.17,2.95-8.39.03-12.56-2.14-3.05-4.6-5.88-7.48-8.28Z"/>
  <path class="cls-2" d="m64.85,128.31c0,2.15.03,4.3-.01,6.45-.02.95.41,2.14-1.35,2.2-2.01.06-1.42-1.33-1.43-2.32-.05-3.4-.05-6.8,0-10.2,0-.67-.56-1.73.54-1.98.97-.22,1.99-.27,2.74.86,1.66,2.49,3.47,4.89,5.63,7.9,0-2.8.02-4.92-.01-7.05-.02-1.03-.06-1.8,1.42-1.83,1.58-.03,1.61.76,1.59,1.93-.05,3.57,0,7.15-.04,10.72,0,.7.39,1.69-.79,1.9-.89.15-1.66.02-2.25-.86-1.79-2.64-3.66-5.23-5.5-7.84-.18.04-.36.08-.54.13h0Z"/>
  <path class="cls-2" d="m29.2,136.7c-2.34.67-3.57.03-3.92-2.04-.01-.08-.09-.15-.12-.23-.58-1.39-.73-3.67-2.57-3.35-1.49.26-.43,2.35-.67,3.61-.19.98.51,2.33-1.48,2.29-1.92-.04-1.45-1.33-1.46-2.36-.03-3.48.04-6.96-.04-10.43-.03-1.32.31-1.93,1.72-1.8,1.12.1,2.25.05,3.38.01,1.65-.05,2.81.68,3.53,2.13.75,1.51.91,3.12-.31,4.36-.92.94-.75,1.52-.22,2.54.86,1.66,1.44,3.47,2.16,5.28h0Z"/>
  <path class="cls-2" d="m39.02,104.41c-1.61-.64-3.14-1.2-4.81-1.04-2.29.22-3.84,2-3.89,4.45-.04,2.29,1.41,4.22,3.49,4.53.94.14,2.07.18,2.55-.77.47-.92,0-1.52-1.14-1.76-.67-.14-.35-1.05-.35-1.62,0-.69.53-.94,1.07-.79,1.13.31,2.74-.91,3.36.92.73,2.18-.07,5.44-1.38,6.13-2.95,1.56-7,.76-8.95-1.77-2.08-2.69-2-7.44.18-9.95,2.05-2.36,6.43-3.14,9.09-1.66,1.49.83.72,2.09.77,3.31v.02Z"/>
  <path class="cls-2" d="m62.68,114.88c-2.25.66-3.6.19-3.88-2.11-.05-.42-.26-.83-.45-1.22-.51-1.07-.86-2.64-2.4-2.17-1.24.38-.41,1.81-.59,2.75-.1.5-.07,1.05,0,1.56.16,1.2-.41,1.45-1.5,1.45s-1.3-.44-1.29-1.4c.04-3.92,0-7.84.03-11.75,0-.41.1-1.14.27-1.17,2.03-.43,4.1-.52,6.12.05,1.61.45,2.33,1.69,2.53,3.28.04.34.15.8,0,1.03-2.57,3.52.26,6.43,1.17,9.71h0Z"/>
  <path class="cls-2" d="m42.46,129.69v5.22c0,1.07.13,2.07-1.52,2.06-1.58,0-1.3-1-1.32-1.92,0-.35-.05-.71,0-1.04.44-2.45-.42-3.23-3.01-3.2-2.52.03-3.49.71-3.07,3.21.08.51-.02,1.04,0,1.56.05,1-.39,1.37-1.39,1.37-.94,0-1.45-.19-1.44-1.27.04-4,.04-8,0-12-.01-1.07.42-1.33,1.38-1.29.85.03,1.57.04,1.47,1.21-.06.6.08,1.23-.03,1.82-.43,2.37.62,2.77,2.82,2.86,2.75.11,3.64-.73,3.31-3.41-.12-.93-.85-2.57,1.41-2.5,2.23.07,1.25,1.66,1.34,2.63.14,1.55.04,3.13.04,4.69h0Z"/>
  <path class="cls-2" d="m70.13,107.79v-.78c0-7.2,0-7.18,7.21-6.49.94.09,1.39.27,1.42,1.33.02,1.09-.45,1.34-1.39,1.29-.87-.05-1.75.07-2.6-.02-1.34-.14-1.79.3-1.8,1.71-.01,1.52.8,1.45,1.81,1.41.87-.03,1.74,0,2.61,0,1.13-.02.88.81.92,1.46.04.67-.04,1.23-.93,1.2-.78-.02-1.58.08-2.34-.02-1.57-.21-2.06.32-2.08,1.98-.02,1.82.94,1.69,2.11,1.64.78-.03,1.57.04,2.35-.02.97-.07,1.4.21,1.38,1.28-.02.97-.22,1.52-1.29,1.37-.09-.01-.17,0-.26,0-4.73.27-7.1-2.17-7.1-7.32l-.02-.02Z"/>
  <path class="cls-2" d="m45.31,129.73v-1.05c0-6.86.5-7.27,7.33-6.32.93.13,1.11.46,1.13,1.29.02.97-.22,1.47-1.3,1.38-.95-.08-1.92.05-2.86-.03-1.27-.12-1.63.39-1.61,1.64.03,1.13.36,1.59,1.5,1.5.86-.07,1.74.02,2.6-.02.91-.03,1.47.16,1.44,1.28-.02.98-.31,1.46-1.35,1.38-.78-.05-1.57.04-2.34-.02-1.21-.09-1.93.09-1.87,1.64.05,1.4.33,2.14,1.89,1.97.86-.1,1.74,0,2.6-.02.76-.02,1.37.04,1.33,1.08-.03.87-.09,1.54-1.23,1.51-2-.05-4-.06-5.99,0-1.1.03-1.3-.53-1.29-1.45.03-1.92,0-3.84,0-5.75h.02Z"/>
  <path class="cls-2" d="m16.98,107.74c0-1.83.07-3.66-.02-5.49-.07-1.4.51-1.81,1.83-1.74,1.73.09,3.47.06,5.21,0,1.04-.03,1.58.18,1.59,1.41,0,1.19-.62,1.22-1.47,1.19-.78-.03-1.56.01-2.34,0-1.07-.03-1.98-.16-2,1.51-.02,1.58.72,1.68,1.88,1.61.69-.04,1.39.03,2.08-.02.94-.07,1.39.19,1.44,1.27.05,1.25-.51,1.49-1.55,1.4-.6-.05-1.22.04-1.82-.02-1.31-.13-1.99.09-2.04,1.74-.05,1.81.73,2.01,2.15,1.88.86-.08,1.74.03,2.6-.02,1.03-.07,1.08.54,1.07,1.31,0,.75,0,1.37-1.05,1.35-2.17-.05-4.34-.04-6.51,0-1.04.02-1.06-.62-1.05-1.37.01-2,0-4.01,0-6.01Z"/>
  <path class="cls-2" d="m42.11,107.77v-1.3c0-6.63,0-6.61,6.65-5.96,1.01.1,1.31.4,1.36,1.38.05,1.14-.53,1.28-1.42,1.24-.69-.04-1.39.06-2.07-.02-1.35-.16-1.8.35-1.79,1.73,0,1.31.33,1.95,1.74,1.8.77-.08,1.56.03,2.33-.02.9-.06,1.21.32,1.19,1.21-.02.82-.21,1.25-1.15,1.32-1.32.1-3.13-.72-3.85.49-.62,1.03-.27,2.69-.19,4.07.06,1.19-.42,1.45-1.51,1.44-1.04-.01-1.33-.41-1.3-1.39.05-1.99.02-3.99.02-5.99h-.01Z"/>
  <path class="cls-2" d="m59.19,129.62c0,1.91-.06,3.82.02,5.73.05,1.28-.48,1.61-1.68,1.63-1.39,0-1.24-.85-1.24-1.72,0-3.73.03-7.47-.02-11.2,0-1.1.08-1.74,1.48-1.72,1.43.02,1.48.76,1.45,1.81-.04,1.82,0,3.65,0,5.47Z"/>
  <path class="cls-2" d="m67.28,108.05c0,1.9-.03,3.81.02,5.71.02.94-.17,1.45-1.26,1.38-.91-.06-1.69.03-1.67-1.3.06-3.98.06-7.96.01-11.94-.01-1.2.54-1.38,1.57-1.43,1.3-.06,1.36.64,1.34,1.6-.03,1.99,0,3.98,0,5.97h0Z"/>
  <path class="cls-2" d="m11.3,107.77c0-1.9.03-3.81,0-5.71-.02-1.04.25-1.55,1.44-1.57,1.25-.02,1.39.59,1.38,1.59-.03,3.9-.03,7.79,0,11.69,0,.96-.23,1.4-1.29,1.38-1.01-.02-1.61-.15-1.56-1.4.09-1.99.02-3.98.03-5.97h0Z"/>
  <path class="cls-1" d="m83.95,107.8c0-.69-.07-1.39.02-2.07.12-.86-.54-2.11.56-2.5,1.12-.4,2.41-.17,3.47.52,2.41,1.57,2.36,6.54-.02,8.19-1.11.77-2.39.76-3.47.43-1.12-.34-.4-1.63-.54-2.49-.11-.68-.02-1.38-.02-2.07h0Z"/>
  <path class="cls-2" d="m58.96,14.17c-1.02.07-1.42-.63-1.45-1.43-.02-.7.4-1.28,1.26-1.33.95-.06,1.53.41,1.57,1.28.03.82-.39,1.49-1.38,1.48Z"/>
  <path class="cls-1" d="m21.92,126.74c-.1-1-.13-1.86,1.35-1.74,1.12.09,1.75.44,1.76,1.65.01,1.28-.78,1.5-1.81,1.62-1.27.15-1.42-.54-1.3-1.53Z"/>
  <path class="cls-1" d="m55.32,104.86c-.11-1.03-.03-1.9,1.42-1.77,1.1.1,1.82.53,1.88,1.69.06,1.3-.69,1.81-1.91,1.92-1.49.13-1.45-.81-1.38-1.84h0Z"/>
  <rect class="cls-2" x=".9" y="144.24" width="90.87" height="4.33"/>
  <polygon class="cls-2" points="35.15 107.09 38.81 107.09 39.31 108.33 37.78 109.61 35.15 109.09 34.91 107.95 35.15 107.09"/>
  <polygon class="cls-2" points="4.55 89.01 92.55 89.01 92.55 93.76 .48 93.76 .48 88.24 4.55 89.01"/>
  <path class="cls-2" d="m.48,93.22V0h92.33l-.27,3.48L3.02,1.44l-.56,89.57-1.99,2.22h0Z"/>
  <polygon class="cls-2" points="92.81 0 92.81 93.76 89.79 93.76 90.42 11.41 92.81 0"/>
</svg>