<svg width="237" height="61" viewBox="0 0 237 61" fill="none" xmlns="http://www.w3.org/2000/svg">
<path d="M43.2637 23.7C41.3499 25.6429 37.56 29.3 34.5205 32.3476C27.3533 38.9762 27.2408 43.2429 27.616 45.2238C22.3251 38.9762 26.5278 34.2524 29.192 31.6238C30.4303 30.4048 38.0103 22.8238 39.7739 21.1476C45.9279 15.2048 45.9279 13.4143 45.9279 13.4143C48.292 18.9762 45.1774 21.7572 43.2637 23.7ZM43.0761 32.9572C41.1999 34.8238 41.9503 34.0619 38.9109 37.0715C33.9576 41.9477 33.9576 45.1858 33.9576 45.1858C31.2184 42.1381 32.907 37.0334 35.8714 34.1C37.1097 32.881 39.3987 30.6715 41.0122 29.1095C44.3519 25.9095 45.4026 24.9572 45.8529 23.7381C47.1287 29.1476 44.3519 31.6238 43.0761 32.9572ZM22.6253 29.1095C23.9761 27.7762 32.7193 19.1286 34.3704 17.4905C39.7739 12.1952 39.5113 10.5191 39.5113 10.5191C41.8378 16.1191 38.6482 19.1667 36.7344 21.0714C34.6331 23.1667 29.3421 28.4238 26.3027 31.4334C18.6477 39.0524 21.387 45.1858 21.387 45.1858C16.5463 41.5667 17.6345 34.0619 22.6253 29.1095ZM19.4732 23.1286C20.8616 21.7572 28.2539 14.4429 30.7681 11.9667C36.0215 6.78572 35.7213 4.72858 35.9464 3.66191C39.6238 7.47143 37.3724 11.3572 35.3836 13.3762C33.6199 15.1286 25.4021 23.5095 22.0624 26.5953C21.1993 27.3953 15.6832 32.5 16.0585 37.2619C12.944 33.3 13.7695 28.2714 19.4732 23.1286ZM12.6813 21.0333C13.9196 19.7381 23.3382 10.481 24.9142 8.84286C28.8168 4.88095 28.0288 1.71905 28.0288 1.71905C32.5317 5.18572 30.8806 8.91905 28.4415 11.3191C26.4527 13.2619 19.4357 20.3857 16.2086 23.5476C11.0677 28.5381 11.6681 32.6524 12.6438 36.1953C8.89131 32.2715 7.16519 26.8238 12.6813 21.0333ZM28.2539 0.5C12.7188 0.5 0.110596 13.2238 0.110596 28.9191C0.110596 43.4334 10.8426 55.3953 24.7641 57.1096V53.1096C20.1111 52.4239 15.4956 50.8238 12.4186 46.5572H44.1643C41.0873 50.8238 36.4342 52.4239 31.8187 53.1096V57.1477C45.7028 55.3953 56.4723 43.4334 56.4723 28.9572C56.3972 13.2238 43.789 0.5 28.2539 0.5Z" fill="white"/>
<path d="M94.6343 17.8332C95.9851 17.8332 97.2985 17.7951 98.6494 17.757C99.1372 17.757 99.2873 17.6427 99.2873 17.1475C99.2873 15.6237 98.5368 14.138 97.1859 14.138C96.0227 14.1761 94.8969 15.5094 94.6343 17.8332ZM102.402 23.6618C100.601 26.1761 98.3867 26.7856 97.2985 26.7856C93.5085 26.7856 91.3696 23.8523 91.3696 20.4237C91.3696 18.2142 92.2327 16.3856 93.471 15.1284C94.7468 13.7951 96.3604 12.9951 97.8989 12.9951H97.9364C100.563 12.9951 102.589 15.2808 102.589 17.6427C102.589 18.2523 102.402 18.557 101.801 18.6713C101.314 18.7475 97.6737 19.0142 94.5592 19.1284C94.6343 22.6332 96.5855 24.2713 98.6869 24.2713C99.8502 24.2713 100.938 23.8523 101.989 22.8999L102.402 23.6618Z" fill="white"/>
<path d="M115.235 23.6237C113.922 25.4523 111.971 26.7856 110.207 26.7856C106.304 26.7856 104.015 23.738 104.015 20.538C104.015 18.3285 105.066 16.2713 106.98 14.8237C108.743 13.4904 110.62 13.0332 111.745 13.0332H111.783C112.871 13.0332 113.847 13.3761 114.335 13.757C114.747 14.0999 114.86 14.3665 114.86 14.7856C114.822 15.5475 114.109 16.2713 113.697 16.2713C113.509 16.2713 113.359 16.1951 113.096 15.9284C112.008 14.938 111.032 14.5189 110.132 14.5189C108.706 14.5189 107.242 15.8523 107.242 19.0142C107.242 23.0142 110.019 24.3094 111.445 24.3094C112.684 24.3094 113.547 23.9665 114.747 22.938L115.235 23.6237Z" fill="white"/>
<path d="M124.429 26.4046V25.5285C125.855 25.338 126.005 25.1856 126.005 23.1284V18.0999C126.005 16.0046 125.142 15.0904 123.753 15.0904C122.853 15.0904 122.027 15.5475 121.202 16.2332V23.3189C121.202 25.2237 121.389 25.338 122.778 25.5285V26.4046H115.948V25.5285C117.824 25.2999 117.975 25.1856 117.975 23.2427V17.1094C117.975 15.2808 117.824 15.1665 116.323 14.8999V14.138C117.9 13.9094 119.626 13.5285 121.202 12.9951V15.2427C121.802 14.8237 122.402 14.3665 123.078 13.9094C123.941 13.338 124.579 13.0332 125.442 13.0332C127.806 13.0332 129.269 14.7475 129.269 17.6808V23.357C129.269 25.2618 129.457 25.338 131.033 25.5666V26.4427H124.429" fill="white"/>
<path d="M135.874 19.1284C135.874 22.8237 137.187 25.6427 139.251 25.6427C140.639 25.6427 141.915 24.6904 141.915 20.4237C141.915 16.5761 140.752 14.0618 138.576 14.0618C137.187 14.0999 135.874 15.7761 135.874 19.1284ZM145.63 19.6618C145.63 24.4237 142.215 26.7856 138.951 26.7856C134.523 26.7856 132.234 23.4713 132.234 20.1951C132.234 15.3951 135.986 12.9951 139.101 12.9951C142.966 12.9951 145.63 16.0427 145.63 19.6618Z" fill="white"/>
<path d="M146.455 26.4045V25.5284C148.256 25.2998 148.444 25.1474 148.444 23.2045V9.45215C148.444 7.54739 148.294 7.5093 146.568 7.28073V6.48073C148.219 6.29025 150.283 5.8712 151.671 5.45215V23.2045C151.671 25.1855 151.859 25.3379 153.698 25.5284V26.4045H146.455Z" fill="white"/>
<path d="M160.452 11.4714C160.94 10.1761 161.878 7.2428 162.103 6.67138C162.404 6.4809 164.58 6.25232 165.03 6.32851L165.18 6.63328L161.353 11.8523L160.452 11.4714ZM158.426 19.1285C158.426 22.8238 159.739 25.6428 161.803 25.6428C163.192 25.6428 164.467 24.6904 164.467 20.4238C164.467 16.5761 163.304 14.0619 161.128 14.0619C159.739 14.1 158.426 15.7761 158.426 19.1285ZM168.182 19.6619C168.182 24.4238 164.768 26.7857 161.503 26.7857C157.075 26.7857 154.786 23.4714 154.786 20.1952C154.786 15.3952 158.539 12.9952 161.653 12.9952C165.518 12.9952 168.182 16.0428 168.182 19.6619Z" fill="white"/>
<path d="M173.548 17.4142C173.548 19.5856 174.374 21.2618 175.837 21.2618C177 21.2618 177.826 20.0808 177.826 17.8332C177.826 15.738 177.038 14.0618 175.499 14.0618C174.524 14.0237 173.548 15.2046 173.548 17.4142ZM173.398 27.5475C172.835 28.0427 172.497 28.6523 172.497 29.3761C172.497 30.8999 174.036 32.2332 176.325 32.2332C178.726 32.2332 180.077 30.938 180.077 29.2618C180.077 28.1951 179.439 27.5475 178.539 27.2427C177.788 27.0142 177.075 26.938 175.874 26.938C174.486 26.938 173.848 27.0904 173.398 27.5475ZM183.117 13.6046C182.929 14.0999 182.366 15.0142 181.841 15.3189L180.152 15.2046C180.64 15.8142 180.978 16.6142 180.978 17.6046C180.978 20.7665 178.276 22.2904 175.537 22.2904C175.049 22.2904 174.524 22.2142 174.073 22.138C173.773 22.3666 173.473 22.7475 173.473 23.1284C173.473 23.6237 173.961 24.2713 175.349 24.2332C176.362 24.2332 177.263 24.1951 178.201 24.1951C180.04 24.1951 182.629 24.7285 182.629 27.7761C182.629 31.0904 178.876 33.8332 174.974 33.8332C171.372 33.8332 169.645 31.8904 169.608 30.2142C169.608 29.5285 169.946 29.0332 170.471 28.538C171.146 27.9285 172.047 27.357 172.722 26.8618C171.559 26.4808 170.921 25.8713 170.546 25.2237C170.246 24.7665 170.096 24.1189 170.133 23.7761C171.559 23.2427 172.497 22.4427 172.985 21.8713C171.372 21.2999 170.208 19.8142 170.208 17.9094C170.208 14.557 173.248 12.9951 175.724 12.9951H175.762C176.888 12.9951 177.751 13.2618 178.801 13.757C180.265 13.6808 181.803 13.5285 182.929 13.3761L183.117 13.6046Z" fill="white"/>
<path d="M185.218 8.99461C185.218 7.92794 186.081 7.08984 187.094 7.08984C188.108 7.08984 188.933 7.92794 188.933 8.99461C188.933 9.98508 188.108 10.8613 187.057 10.8613C186.081 10.8613 185.218 9.98508 185.218 8.99461ZM183.717 26.4041V25.528C185.481 25.3375 185.669 25.1851 185.669 23.1279V17.147C185.669 15.2422 185.518 15.1279 183.98 14.8994V14.0613C185.669 13.8708 187.432 13.4518 188.933 12.9565V23.0899C188.933 25.1089 189.083 25.2994 190.884 25.4899V26.366H183.717V26.4041Z" fill="white"/>
<path d="M203.192 23.6237C201.879 25.4523 199.928 26.7856 198.164 26.7856C194.262 26.7856 191.973 23.738 191.973 20.538C191.973 18.3285 193.023 16.2713 194.937 14.8237C196.701 13.4904 198.577 13.0332 199.703 13.0332H199.74C200.828 13.0332 201.804 13.3761 202.292 13.757C202.705 14.0999 202.817 14.3665 202.817 14.7856C202.78 15.5475 202.067 16.2713 201.654 16.2713C201.466 16.2713 201.316 16.1951 201.054 15.9284C199.965 14.938 198.99 14.5189 198.089 14.5189C196.663 14.5189 195.2 15.8523 195.2 19.0142C195.2 23.0142 197.977 24.3094 199.403 24.3094C200.641 24.3094 201.504 23.9665 202.705 22.938L203.192 23.6237Z" fill="white"/>
<path d="M207.733 19.1284C207.733 22.8237 209.046 25.6427 211.11 25.6427C212.498 25.6427 213.774 24.6904 213.774 20.4237C213.774 16.5761 212.611 14.0618 210.435 14.0618C209.046 14.0999 207.733 15.7761 207.733 19.1284ZM217.452 19.6618C217.452 24.4237 214.037 26.7856 210.772 26.7856C206.344 26.7856 204.055 23.4713 204.055 20.1951C204.055 15.3951 207.808 12.9951 210.922 12.9951C214.787 12.9951 217.452 16.0427 217.452 19.6618Z" fill="white"/>
<path d="M86.6039 42.4049C86.0411 41.3763 85.103 40.8811 84.1273 40.8811C83.1892 40.8811 80.8627 41.7573 80.8627 46.2144C80.8627 49.7954 82.9641 51.3192 84.5401 51.3192C85.2906 51.3192 85.9285 51.0906 86.6039 50.6335V42.4049ZM91.9324 52.3096C91.2194 52.4239 88.7053 52.7668 86.5664 53.4525V51.6239L84.7652 52.7668C83.8647 53.3001 83.3393 53.4144 83.0016 53.4144C80.525 53.4144 77.1853 51.3192 77.1853 46.9763C77.1853 42.9382 80.7126 39.662 85.103 39.662C85.4032 39.662 85.891 39.7382 86.5664 39.8525V36.043C86.5664 34.3287 86.3788 34.1763 84.465 33.9858V33.1096C86.2287 32.9192 88.4426 32.5001 89.7935 32.0811V49.4144C89.7935 51.0525 89.9811 51.1668 91.1444 51.3192L91.8949 51.3954V52.3096H91.9324Z" fill="white"/>
<path d="M96.4728 44.5002C97.8237 44.5002 99.137 44.4621 100.488 44.424C100.976 44.424 101.126 44.3097 101.126 43.8145C101.126 42.2907 100.375 40.805 99.0245 40.805C97.8237 40.8431 96.7355 42.1764 96.4728 44.5002ZM104.203 50.3288C102.402 52.8431 100.188 53.4526 99.0995 53.4526C95.3095 53.4526 93.1707 50.5193 93.1707 47.0907C93.1707 44.8812 94.0337 43.0526 95.272 41.7954C96.5478 40.4621 98.1614 39.6621 99.6999 39.6621H99.7374C102.364 39.6621 104.39 41.9478 104.39 44.3097C104.39 44.9192 104.203 45.224 103.602 45.3383C103.115 45.4145 99.4748 45.6812 96.3602 45.7954C96.4353 49.3002 98.3866 50.9383 100.488 50.9383C101.651 50.9383 102.739 50.5193 103.79 49.5669L104.203 50.3288Z" fill="white"/>
<path d="M128.406 53.1092V52.1568C130.658 51.9283 130.808 51.6997 130.77 48.8426L130.695 37.1854H130.545L123.828 52.9188H123.078L116.886 37.4902H116.774L116.398 45.4902C116.286 47.9664 116.286 49.2997 116.361 50.3283C116.436 51.6997 117.074 51.9283 119.025 52.1187V53.1092H112.008V52.1187C113.697 51.9664 114.26 51.5092 114.447 50.4045C114.635 49.414 114.822 47.9664 115.048 44.8425L115.498 38.8616C115.761 35.2806 115.573 34.9759 112.984 34.7473V33.7949H118.612L124.654 47.433L130.808 33.7949H136.399V34.7473C133.96 34.9759 133.847 35.1664 133.885 37.833L134.147 48.8045C134.223 51.6997 134.335 51.8902 136.737 52.1187V53.0711H128.406" fill="white"/>
<path d="M141.39 45.8335C141.39 49.5288 142.703 52.3478 144.767 52.3478C146.155 52.3478 147.431 51.3954 147.431 47.1288C147.431 43.2812 146.268 40.7669 144.091 40.7669C142.703 40.7669 141.39 42.4431 141.39 45.8335ZM151.108 46.3288C151.108 51.0907 147.694 53.4526 144.429 53.4526C140.001 53.4526 137.712 50.1383 137.712 46.8621C137.712 42.0621 141.465 39.6621 144.579 39.6621C148.444 39.6621 151.108 42.7478 151.108 46.3288Z" fill="white"/>
<path d="M160.527 53.1088V52.2326C161.953 52.0421 162.103 51.8897 162.103 49.8326V44.804C162.103 42.7088 161.24 41.7945 159.852 41.7945C158.951 41.7945 158.126 42.2516 157.3 42.9373V50.023C157.3 51.9278 157.488 52.0421 158.876 52.2326V53.1088H152.047V52.2326C153.923 52.004 154.073 51.8897 154.073 49.9469V43.8135C154.073 41.9849 153.923 41.8706 152.422 41.604V40.8421C153.998 40.6135 155.724 40.2326 157.3 39.6992V41.9468C157.9 41.5278 158.501 41.0707 159.176 40.6135C160.039 40.0421 160.677 39.7373 161.54 39.7373C163.904 39.7373 165.368 41.4516 165.368 44.3849V50.0611C165.368 51.9659 165.555 52.0421 167.131 52.2707V53.1469H160.527" fill="white"/>
<path d="M173.736 53.1097C173.21 53.3383 172.76 53.4526 172.535 53.4526C170.433 53.4526 169.195 52.3478 169.195 49.7574V41.3383H167.281L167.131 40.9954L167.957 40.005H169.195V37.8716L172.01 35.6621L172.422 35.8145V40.0431H175.462C175.799 40.3859 175.724 41.1478 175.274 41.3764H172.422V48.805C172.422 51.1669 173.435 51.4716 174.111 51.4716C174.711 51.4716 175.274 51.2812 175.724 51.0907L175.987 52.005L173.736 53.1097Z" fill="white"/>
<path d="M179.89 44.5002C181.241 44.5002 182.554 44.4621 183.905 44.424C184.393 44.424 184.543 44.3097 184.543 43.8145C184.543 42.2907 183.792 40.805 182.441 40.805C181.278 40.8431 180.152 42.1764 179.89 44.5002ZM187.657 50.3288C185.856 52.8431 183.642 53.4526 182.554 53.4526C178.764 53.4526 176.625 50.5193 176.625 47.0907C176.625 44.8812 177.488 43.0526 178.726 41.7954C180.002 40.4621 181.616 39.6621 183.154 39.6621H183.192C185.818 39.6621 187.845 41.9478 187.845 44.3097C187.845 44.9192 187.657 45.224 187.057 45.3383C186.569 45.4145 182.929 45.6812 179.815 45.7954C179.89 49.3002 181.841 50.9383 183.942 50.9383C185.106 50.9383 186.194 50.5193 187.244 49.5669L187.657 50.3288Z" fill="white"/>
<path d="M193.886 42.823C194.899 41.0707 196.1 39.6611 197.301 39.6611C198.427 39.6611 199.177 40.4992 199.177 41.3754C199.177 42.2516 198.614 43.0135 197.901 43.2802C197.526 43.4707 197.226 43.3564 197.038 43.204C196.55 42.785 196.175 42.5945 195.725 42.5945C195.087 42.5945 194.374 43.1278 193.811 44.4992V49.985C193.811 51.8516 193.961 52.004 196.213 52.1945V53.0707H188.633V52.1945C190.321 52.004 190.584 51.8516 190.584 49.985V43.6231C190.584 41.9469 190.396 41.7945 188.895 41.5278V40.7659C190.547 40.5754 192.123 40.1945 193.811 39.623V42.823H193.886Z" fill="white"/>
<path d="M205.444 42.823C206.457 41.0707 207.658 39.6611 208.859 39.6611C209.984 39.6611 210.735 40.4992 210.735 41.3754C210.735 42.2516 210.172 43.0135 209.459 43.2802C209.084 43.4707 208.784 43.3564 208.596 43.204C208.108 42.785 207.733 42.5945 207.283 42.5945C206.645 42.5945 205.932 43.1278 205.369 44.4992V49.985C205.369 51.8516 205.519 52.004 207.77 52.1945V53.0707H200.19V52.1945C201.879 52.004 202.142 51.8516 202.142 49.985V43.6231C202.142 41.9469 201.954 41.7945 200.453 41.5278V40.7659C202.104 40.5754 203.68 40.1945 205.369 39.623V42.823H205.444Z" fill="white"/>
<path d="M214.45 44.5002C215.801 44.5002 217.114 44.4621 218.465 44.424C218.953 44.424 219.103 44.3097 219.103 43.8145C219.103 42.2907 218.352 40.805 217.001 40.805C215.838 40.8431 214.712 42.1764 214.45 44.5002ZM222.217 50.3288C220.416 52.8431 218.202 53.4526 217.114 53.4526C213.324 53.4526 211.185 50.5193 211.185 47.0907C211.185 44.8812 212.048 43.0526 213.286 41.7954C214.562 40.4621 216.176 39.6621 217.714 39.6621H217.752C220.379 39.6621 222.405 41.9478 222.405 44.3097C222.405 44.9192 222.217 45.224 221.617 45.3383C221.129 45.4145 217.489 45.6812 214.375 45.7954C214.45 49.3002 216.401 50.9383 218.502 50.9383C219.666 50.9383 220.754 50.5193 221.804 49.5669L222.217 50.3288Z" fill="white"/>
<path d="M236.889 40.8811C235.426 41.1477 235.163 41.4144 234.375 43.0525C233.625 44.6144 232.687 47.0906 230.848 51.5097C228.859 56.2716 228.296 58.062 227.771 59.7382C227.583 60.3478 227.208 60.5001 226.758 60.5001C225.932 60.5001 224.844 59.7001 224.844 58.7859C224.844 58.3287 225.032 58.062 225.594 57.643C226.683 57.0335 227.321 56.3859 227.921 55.3192C228.334 54.5954 228.521 54.1763 228.634 53.7954C228.784 53.3382 228.709 52.9192 228.559 52.3859C227.133 48.4239 225.632 44.4239 224.957 42.8239C224.394 41.4144 224.094 41.0716 222.593 40.843V39.9668H229.384V40.843C228.071 41.1097 227.883 41.3001 228.221 42.3287L230.585 49.262C231.336 47.4335 232.424 44.2716 232.949 42.5192C233.287 41.4906 233.024 41.1097 231.523 40.843V39.9668H236.814V40.8811" fill="white"/>
<path d="M76.7726 6.74707C76.6976 8.49945 76.5475 10.0995 76.4724 11.8518H77.448C77.7858 10.4042 78.1235 9.45183 78.5738 8.9185C78.9865 8.34707 79.5494 8.0804 81.9135 8.0804H83.2268V22.5185C83.2268 25.0328 82.9266 25.2614 80.4125 25.4899V26.4423H89.4934V25.4899C86.8292 25.2614 86.5665 25.0328 86.5665 22.5185V8.0804H88.1425C90.0187 8.0804 90.6942 8.27088 91.2195 8.8804C91.6698 9.41374 92.0075 10.328 92.3452 11.8518L93.3209 11.7756C93.2083 10.2137 93.0957 8.42326 93.0582 6.74707H76.7726Z" fill="white"/>
</svg>
