<svg width="200" height="215" viewBox="0 0 200 215" fill="none" xmlns="http://www.w3.org/2000/svg">
<path d="M72.7692 34.4231L79.3846 17.3462C80.5002 14.4548 82.4631 11.9679 85.0161 10.211C87.5691 8.45406 90.5932 7.50915 93.6923 7.5H106.308C109.407 7.50915 112.431 8.45406 114.984 10.211C117.537 11.9679 119.5 14.4548 120.615 17.3462L127.231 34.4231L149.692 47.3462L167.846 44.5769C170.869 44.1666 173.946 44.6642 176.685 46.0065C179.424 47.3488 181.703 49.4752 183.231 52.1154L189.385 62.8846C190.961 65.5669 191.688 68.6643 191.468 71.768C191.249 74.8717 190.093 77.8359 188.154 80.2692L176.923 94.5769V120.423L188.462 134.731C190.401 137.164 191.556 140.128 191.776 143.232C191.996 146.336 191.269 149.433 189.692 152.115L183.538 162.885C182.01 165.525 179.732 167.651 176.993 168.993C174.253 170.336 171.177 170.833 168.154 170.423L150 167.654L127.538 180.577L120.923 197.654C119.807 200.545 117.845 203.032 115.292 204.789C112.739 206.546 109.714 207.491 106.615 207.5H93.6923C90.5932 207.491 87.5691 206.546 85.0161 204.789C82.4631 203.032 80.5002 200.545 79.3846 197.654L72.7692 180.577L50.3077 167.654L32.1538 170.423C29.131 170.833 26.0544 170.336 23.3151 168.993C20.5757 167.651 18.2973 165.525 16.7692 162.885L10.6154 152.115C9.03845 149.433 8.31193 146.336 8.53166 143.232C8.75139 140.128 9.90705 137.164 11.8461 134.731L23.0769 120.423V94.5769L11.5384 80.2692C9.59936 77.8359 8.4437 74.8717 8.22397 71.768C8.00423 68.6643 8.73076 65.5669 10.3077 62.8846L16.4615 52.1154C17.9896 49.4752 20.268 47.3488 23.0074 46.0065C25.7467 44.6642 28.8233 44.1666 31.8461 44.5769L50 47.3462L72.7692 34.4231ZM69.2307 107.5C69.2307 113.586 71.0353 119.534 74.4163 124.594C77.7973 129.654 82.6027 133.598 88.2251 135.927C93.8474 138.256 100.034 138.865 106.003 137.678C111.971 136.491 117.454 133.56 121.757 129.257C126.06 124.954 128.991 119.471 130.178 113.503C131.365 107.534 130.756 101.347 128.427 95.7251C126.098 90.1028 122.154 85.2973 117.094 81.9163C112.034 78.5354 106.086 76.7308 100 76.7308C91.8395 76.7308 84.0132 79.9725 78.2428 85.7429C72.4725 91.5132 69.2307 99.3395 69.2307 107.5Z" stroke="white" stroke-width="15" stroke-linecap="round" stroke-linejoin="round"/>
</svg>
