<svg width="300" height="300" viewBox="0 0 300 300" fill="none" xmlns="http://www.w3.org/2000/svg">
<path fill-rule="evenodd" clip-rule="evenodd" d="M0 150C0 110.218 15.8035 72.0644 43.934 43.934C72.0644 15.8035 110.218 0 150 0C189.782 0 227.936 15.8035 256.066 43.934C284.196 72.0644 300 110.218 300 150C300 189.782 284.196 227.936 256.066 256.066C227.936 284.196 189.782 300 150 300C110.218 300 72.0644 284.196 43.934 256.066C15.8035 227.936 0 189.782 0 150ZM141.44 214.2L227.8 106.24L212.2 93.76L138.56 185.78L86.4 142.32L73.6 157.68L141.44 214.22V214.2Z" fill="white"/>
</svg>
