<svg width="49" height="49" viewBox="0 0 49 49" fill="none" xmlns="http://www.w3.org/2000/svg">
<path d="M41.499 7.48412C39.2987 5.26155 36.6778 3.49934 33.7893 2.30026C30.9008 1.10118 27.8025 0.489248 24.675 0.500143C11.5711 0.500143 0.891097 11.1801 0.891097 24.2841C0.891097 28.4841 1.99509 32.564 4.05909 36.164L0.699097 48.5L13.2991 45.188C16.779 47.084 20.691 48.092 24.675 48.092C37.779 48.092 48.459 37.412 48.459 24.3081C48.459 17.9481 45.987 11.9721 41.499 7.48412ZM24.675 44.06C21.123 44.06 17.643 43.1 14.5951 41.3L13.8751 40.868L6.38708 42.836L8.37907 35.54L7.89908 34.796C5.92567 31.6448 4.87782 28.0022 4.87508 24.2841C4.87508 13.3881 13.7551 4.50813 24.651 4.50813C29.931 4.50813 34.899 6.57213 38.619 10.3161C40.4609 12.1496 41.9207 14.3305 42.9135 16.7323C43.9064 19.1341 44.4126 21.7091 44.403 24.3081C44.451 35.204 35.571 44.06 24.675 44.06ZM35.523 29.2761C34.923 28.9881 31.995 27.5481 31.467 27.3321C30.915 27.1401 30.531 27.0441 30.123 27.6201C29.715 28.2201 28.587 29.5641 28.251 29.9481C27.915 30.3561 27.555 30.4041 26.955 30.0921C26.355 29.8041 24.435 29.1561 22.179 27.1401C20.403 25.5561 19.227 23.6121 18.867 23.0121C18.531 22.4121 18.819 22.1001 19.131 21.7881C19.395 21.5241 19.731 21.0921 20.019 20.7561C20.307 20.4201 20.427 20.1561 20.619 19.7721C20.811 19.3641 20.715 19.0281 20.571 18.7401C20.427 18.4521 19.227 15.5241 18.747 14.3241C18.267 13.1721 17.763 13.3161 17.403 13.2921H16.251C15.8431 13.2921 15.2191 13.4361 14.6671 14.0361C14.1391 14.6361 12.6031 16.0761 12.6031 19.0041C12.6031 21.9321 14.7391 24.7641 15.0271 25.1481C15.3151 25.5561 19.227 31.5561 25.179 34.124C26.595 34.748 27.699 35.108 28.563 35.372C29.979 35.828 31.275 35.756 32.307 35.612C33.459 35.444 35.835 34.172 36.315 32.78C36.819 31.3881 36.819 30.2121 36.651 29.9481C36.483 29.6841 36.123 29.5641 35.523 29.2761Z" fill="white"/>
</svg>
