<svg width="40" height="33" viewBox="0 0 40 33" fill="none" xmlns="http://www.w3.org/2000/svg">
<path d="M33.0435 1.5H6.7358C3.50706 1.5 0.889648 4.18629 0.889648 7.5V25.5C0.889648 28.8137 3.50706 31.5 6.7358 31.5H33.0435C36.2722 31.5 38.8896 28.8137 38.8896 25.5V7.5C38.8896 4.18629 36.2722 1.5 33.0435 1.5Z" stroke="white" stroke-width="1.71429" stroke-linecap="round" stroke-linejoin="round"/>
<path d="M14.9497 23.4607V10.8607C14.9436 10.6479 14.9942 10.4375 15.0959 10.2521C15.1977 10.0667 15.3468 9.91325 15.5272 9.80832C15.7076 9.7034 15.9125 9.65097 16.1198 9.65667C16.327 9.66237 16.5289 9.72599 16.7036 9.84067L27.2266 16.1407C27.4025 16.2465 27.5483 16.3978 27.6496 16.5793C27.7509 16.7609 27.8042 16.9665 27.8042 17.1757C27.8042 17.3849 27.7509 17.5905 27.6496 17.772C27.5483 17.9536 27.4025 18.1048 27.2266 18.2107L16.7036 24.5107C16.525 24.6165 16.3224 24.6719 16.1163 24.6715C15.9102 24.671 15.7078 24.6146 15.5298 24.508C15.3517 24.4014 15.2043 24.2484 15.1024 24.0645C15.0005 23.8805 14.9479 23.6722 14.9497 23.4607Z" stroke="white" stroke-width="1.71429" stroke-linecap="round" stroke-linejoin="round"/>
</svg>
